<svg width="1920" height="365" viewBox="0 0 1920 365" fill="none" xmlns="http://www.w3.org/2000/svg">
<g clip-path="url(#clip0)">
<mask id="mask0" mask-type="alpha" maskUnits="userSpaceOnUse" x="0" y="0" width="1920" height="365">
<path d="M0 0L1920 0V364.177H0L0 0Z" fill="url(#paint0_radial)"/>
</mask>
<g mask="url(#mask0)">
<mask id="mask1" mask-type="alpha" maskUnits="userSpaceOnUse" x="-2" y="0" width="1924" height="365">
<rect x="-1.8772" width="1923" height="364.177" fill="#C4C4C4"/>
</mask>
<g mask="url(#mask1)">
<path d="M1164.08 -122.747L613.19 438.524V1052.42L1766.62 -122.747H1164.08Z" fill="url(#paint1_linear)"/>
<path d="M1174.02 -122.747L623.125 438.524V1052.41L1776.56 -122.747H1174.02Z" fill="url(#paint2_linear)"/>
<path d="M1292.26 -122.747L741.361 438.524V1052.42L1894.79 -122.747H1292.26Z" fill="url(#paint3_linear)"/>
<path d="M1692.56 -139.979L1156.14 379.212V947.076L2279.27 -139.979H1692.56Z" fill="url(#paint4_linear)"/>
</g>
</g>
<rect width="1920" height="364.177" fill="url(#paint5_radial)"/>
<rect width="1920" height="364.177" fill="url(#paint6_linear)"/>
</g>
<defs>
<radialGradient id="paint0_radial" cx="0" cy="0" r="1" gradientUnits="userSpaceOnUse" gradientTransform="translate(1473.6) rotate(127.861) scale(606.828 1328.35)">
<stop stop-color="white"/>
<stop offset="0.848622" stop-color="white" stop-opacity="0"/>
</radialGradient>
<linearGradient id="paint1_linear" x1="1503.24" y1="-179.269" x2="39.5136" y2="512.61" gradientUnits="userSpaceOnUse">
<stop stop-color="#69CACA"/>
<stop offset="0.497238" stop-color="#94DADC"/>
<stop offset="1" stop-color="#CAEDF1"/>
</linearGradient>
<linearGradient id="paint2_linear" x1="1093.96" y1="-173.794" x2="730.143" y2="350.566" gradientUnits="userSpaceOnUse">
<stop offset="1" stop-color="#CAEDF1"/>
</linearGradient>
<linearGradient id="paint3_linear" x1="1631.41" y1="-179.269" x2="167.685" y2="512.61" gradientUnits="userSpaceOnUse">
<stop stop-color="#69CACA"/>
<stop offset="0.497238" stop-color="#94DADC"/>
<stop offset="1" stop-color="#CAEDF1"/>
</linearGradient>
<linearGradient id="paint4_linear" x1="2054.8" y1="-5.87209" x2="1260.95" y2="553.022" gradientUnits="userSpaceOnUse">
<stop stop-color="#69CACA"/>
<stop offset="0.497238" stop-color="#94DADC"/>
<stop offset="1" stop-color="#CAEDF1"/>
</linearGradient>
<radialGradient id="paint5_radial" cx="0" cy="0" r="1" gradientUnits="userSpaceOnUse" gradientTransform="translate(1746.99 428.4) rotate(-124.792) scale(451.453 1986.74)">
<stop offset="0.339597" stop-color="#F8F8F8"/>
<stop offset="1" stop-color="#F9F9F9" stop-opacity="0"/>
</radialGradient>
<linearGradient id="paint6_linear" x1="1371.51" y1="690.403" x2="1420.65" y2="40.7093" gradientUnits="userSpaceOnUse">
<stop offset="0.339597" stop-color="#F8F8F8"/>
<stop offset="1" stop-color="#F9F9F9" stop-opacity="0"/>
</linearGradient>
<clipPath id="clip0">
<rect width="1920" height="364.177" fill="white"/>
</clipPath>
</defs>
</svg>
