<svg xmlns="http://www.w3.org/2000/svg" viewBox="0 0 11.5 15.5"><defs><style>.cls-1{fill:#c4c4c4;}</style></defs><title>pin_icon</title><g id="Layer_2" data-name="Layer 2"><g id="Layer_1-2" data-name="Layer 1"><path class="cls-1" d="M5.78,3.07a2.81,2.81,0,0,0,0,5.62,2.81,2.81,0,0,0,0-5.62Zm0,5a2.11,2.11,0,0,1-2.1-2.2,2.1,2.1,0,1,1,4.19,0A2.1,2.1,0,0,1,5.76,8.08Z"/><path class="cls-1" d="M11.42,5A6,6,0,0,0,7.11.16L6.64.05,6.4,0H5.12L5,0l-.09,0A5.64,5.64,0,0,0,1,2.64,5.89,5.89,0,0,0,.2,7.48,6.82,6.82,0,0,0,1.36,9.87c.7,1,1.4,2,2.11,2.92l1.77,2.46a.59.59,0,0,0,.48.25.62.62,0,0,0,.42-.18,4,4,0,0,0,.37-.43L9.23,11.2l0-.06a17.51,17.51,0,0,0,1.55-2.38A6.06,6.06,0,0,0,11.42,5ZM9.69,8.56a21.94,21.94,0,0,1-1.38,2l-.19.25L6.4,13.18l-.65.89-.84-1.15L2.36,9.38a7,7,0,0,1-1-2A5,5,0,0,1,3.54,1.67,4.7,4.7,0,0,1,5.76,1.1,4.62,4.62,0,0,1,9.17,2.63a5,5,0,0,1,1.23,3A5,5,0,0,1,9.69,8.56Z"/></g></g></svg>