<svg width="33" height="32" viewBox="0 0 33 32" fill="none" xmlns="http://www.w3.org/2000/svg">
<path fill-rule="evenodd" clip-rule="evenodd" d="M8.24386 15.8188L12.3827 11.7463L8.2592 7.68896L0 15.8188H8.24386Z" fill="url(#paint0_linear)"/>
<path fill-rule="evenodd" clip-rule="evenodd" d="M0.444824 5.80812V0.0722656H27.1799L33 5.80812H0.444824Z" fill="url(#paint1_linear)"/>
<path fill-rule="evenodd" clip-rule="evenodd" d="M27.1709 31.9999H33.0002V5.86556L27.1709 0.0693359V31.9999Z" fill="url(#paint2_linear)"/>
<path fill-rule="evenodd" clip-rule="evenodd" d="M33.0001 32.0001L21.1728 20.3594L17.0493 24.4137L24.7593 32.0001H33.0001Z" fill="url(#paint3_linear)"/>
<path fill-rule="evenodd" clip-rule="evenodd" d="M9.34229 32.0001L21.1696 20.3594L25.2931 24.4137L17.5831 32.0001H9.34229Z" fill="url(#paint4_linear)"/>
<path fill-rule="evenodd" clip-rule="evenodd" d="M0.444824 0L12.3826 11.7434L8.25916 15.8008L0.444824 8.1117V0Z" fill="url(#paint5_linear)"/>
<defs>
<linearGradient id="paint0_linear" x1="13.6007" y1="9.73274" x2="-2.002" y2="15.8215" gradientUnits="userSpaceOnUse">
<stop stop-color="#445DA7"/>
<stop offset="1" stop-color="#49B1E5"/>
</linearGradient>
<linearGradient id="paint1_linear" x1="3671.69" y1="55.9395" x2="-121.963" y2="55.9395" gradientUnits="userSpaceOnUse">
<stop stop-color="#445DA7"/>
<stop offset="1" stop-color="#49B1E5"/>
</linearGradient>
<linearGradient id="paint2_linear" x1="598.793" y1="3553.94" x2="598.793" y2="-162.138" gradientUnits="userSpaceOnUse">
<stop stop-color="#445DA7"/>
<stop offset="1" stop-color="#49B1E5"/>
</linearGradient>
<linearGradient id="paint3_linear" x1="20.4733" y1="22.4756" x2="28.9673" y2="33.522" gradientUnits="userSpaceOnUse">
<stop offset="0.01" stop-color="#445DA7"/>
<stop offset="1" stop-color="#49B1E5"/>
</linearGradient>
<linearGradient id="paint4_linear" x1="909.607" y1="1362.66" x2="909.607" y2="696.92" gradientUnits="userSpaceOnUse">
<stop stop-color="#445DA7"/>
<stop offset="1" stop-color="#49B1E5"/>
</linearGradient>
<linearGradient id="paint5_linear" x1="42.4659" y1="-127.67" x2="565.709" y2="803.865" gradientUnits="userSpaceOnUse">
<stop stop-color="#445DA7"/>
<stop offset="1" stop-color="#49B1E5"/>
</linearGradient>
</defs>
</svg>
