<svg width="48" height="36" viewBox="0 0 48 36" fill="none" xmlns="http://www.w3.org/2000/svg">
<path fill-rule="evenodd" clip-rule="evenodd" d="M0 0H1H47H48V1V8.90698H46V2H2V34H46V15.6279H48V35V36H47H1H0V35V1V0ZM39.1716 23.9645L42.3535 27.1465C42.5488 27.3417 42.5488 27.6583 42.3535 27.8535L39.1716 31.0355C38.9763 31.2308 38.6597 31.2308 38.4645 31.0355C38.2692 30.8403 38.2692 30.5237 38.4645 30.3284L40.7928 28H8.5H8H7.5V6.20709L5.17163 8.53552C4.97632 8.7308 4.65967 8.7308 4.46448 8.53552C4.26917 8.34027 4.26917 8.02368 4.46448 7.82843L7.64648 4.64645C7.84167 4.45117 8.15833 4.45117 8.35352 4.64645L11.5355 7.82843C11.7308 8.02368 11.7308 8.34027 11.5355 8.53552C11.3403 8.7308 11.0237 8.7308 10.8284 8.53552L8.5 6.20709V27H40.7928L38.4645 24.6716C38.2692 24.4763 38.2692 24.1597 38.4645 23.9645C38.6597 23.7692 38.9763 23.7692 39.1716 23.9645Z" fill="#80A7BB"/>
</svg>
