<svg width="24" height="36" viewBox="0 0 24 36" fill="none" xmlns="http://www.w3.org/2000/svg">
<path fill-rule="evenodd" clip-rule="evenodd" d="M2 2H7V5H2V2ZM8 5V2H16V5H8ZM16 11H8V15H16V11ZM17 15V11H22V15H17ZM16 16H8V20H16V16ZM17 20V16H22V20H17ZM16 21H8V25H16V21ZM17 25V21H22V25H17ZM16 26H8V30H16V26ZM17 30V26H22V30H17ZM16 31H8V34H16V31ZM17 34H22V31H17V34ZM17 5V2H22V5H17ZM2 11H7V15H2V11ZM2 16H7V20H2V16ZM2 21H7V25H2V21ZM2 26H7V30H2V26ZM2 31H7V34H2V31ZM0 0H2H22H24V2V34V36H22H2H0V34V2V0Z" fill="#80A7BB"/>
</svg>
