<svg width="35" height="45" viewBox="0 0 35 45" fill="none" xmlns="http://www.w3.org/2000/svg">
<path d="M26.4003 0C26.9341 0.115234 27.4767 0.195011 28.0016 0.336838C34.4599 2.10967 37.1108 9.7683 33.1077 15.1223C32.8942 15.4059 32.8853 15.5921 33.0543 15.8934C35.2249 19.9621 33.7571 24.9792 29.7184 27.2396C29.3893 27.4257 29.3092 27.6207 29.3092 27.9664C29.3181 32.0882 29.3092 36.2101 29.3181 40.3319C29.3181 41.4399 28.9623 42.3795 28.1528 43.1507C27.7347 43.5496 27.3344 43.9662 26.9252 44.374C26.0712 45.2072 24.9592 45.2072 24.1141 44.3828C23.6604 43.9396 23.2068 43.4875 22.762 43.0355C21.8813 42.1491 21.8813 41.0588 22.762 40.1812C22.9043 40.0394 23.0911 39.933 23.2868 39.7823C22.6552 39.1707 22.1037 38.6655 22.1126 37.8145C22.1215 36.9813 22.6552 36.476 23.2245 35.9442C22.673 35.4034 22.1126 34.8982 22.1126 34.0472C22.1126 33.214 22.6552 32.7087 23.2423 32.1414C21.7212 31.0334 21.5877 29.4379 21.7301 27.798C20.8939 27.9753 20.1199 28.1703 19.3371 28.3032C18.2251 28.4894 17.1221 28.3564 16.0457 28.0373C15.7699 27.9575 15.6009 28.0107 15.3963 28.2146C12.4518 31.1664 9.48063 34.1093 6.53614 37.061C5.76221 37.8411 4.84595 38.2311 3.75178 38.2134C3.15576 38.2045 2.56864 38.2222 1.97263 38.2134C0.816184 38.1957 0.0244633 37.3979 0.0066718 36.2544C-0.00222393 35.6073 -0.00222393 34.9514 0.0066718 34.3043C0.0155675 33.1076 0.816184 32.3187 2.026 32.301C2.23061 32.301 2.43521 32.301 2.67539 32.301C2.68429 31.5121 2.6576 30.7586 3.27141 30.1647C3.86742 29.5886 4.60577 29.6063 5.3708 29.6329C5.38859 28.8528 5.33522 28.1082 5.92234 27.5143C6.50945 26.9204 7.2478 26.9382 8.06621 26.9648C8.06621 26.7432 8.06621 26.5393 8.06621 26.3443C8.04842 25.3249 8.42204 24.4739 9.1337 23.7648C9.43615 23.4634 9.72971 23.1443 10.05 22.8607C10.2635 22.6745 10.2812 22.5061 10.2101 22.249C9.09811 18.3843 10.7438 14.3777 14.2665 12.4541C16.6061 11.1688 19.0524 11.0536 21.561 11.9932C21.7567 12.0641 22.0325 12.0996 22.2193 12.0287C25.662 10.7434 28.731 11.3284 31.4531 13.7838C31.4976 13.8192 31.5421 13.8635 31.6132 13.9256C32.227 13.1455 32.6273 12.268 32.8675 11.3284C33.935 7.22429 31.2841 2.97836 27.112 2.09194C22.8687 1.15234 18.7055 3.98887 18.0294 8.2348C17.9672 8.61596 17.9583 8.99712 17.9316 9.37828C17.8871 10.0165 17.5046 10.4065 16.9264 10.3799C16.3837 10.3533 16.019 9.94558 16.019 9.33396C15.9923 4.98166 19.3816 0.939601 23.7138 0.177283C24.0163 0.124098 24.3187 0.0620491 24.6212 0C25.2172 0 25.8043 0 26.4003 0ZM23.954 37.8234C24.3721 38.2222 24.7457 38.5591 25.1015 38.9048C25.662 39.4632 25.662 39.9508 25.0926 40.5092C24.7279 40.8638 24.3454 41.2006 24.0341 41.4931C24.5856 42.0693 25.0482 42.5568 25.5463 43.0798C25.9466 42.672 26.3203 42.2643 26.7295 41.8831C27.2098 41.4399 27.4055 40.9258 27.4055 40.2699C27.3877 35.8821 27.4055 31.4943 27.3966 27.1066C27.3966 26.5481 27.5835 26.167 28.1172 25.9188C30.5991 24.7842 31.9513 22.8429 32.1381 20.1216C32.2181 18.987 31.9691 17.9056 31.4709 16.9571C30.5635 17.4181 29.7095 17.879 28.8289 18.2868C28.5086 18.4374 28.2862 18.5615 28.1617 18.9338C27.7614 20.1216 26.516 20.8928 25.315 20.7776C23.9362 20.6446 22.9043 19.6873 22.6908 18.3488C22.4951 17.1167 23.2156 15.8314 24.3988 15.335C25.5819 14.8297 26.9696 15.1932 27.7614 16.2037C27.8503 16.3189 27.9393 16.4341 28.0816 16.6292C28.8378 16.2037 29.5761 15.7782 30.3411 15.3439C29.0424 13.8458 26.9163 13.0569 24.8436 13.2608C21.988 13.5356 19.5773 15.6807 19.0169 18.4463C18.4208 21.3803 19.7107 24.3144 22.3528 25.6174C23.3936 26.1227 23.6693 26.7432 23.6426 27.8157C23.5804 30.1027 23.4202 29.6506 25.0482 31.2816C25.066 31.2993 25.0926 31.3259 25.1104 31.3437C25.6531 31.8932 25.662 32.3719 25.1104 32.9126C24.7457 33.276 24.3454 33.604 23.9095 33.994C24.3988 34.455 24.7991 34.8095 25.1727 35.1907C25.6353 35.6605 25.6353 36.1658 25.1727 36.6356C24.7991 37.0256 24.4077 37.389 23.954 37.8234ZM19.9064 13.4292C18.8389 13.181 17.8426 13.1899 16.8463 13.4292C12.9322 14.3777 10.7616 18.4552 12.2027 22.2047C12.4251 22.7986 12.3628 23.2507 11.8914 23.6762C11.4377 24.0839 11.0374 24.536 10.5926 24.9526C10.1389 25.3692 9.91652 25.8656 9.94321 26.4861C9.961 26.9116 9.9521 27.3459 9.94321 27.7714C9.93431 28.4539 9.57848 28.8085 8.90241 28.8174C8.36866 28.8262 7.84382 28.8174 7.26559 28.8174C7.26559 29.3758 7.26559 29.8899 7.26559 30.4041C7.2567 31.1398 6.90976 31.4855 6.17142 31.4943C5.65546 31.5032 5.13951 31.4943 4.58798 31.4943C4.58798 32.0173 4.58798 32.4871 4.58798 32.9569C4.58798 33.8345 4.25883 34.1625 3.38705 34.1713C2.90668 34.1713 2.41742 34.1713 1.93705 34.1713C1.93705 34.9159 1.93705 35.5807 1.93705 36.2899C2.52417 36.2899 3.0668 36.2633 3.60944 36.2987C4.27663 36.3342 4.79258 36.0948 5.27295 35.625C8.36866 32.5226 11.4733 29.4379 14.569 26.3354C15.0049 25.9011 15.423 25.7947 16.0012 26.0252C17.2377 26.5216 18.5187 26.6102 19.8975 26.2911C17.9939 24.536 16.9797 22.4175 16.9708 19.8823C16.9708 17.3294 17.985 15.2109 19.9064 13.4292ZM25.5196 18.8984C26.0356 18.8895 26.4537 18.4818 26.4626 17.9765C26.4715 17.4535 26.0267 17.0192 25.5019 17.0192C24.9948 17.028 24.5678 17.4447 24.5589 17.9499C24.55 18.4729 24.9859 18.9072 25.5196 18.8984Z" fill="#80A7BB"/>
</svg>
