<svg width="10" height="17" viewBox="0 0 10 17" fill="none" xmlns="http://www.w3.org/2000/svg">
<path d="M7.76152 0.963867H1.91875C1.18801 0.963867 0.590332 1.56187 0.590332 2.29202V14.6973C0.590332 15.4278 1.18801 16.0252 1.91875 16.0252H7.76152C8.49226 16.0252 9.08994 15.4278 9.08994 14.6973V2.29202C9.08994 1.56187 8.49219 0.963867 7.76152 0.963867Z" stroke="#C4C4C4" stroke-linecap="round" stroke-linejoin="round"/>
<path d="M4.84015 14.962C5.14829 14.962 5.39808 14.7123 5.39808 14.4041C5.39808 14.096 5.14829 13.8462 4.84015 13.8462C4.53202 13.8462 4.28223 14.096 4.28223 14.4041C4.28223 14.7123 4.53202 14.962 4.84015 14.962Z" stroke="#C4C4C4" stroke-width="0.5" stroke-linecap="round" stroke-linejoin="round"/>
<path d="M9.09619 2.94238H0.596191V12.7501H9.09619V2.94238Z" stroke="#C4C4C4" stroke-width="0.5" stroke-linecap="round" stroke-linejoin="round"/>
</svg>
