<svg width="11" height="15" viewBox="0 0 11 15" fill="none" xmlns="http://www.w3.org/2000/svg">
<path d="M6.09472 0C6.32901 0.0498477 6.56609 0.093831 6.80038 0.149543C8.84483 0.645088 10.5657 2.58329 10.92 4.75606C11.1319 6.04624 10.9172 7.24845 10.3426 8.39495C9.92145 9.23649 9.37199 9.99007 8.81973 10.7378C7.89931 11.9898 6.97888 13.2419 6.05567 14.491C5.94968 14.6347 5.83533 14.7696 5.70981 14.8927C5.55362 15.0511 5.32212 15.0306 5.19661 14.8546C3.90244 13.063 2.60269 11.2715 1.31688 9.47107C0.817621 8.7732 0.399246 8.01962 0.18727 7.16635C-0.228315 5.49791 0.0533901 3.9409 0.976603 2.52464C1.88029 1.14063 3.14099 0.31668 4.71966 0.0410511C4.7866 0.0293222 4.85354 0.0146611 4.92327 0C5.31375 0 5.70424 0 6.09472 0ZM5.49505 14.2301C5.54246 14.1714 5.5843 14.1216 5.62614 14.0659C6.44057 12.9575 7.25501 11.8462 8.07224 10.7378C8.62449 9.99007 9.19069 9.25115 9.65369 8.43306C10.1948 7.47423 10.496 6.45382 10.3984 5.32198C10.2952 4.1315 9.87961 3.09056 9.10144 2.21676C7.5925 0.524867 5.15756 0.111424 3.17167 1.20221C1.11885 2.32818 0.0952275 4.96425 0.823199 7.24845C1.06028 7.99323 1.45634 8.65005 1.90261 9.27168C3.07127 10.8961 4.2455 12.5176 5.41695 14.1392C5.43926 14.1656 5.46437 14.1949 5.49505 14.2301Z" fill="#005078"/>
<path d="M2.82302 5.62112C2.8286 4.10223 4.07814 2.80912 5.53129 2.81792C6.96492 2.82671 8.19773 4.13448 8.19216 5.63871C8.18658 7.1576 6.93703 8.45071 5.48667 8.44191C4.05025 8.43312 2.81744 7.12241 2.82302 5.62112ZM3.41432 5.63285C3.41432 6.8849 4.31243 7.82615 5.50619 7.82615C6.69995 7.82615 7.60364 6.8849 7.60364 5.63578C7.60364 4.37786 6.70274 3.43368 5.5034 3.43661C4.30685 3.43955 3.41153 4.37786 3.41432 5.63285Z" fill="#005078"/>
</svg>
