<svg width="600" height="173" viewBox="0 0 600 173" fill="none" xmlns="http://www.w3.org/2000/svg">
<g opacity="0.05">
<path d="M187.425 35.6001H183.125V143.6H187.425V35.6001Z" fill="#005078"/>
<path d="M147.824 35.6001H143.524V143.6H147.824V35.6001Z" fill="#005078"/>
<path d="M90.4245 40.3003H86.1245V143.6H90.4245V40.3003Z" fill="#005078"/>
<path d="M122.925 40.3003H118.625V137.3H122.925V40.3003Z" fill="#005078"/>
<path d="M213.024 145.4H197.224V154.4H188.324V147.2H177.324V143.7H156.224V148.5H151.524L147.824 152.2H134.724V149.1H128.024V143.1H115.324V138.1H103.224V145.4H93.9243L88.6243 149.1H76.7243V144.8L73.0243 138.1H57.6243V144.8H54.3243V154.5H48.4243V142.8H39.4243V120.9H44.7243V116.9H47.8243L50.5243 114.2H82.2243V119.1H62.5243V120.9H82.3243V146.3H84.1243V113.3V112.4V34.5001H91.9243L94.6243 31.8001H101.324V34.5001H114.224V32.7001H103.124V30.1001H93.8243L91.1243 32.8001H82.2243V112.5H49.8243L47.1243 115.2H42.9243V119.2H39.4243V115.2H5.92432V141.1H7.72432V133.3H13.8243V131.5H7.72432V127.6H13.8243V125.8H7.72432V121.9H13.8243V120.1H7.72432V116.9H37.6243V144.6H46.6243V154.5H7.72432V146.6L15.5243 142.1L23.6243 146.6V151.5H34.5243V149.7H25.4243V145.6L15.5243 140.1L5.92432 145.4V154.9L0.924316 159.9V172.9H2.72432V160.6L7.22432 156.1H54.3243V166.1H20.3243V172.8H22.1243V167.9H134.924V172.8H136.724V166.1H105.024V139.7H113.524V144.7H126.224V150.7H132.924V160.8H134.724V158H152.224V164.8H159.724L161.724 166.8V172.8H163.524V166.1L160.524 163.1H154.024V156.3H134.724V153.9H148.624L152.324 150.2H163.924V158.1H172.424V162.1H189.124V160.3H174.224V156.3H165.724V148.4H158.024V145.5H175.524V149H186.524V156.2H197.224V166.2H168.224V172.9H170.024V168H199.024V147.2H205.324V173H207.124V147.2H211.224V168H227.924V172.9H229.724V166.2H213.024V145.4ZM56.0243 146.5H59.3243V139.8H71.9243L74.9243 145.1V166.1H56.0243V146.5ZM76.7243 166.2V150.8H89.1243L94.4243 147.1H103.224V166.1H76.7243V166.2Z" fill="#005078"/>
<path d="M558.424 66.3999H533.125V68.1999H558.424V66.3999Z" fill="#005078"/>
<path d="M716.024 138.1V126.4H704.024V123.4H692.524V126.4H680.324V122.4H668.024V118.4H644.524V122.4H628.524V126.4H620.324V122.4H600.224V126.7H594.324V125.8V122.4V113.9H599.324V111.6H608.224V115.6H624.324V113.6H640.924V115.6H650.524V111.6H654.024V115.7H655.824V111.6H662.724V115.7H664.524V111.6H671.424V115.7H673.224V111.6H680.124V115.7H681.924V111.6H689.324L693.524 115.8H701.924V111.6H710.124V119.4H711.924V109.1H717.724V107.3H711.924V104.4H717.724V102.6H711.924V99.8001H727.924V113.4H717.824V115.2H743.424L746.124 117.9H753.924V121.4H747.624V124.9H737.224V121.4H720.024V123.2H735.424V126.7H749.424V123.2H775.524V121.4H755.824V97.0001H772.524V94.8001H781.424V134.6H783.224V93.1001H770.724V95.3001H753.924V101.8H752.524L749.324 98.6001V92.1001H747.524V98.1001H729.624H728.724H710.124V109.9H700.124V114.1H694.224L690.024 109.9H648.624V113.9H642.624V111.9H622.524V113.9H610.024V109.9H597.524V112.2H594.324V102.4H590.624L586.824 98.6001H566.524V101.9H558.324V71.1001H533.224V93.1001H516.424V94.9001H519.824V97.1001H509.524V113.8H449.624V98.4001H438.124L433.824 94.1001H411.424V95.9001H414.824V98.4001H406.124V106.1H397.924V108.6H389.524V112.1H385.124V115.4H370.224L367.424 58.4001H361.724L358.924 115.4H347.724V96.7001H330.724V90.7001H310.624V96.4001H302.624V108.6H286.924V112.4H284.624V118.7H282.424V98.4001H266.124V69.9001H268.824V64.1001H252.724V67.1001H247.524V63.8001H244.224V58.5001H234.924V54.1001H232.924V58.5001H222.224V64.1001H217.524V68.4001H210.924V87.9001H213.224V139H215.024V87.9001H218.424V86.1001H212.624V82.4001H221.524V145.4H218.424V147.2H232.024L240.824 156H245.124V160.5H254.424V168H332.424V172.9H334.224V166.2H320.924V98.5001H328.924H329.824H345.924V156.2H354.624V158.2H363.924V166.2H339.224V172.9H341.024V168H385.224V172.9H387.024V166.2H378.024V158.7H375.324V156.2H399.924V162.6H401.724V154.4H373.624V160.5H376.324V166.2H365.824V156.4H356.524V154.4H347.824V117.2H385.324V144.6H387.124V113.8H391.524V110.3H399.924V107.8H406.324V157.9H408.124V100.1H423.724V134.5H433.424V100.1H447.924V166.1H438.524V162.6H443.924V160.8H438.524V154.8H443.924V153.1H438.524V147.1H443.924V145.3H438.524V139.3H443.924V137.5H438.524V131.5H443.924V129.7H438.524V123.7H443.924V121.9H438.524V115.9H443.924V114.1H438.524V108.1H443.924V106.1H438.524V103.5H436.724V166.3H393.124V168.1H609.124V166.3H592.024V157.4H590.224V166.3H587.224V157.4H585.424V166.3H582.424V157.4H580.624V166.3H577.624V157.4H575.824V166.3H572.824V157.4H570.924V166.3H552.724V153.3H557.624V159.3H567.124V155.8L570.924 152H590.524L595.824 157.3V163H609.224V161.1H597.624V156.5L591.224 150.1H585.124V128.9H588.824V124.2H592.724V125.8V128.5H602.224V124.2H618.724V128.2H630.524V124.2H646.524V120.2H666.424V124.2H678.724V128.2H694.524V125.2H702.424V128.2H714.424V138.1H612.424V173H614.224V139.9H783.924V173H785.724V138.1H716.024ZM732.924 99.8001V109.1H734.724V99.8001H748.124L751.824 103.5H753.924V116.1H746.824L744.124 113.4H729.624V99.8001H732.924ZM280.624 100.2V120.5H286.424V114.2H288.724V110.4H302.624V150.6H299.524L295.624 146.7H285.324L277.524 154.5H272.124H271.224H266.124V100.3H280.624V100.2ZM221.624 76.8001H212.724V74.9001H221.624V76.8001ZM212.724 80.6001V78.7001H221.624V80.6001H212.724ZM247.024 158.7V154.2H241.624L232.824 145.4H231.724V66.0001H229.924V145.4H223.424V69.5001H221.624V73.1001H212.724V70.2001H219.424V65.9001H224.124V60.2001H242.324V65.5001H245.624V68.8001H254.424V65.8001H266.924V68.1001H264.224V73.1001H258.724V74.9001H264.224V78.8001H258.724V80.6001H264.224V84.5001H258.724V86.3001H264.224V90.2001H258.724V92.1001H264.224V96.1001H258.724V97.9001H264.224V101.8H258.724V103.6H264.224V107.5H258.724V109.3H264.224V113.2H258.724V115H264.224V118.9H258.724V120.7H264.224V124.6H258.724V126.4H264.224V130.3H258.724V132.1H264.224V136H258.724V137.8H264.224V141.7H258.724V143.5H264.224V147.4H258.724V149.2H264.224V155.8H270.224V165.8H256.324V158.3H247.024V158.7ZM319.124 96.7001V166.2H272.124V156.2H278.224L286.024 148.4H294.824L298.724 152.3H302.624V161.2H304.424V98.2001H312.424V92.5001H328.924V96.7001H319.124ZM367.924 103.7H361.324L362.024 88.7001H367.124L367.924 103.7ZM365.824 60.2001L367.124 86.9001H362.224L363.524 60.2001H365.824ZM361.224 105.5H368.024L368.524 115.4H360.724L361.224 105.5ZM416.724 95.9001H433.124L435.624 98.4001H416.724V95.9001ZM425.424 132.8V117.3H431.524V132.8H425.424ZM431.624 115.5H425.524V100.2H431.624V115.5ZM521.724 94.9001H538.124L540.324 97.1001H521.724V94.9001ZM525.724 98.9001V106.1H521.924V107.9H525.724V111.8H521.924V113.6H525.724V117.5H521.924V119.3H525.724V123.2H521.924V125H525.724V128.9H521.924V130.7H525.724V134.6H521.924V136.4H525.724V140.3H521.924V142.1H525.724V146H521.924V147.8H525.724V151.7H521.924V153.5H525.724V157.4H521.924V159.2H525.724V165.8H511.324V98.9001H525.724ZM509.624 115.5V148.4H504.424V137.4H472.424V133.7H463.624V137.4H449.724V115.5H509.624ZM449.724 139.2H465.424V135.5H470.624V139.2H502.624V150.2H509.624V166.2H498.124V161.2H496.324V166.2H491.424V161.2H489.624V166.2H484.724V161.2H482.924V166.2H478.024V161.2H476.224V166.2H471.324V161.2H469.524V166.2H464.624V161.2H462.924V166.2H458.024V161.2H456.224V166.2H449.724V139.2ZM541.524 166.2V159.6H546.424V157.8H541.524V153.9H546.424V152.1H541.524V148.1H546.424V146.3H541.524V142.4H546.424V140.6H541.524V136.7H546.424V134.9H541.524V131H546.424V129.1H541.524V125.1H546.424V123.3H541.524V119.4H546.424V117.6H541.524V113.7H546.424V111.9H541.524V108H546.424V106.1H541.524V103.5H539.724V166.3H527.524V98.9001H550.924V166.3H541.524V166.2ZM586.924 122.4V127.1H583.224V150.1H570.124L565.224 155V157.5H559.324V151.5H552.624V97.1001H542.724L538.724 93.1001H534.924V72.9001H539.124V89.3001H540.924V72.9001H543.824V89.3001H545.624V72.9001H548.524V89.3001H550.324V72.9001H556.524V103.6H568.324V100.3H586.024L589.824 104.1H592.424V122.5H586.924V122.4Z" fill="#005078"/>
<path d="M108.024 27.0001H127.024V25.2001H108.024V24.2001H129.224V30.4001H126.524V32.7001H118.924V34.5001H126.524V137.3H128.324V32.2001H137.524V146.3H139.324V31.3001C139.324 28.7001 141.424 26.5001 144.124 26.5001H151.424C154.024 26.5001 156.224 28.6001 156.224 31.3001V32.2001H178.324V31.3001C178.324 29.2001 180.024 27.5001 182.124 27.5001H187.124C189.224 27.5001 190.924 29.2001 190.924 31.3001V32.2001H207.224V141H209.024V30.4001H192.624C192.224 27.8001 189.924 25.7001 187.124 25.7001H185.724V19.4001H182.824L175.024 11.0001L173.324 0.100098L171.624 11.0001L163.824 19.4001H160.924V27.9001H162.724V24.0001H181.724V22.2001H162.724V21.2001H183.924V25.7001H182.124C179.324 25.7001 177.024 27.7001 176.624 30.4001H157.924C157.524 27.2001 154.724 24.7001 151.424 24.7001H144.124C140.824 24.7001 138.024 27.2001 137.624 30.4001H131.024V22.4001H128.124L120.324 14.0001L118.624 3.1001L116.924 14.0001L109.124 22.4001H106.224V29.9001H108.024V27.0001ZM180.324 19.4001H174.224V12.8001L180.324 19.4001ZM172.424 12.8001V19.4001H166.324L172.424 12.8001ZM119.524 22.4001V15.8001L125.624 22.4001H119.524ZM117.724 15.8001V22.4001H111.624L117.724 15.8001Z" fill="#005078"/>
<path d="M112.325 39.3003H97.1245V47.3003H112.325V39.3003Z" fill="#005078"/>
<path d="M175.924 39.3003H155.424V46.3003H162.024V57.0003H169.224V46.3003H175.924V39.3003Z" fill="#005078"/>
<path d="M102.825 55.7002H97.1245V57.5002H102.825V55.7002Z" fill="#005078"/>
<path d="M112.424 55.7002H106.724V57.5002H112.424V55.7002Z" fill="#005078"/>
<path d="M102.825 65.1001H97.1245V66.9001H102.825V65.1001Z" fill="#005078"/>
<path d="M112.424 65.1001H106.724V66.9001H112.424V65.1001Z" fill="#005078"/>
<path d="M102.825 74.3999H97.1245V76.1999H102.825V74.3999Z" fill="#005078"/>
<path d="M112.424 74.3999H106.724V76.1999H112.424V74.3999Z" fill="#005078"/>
<path d="M102.825 83.7002H97.1245V85.5002H102.825V83.7002Z" fill="#005078"/>
<path d="M112.424 83.7002H106.724V85.5002H112.424V83.7002Z" fill="#005078"/>
<path d="M102.825 93.1001H97.1245V94.9001H102.825V93.1001Z" fill="#005078"/>
<path d="M112.424 93.1001H106.724V94.9001H112.424V93.1001Z" fill="#005078"/>
<path d="M102.825 102.4H97.1245V104.2H102.825V102.4Z" fill="#005078"/>
<path d="M112.424 102.4H106.724V104.2H112.424V102.4Z" fill="#005078"/>
<path d="M102.825 111.7H97.1245V113.5H102.825V111.7Z" fill="#005078"/>
<path d="M112.424 111.7H106.724V113.5H112.424V111.7Z" fill="#005078"/>
<path d="M102.825 121.1H97.1245V122.9H102.825V121.1Z" fill="#005078"/>
<path d="M112.424 121.1H106.724V122.9H112.424V121.1Z" fill="#005078"/>
<path d="M102.825 130.4H97.1245V132.2H102.825V130.4Z" fill="#005078"/>
<path d="M112.424 130.4H106.724V132.2H112.424V130.4Z" fill="#005078"/>
<path d="M158.924 65.1001H153.224V66.9001H158.924V65.1001Z" fill="#005078"/>
<path d="M172.424 65.1001H166.724V66.9001H172.424V65.1001Z" fill="#005078"/>
<path d="M158.924 74.3999H153.224V76.1999H158.924V74.3999Z" fill="#005078"/>
<path d="M172.424 74.3999H166.724V76.1999H172.424V74.3999Z" fill="#005078"/>
<path d="M158.924 83.7002H153.224V85.5002H158.924V83.7002Z" fill="#005078"/>
<path d="M172.424 83.7002H166.724V85.5002H172.424V83.7002Z" fill="#005078"/>
<path d="M158.924 93.1001H153.224V94.9001H158.924V93.1001Z" fill="#005078"/>
<path d="M172.424 93.1001H166.724V94.9001H172.424V93.1001Z" fill="#005078"/>
<path d="M158.924 102.4H153.224V104.2H158.924V102.4Z" fill="#005078"/>
<path d="M172.424 102.4H166.724V104.2H172.424V102.4Z" fill="#005078"/>
<path d="M158.924 111.7H153.224V113.5H158.924V111.7Z" fill="#005078"/>
<path d="M172.424 111.7H166.724V113.5H172.424V111.7Z" fill="#005078"/>
<path d="M158.924 121.1H153.224V122.9H158.924V121.1Z" fill="#005078"/>
<path d="M172.424 121.1H166.724V122.9H172.424V121.1Z" fill="#005078"/>
<path d="M158.924 130.4H153.224V132.2H158.924V130.4Z" fill="#005078"/>
<path d="M172.424 130.4H166.724V132.2H172.424V130.4Z" fill="#005078"/>
<path d="M201.024 65.1001H199.024V37.6001H197.224V65.1001H195.324V66.9001H201.024V65.1001Z" fill="#005078"/>
<path d="M201.024 74.3999H195.324V76.1999H201.024V74.3999Z" fill="#005078"/>
<path d="M201.024 83.7002H195.324V85.5002H201.024V83.7002Z" fill="#005078"/>
<path d="M201.024 93.1001H195.324V94.9001H201.024V93.1001Z" fill="#005078"/>
<path d="M201.024 102.4H195.324V104.2H201.024V102.4Z" fill="#005078"/>
<path d="M201.024 111.7H195.324V113.5H201.024V111.7Z" fill="#005078"/>
<path d="M201.024 121.1H195.324V122.9H201.024V121.1Z" fill="#005078"/>
<path d="M201.024 130.4H195.324V132.2H201.024V130.4Z" fill="#005078"/>
<path d="M133.925 42.8003H132.125V143.6H133.925V42.8003Z" fill="#005078"/>
<path d="M75.8245 124.1H55.1245V125.9H75.8245V124.1Z" fill="#005078"/>
<path d="M68.5242 129.1H47.8242V130.9H68.5242V129.1Z" fill="#005078"/>
<path d="M27.1245 120.1H21.1245V121.9H27.1245V120.1Z" fill="#005078"/>
<path d="M27.1245 125.7H21.1245V127.5H27.1245V125.7Z" fill="#005078"/>
<path d="M27.1245 131.4H21.1245V133.2H27.1245V131.4Z" fill="#005078"/>
<path d="M27.1245 137.1H21.1245V138.9H27.1245V137.1Z" fill="#005078"/>
<path d="M65.8241 153.2H63.7241V156.7H65.8241V153.2Z" fill="#005078"/>
<path d="M65.8241 159.6H63.7241V163.1H65.8241V159.6Z" fill="#005078"/>
<path d="M7.82412 164.1H5.72412V167.6H7.82412V164.1Z" fill="#005078"/>
<path d="M13.8241 164.1H11.7241V167.6H13.8241V164.1Z" fill="#005078"/>
<path d="M24.1244 161H22.0244V163.1H24.1244V161Z" fill="#005078"/>
<path d="M30.6244 161H28.5244V163.1H30.6244V161Z" fill="#005078"/>
<path d="M37.0243 161H34.9243V163.1H37.0243V161Z" fill="#005078"/>
<path d="M43.5243 161H41.4243V163.1H43.5243V161Z" fill="#005078"/>
<path d="M49.9242 161H47.8242V163.1H49.9242V161Z" fill="#005078"/>
<path d="M90.0244 154.2H81.0244V156.3H90.0244V154.2Z" fill="#005078"/>
<path d="M90.0244 158.6H81.0244V160.7H90.0244V158.6Z" fill="#005078"/>
<path d="M90.0244 162.9H81.0244V165H90.0244V162.9Z" fill="#005078"/>
<path d="M100.724 154.2H96.2241V156.3H100.724V154.2Z" fill="#005078"/>
<path d="M100.724 158.6H96.2241V160.7H100.724V158.6Z" fill="#005078"/>
<path d="M100.724 162.9H96.2241V165H100.724V162.9Z" fill="#005078"/>
<path d="M114.125 154.2H109.625V156.3H114.125V154.2Z" fill="#005078"/>
<path d="M114.125 148.9H109.625V151H114.125V148.9Z" fill="#005078"/>
<path d="M114.125 158.6H109.625V160.7H114.125V158.6Z" fill="#005078"/>
<path d="M114.125 162.9H109.625V165H114.125V162.9Z" fill="#005078"/>
<path d="M122.125 154.2H117.625V156.3H122.125V154.2Z" fill="#005078"/>
<path d="M122.125 158.6H117.625V160.7H122.125V158.6Z" fill="#005078"/>
<path d="M223.024 152H218.524V154.1H223.024V152Z" fill="#005078"/>
<path d="M225.224 157.5H220.724V159.6H225.224V157.5Z" fill="#005078"/>
<path d="M235.324 157.5H230.824V159.6H235.324V157.5Z" fill="#005078"/>
<path d="M239.824 163.9H235.324V166H239.824V163.9Z" fill="#005078"/>
<path d="M247.724 163.9H243.224V166H247.724V163.9Z" fill="#005078"/>
<path d="M232.424 152H227.924V154.1H232.424V152Z" fill="#005078"/>
<path d="M122.125 162.9H117.625V165H122.125V162.9Z" fill="#005078"/>
<path d="M130.125 158.6H125.625V160.7H130.125V158.6Z" fill="#005078"/>
<path d="M130.125 162.9H125.625V165H130.125V162.9Z" fill="#005078"/>
<path d="M70.6244 146.7H68.5244V150.2H70.6244V146.7Z" fill="#005078"/>
<path d="M70.6244 153.2H68.5244V156.7H70.6244V153.2Z" fill="#005078"/>
<path d="M70.6244 159.6H68.5244V163.1H70.6244V159.6Z" fill="#005078"/>
<path d="M255.424 73.1001H249.024V74.9001H255.424V73.1001Z" fill="#005078"/>
<path d="M255.424 78.8003H249.024V80.6003H255.424V78.8003Z" fill="#005078"/>
<path d="M255.424 84.6001H249.024V86.4001H255.424V84.6001Z" fill="#005078"/>
<path d="M255.424 96.1001H249.024V97.9001H255.424V96.1001Z" fill="#005078"/>
<path d="M255.424 101.8H249.024V103.6H255.424V101.8Z" fill="#005078"/>
<path d="M255.424 107.6H249.024V109.4H255.424V107.6Z" fill="#005078"/>
<path d="M255.424 113.3H249.024V115.1H255.424V113.3Z" fill="#005078"/>
<path d="M255.424 119.1H249.024V120.9H255.424V119.1Z" fill="#005078"/>
<path d="M255.424 130.6H249.024V132.4H255.424V130.6Z" fill="#005078"/>
<path d="M255.424 136.3H249.024V138.1H255.424V136.3Z" fill="#005078"/>
<path d="M255.424 142.1H249.024V143.9H255.424V142.1Z" fill="#005078"/>
<path d="M245.724 78.8003H239.324V80.6003H245.724V78.8003Z" fill="#005078"/>
<path d="M245.724 84.6001H239.324V86.4001H245.724V84.6001Z" fill="#005078"/>
<path d="M245.724 90.3003H239.324V92.1003H245.724V90.3003Z" fill="#005078"/>
<path d="M245.724 96.1001H239.324V97.9001H245.724V96.1001Z" fill="#005078"/>
<path d="M245.724 101.8H239.324V103.6H245.724V101.8Z" fill="#005078"/>
<path d="M245.724 113.3H239.324V115.1H245.724V113.3Z" fill="#005078"/>
<path d="M245.724 119.1H239.324V120.9H245.724V119.1Z" fill="#005078"/>
<path d="M245.724 124.8H239.324V126.6H245.724V124.8Z" fill="#005078"/>
<path d="M245.724 130.6H239.324V132.4H245.724V130.6Z" fill="#005078"/>
<path d="M245.724 136.3H239.324V138.1H245.724V136.3Z" fill="#005078"/>
<path d="M272.724 103.3H270.024V105.8H272.724V103.3Z" fill="#005078"/>
<path d="M272.724 108.6H270.024V111.1H272.724V108.6Z" fill="#005078"/>
<path d="M272.724 114H270.024V116.5H272.724V114Z" fill="#005078"/>
<path d="M272.724 119.3H270.024V121.8H272.724V119.3Z" fill="#005078"/>
<path d="M272.724 124.7H270.024V127.2H272.724V124.7Z" fill="#005078"/>
<path d="M272.724 130H270.024V132.5H272.724V130Z" fill="#005078"/>
<path d="M272.724 135.3H270.024V137.8H272.724V135.3Z" fill="#005078"/>
<path d="M272.724 140.7H270.024V143.2H272.724V140.7Z" fill="#005078"/>
<path d="M279.424 124.7H276.724V127.2H279.424V124.7Z" fill="#005078"/>
<path d="M279.424 130H276.724V132.5H279.424V130Z" fill="#005078"/>
<path d="M279.424 135.3H276.724V137.8H279.424V135.3Z" fill="#005078"/>
<path d="M286.224 124.7H283.524V127.2H286.224V124.7Z" fill="#005078"/>
<path d="M286.224 130H283.524V132.5H286.224V130Z" fill="#005078"/>
<path d="M286.224 135.3H283.524V137.8H286.224V135.3Z" fill="#005078"/>
<path d="M286.224 140.7H283.524V143.2H286.224V140.7Z" fill="#005078"/>
<path d="M293.024 130H290.324V132.5H293.024V130Z" fill="#005078"/>
<path d="M293.024 135.3H290.324V137.8H293.024V135.3Z" fill="#005078"/>
<path d="M293.024 140.7H290.324V143.2H293.024V140.7Z" fill="#005078"/>
<path d="M299.724 124.7H297.024V127.2H299.724V124.7Z" fill="#005078"/>
<path d="M299.724 130H297.024V132.5H299.724V130Z" fill="#005078"/>
<path d="M299.724 135.3H297.024V137.8H299.724V135.3Z" fill="#005078"/>
<path d="M332.924 104.5H331.125V110.4H332.924V104.5Z" fill="#005078"/>
<path d="M332.924 115.2H331.125V127.1H332.924V115.2Z" fill="#005078"/>
<path d="M332.924 130.4H331.125V142.3H332.924V130.4Z" fill="#005078"/>
<path d="M332.924 146H331.125V157.9H332.924V146Z" fill="#005078"/>
<path d="M338.024 111.1H336.224V117H338.024V111.1Z" fill="#005078"/>
<path d="M338.024 121.8H336.224V133.7H338.024V121.8Z" fill="#005078"/>
<path d="M338.024 136.9H336.224V148.8H338.024V136.9Z" fill="#005078"/>
<path d="M338.024 152.6H336.224V162H338.024V152.6Z" fill="#005078"/>
<path d="M342.024 104.5H340.224V110.4H342.024V104.5Z" fill="#005078"/>
<path d="M342.024 115.2H340.224V127.1H342.024V115.2Z" fill="#005078"/>
<path d="M342.024 130.4H340.224V142.3H342.024V130.4Z" fill="#005078"/>
<path d="M342.024 146H340.224V157.9H342.024V146Z" fill="#005078"/>
<path d="M316.724 104.8H313.125V106.5H316.724V104.8Z" fill="#005078"/>
<path d="M310.724 109.6H307.125V111.3H310.724V109.6Z" fill="#005078"/>
<path d="M293.424 155.3H289.824V157H293.424V155.3Z" fill="#005078"/>
<path d="M300.224 155.3H296.625V157H300.224V155.3Z" fill="#005078"/>
<path d="M286.724 160.1H283.125V161.8H286.724V160.1Z" fill="#005078"/>
<path d="M293.424 160.1H289.824V161.8H293.424V160.1Z" fill="#005078"/>
<path d="M279.924 160.1H276.324V161.8H279.924V160.1Z" fill="#005078"/>
<path d="M316.724 109.6H313.125V111.3H316.724V109.6Z" fill="#005078"/>
<path d="M310.724 114.4H307.125V116.1H310.724V114.4Z" fill="#005078"/>
<path d="M310.724 119.2H307.125V120.9H310.724V119.2Z" fill="#005078"/>
<path d="M316.724 119.2H313.125V120.9H316.724V119.2Z" fill="#005078"/>
<path d="M316.724 124.1H313.125V125.8H316.724V124.1Z" fill="#005078"/>
<path d="M310.724 128.9H307.125V130.6H310.724V128.9Z" fill="#005078"/>
<path d="M316.724 128.9H313.125V130.6H316.724V128.9Z" fill="#005078"/>
<path d="M310.724 133.7H307.125V135.4H310.724V133.7Z" fill="#005078"/>
<path d="M310.724 138.5H307.125V140.2H310.724V138.5Z" fill="#005078"/>
<path d="M316.724 138.5H313.125V140.2H316.724V138.5Z" fill="#005078"/>
<path d="M316.724 143.4H313.125V145.1H316.724V143.4Z" fill="#005078"/>
<path d="M310.724 148.2H307.125V149.9H310.724V148.2Z" fill="#005078"/>
<path d="M316.724 148.2H313.125V149.9H316.724V148.2Z" fill="#005078"/>
<path d="M310.724 153H307.125V154.7H310.724V153Z" fill="#005078"/>
<path d="M310.724 157.8H307.125V159.5H310.724V157.8Z" fill="#005078"/>
<path d="M316.724 157.8H313.125V159.5H316.724V157.8Z" fill="#005078"/>
<path d="M368.924 121.1H363.125V122.9H368.924V121.1Z" fill="#005078"/>
<path d="M368.924 126.8H363.125V128.6H368.924V126.8Z" fill="#005078"/>
<path d="M368.924 132.6H363.125V134.4H368.924V132.6Z" fill="#005078"/>
<path d="M368.924 138.3H363.125V140.1H368.924V138.3Z" fill="#005078"/>
<path d="M368.924 144.1H363.125V145.9H368.924V144.1Z" fill="#005078"/>
<path d="M368.924 149.8H363.125V151.6H368.924V149.8Z" fill="#005078"/>
<path d="M400.824 114.1H396.625V115.9H400.824V114.1Z" fill="#005078"/>
<path d="M400.824 121.2H396.625V123H400.824V121.2Z" fill="#005078"/>
<path d="M400.824 128.4H396.625V130.2H400.824V128.4Z" fill="#005078"/>
<path d="M400.824 135.5H396.625V137.3H400.824V135.5Z" fill="#005078"/>
<path d="M400.824 142.7H396.625V144.5H400.824V142.7Z" fill="#005078"/>
<path d="M400.824 149.8H396.625V151.6H400.824V149.8Z" fill="#005078"/>
<path d="M421.024 106.1H417.824V107.9H421.024V106.1Z" fill="#005078"/>
<path d="M421.024 113.9H417.824V115.7H421.024V113.9Z" fill="#005078"/>
<path d="M421.024 121.7H417.824V123.5H421.024V121.7Z" fill="#005078"/>
<path d="M421.024 129.6H417.824V131.4H421.024V129.6Z" fill="#005078"/>
<path d="M421.024 137.4H417.824V139.2H421.024V137.4Z" fill="#005078"/>
<path d="M421.024 145.2H417.824V147H421.024V145.2Z" fill="#005078"/>
<path d="M421.024 153.1H417.824V154.9H421.024V153.1Z" fill="#005078"/>
<path d="M421.024 160.9H417.824V162.7H421.024V160.9Z" fill="#005078"/>
<path d="M414.124 106.1H410.924V107.9H414.124V106.1Z" fill="#005078"/>
<path d="M414.124 113.9H410.924V115.7H414.124V113.9Z" fill="#005078"/>
<path d="M414.124 121.7H410.924V123.5H414.124V121.7Z" fill="#005078"/>
<path d="M414.124 129.6H410.924V131.4H414.124V129.6Z" fill="#005078"/>
<path d="M414.124 137.4H410.924V139.2H414.124V137.4Z" fill="#005078"/>
<path d="M414.124 145.2H410.924V147H414.124V145.2Z" fill="#005078"/>
<path d="M414.124 153.1H410.924V154.9H414.124V153.1Z" fill="#005078"/>
<path d="M414.124 160.9H410.924V162.7H414.124V160.9Z" fill="#005078"/>
<path d="M456.024 120.1H454.024V122.1H456.024V120.1Z" fill="#005078"/>
<path d="M467.324 120.1H465.324V122.1H467.324V120.1Z" fill="#005078"/>
<path d="M478.625 120.1H476.625V122.1H478.625V120.1Z" fill="#005078"/>
<path d="M489.924 120.1H487.924V122.1H489.924V120.1Z" fill="#005078"/>
<path d="M501.224 120.1H499.224V122.1H501.224V120.1Z" fill="#005078"/>
<path d="M456.024 124.8H454.024V126.8H456.024V124.8Z" fill="#005078"/>
<path d="M461.625 124.8H459.625V126.8H461.625V124.8Z" fill="#005078"/>
<path d="M467.324 124.8H465.324V126.8H467.324V124.8Z" fill="#005078"/>
<path d="M472.924 124.8H470.924V126.8H472.924V124.8Z" fill="#005078"/>
<path d="M478.625 124.8H476.625V126.8H478.625V124.8Z" fill="#005078"/>
<path d="M484.224 124.8H482.224V126.8H484.224V124.8Z" fill="#005078"/>
<path d="M489.924 124.8H487.924V126.8H489.924V124.8Z" fill="#005078"/>
<path d="M495.524 124.8H493.524V126.8H495.524V124.8Z" fill="#005078"/>
<path d="M501.224 124.8H499.224V126.8H501.224V124.8Z" fill="#005078"/>
<path d="M506.824 124.8H504.824V126.8H506.824V124.8Z" fill="#005078"/>
<path d="M461.625 129.4H459.625V131.4H461.625V129.4Z" fill="#005078"/>
<path d="M472.924 129.4H470.924V131.4H472.924V129.4Z" fill="#005078"/>
<path d="M484.224 129.4H482.224V131.4H484.224V129.4Z" fill="#005078"/>
<path d="M495.524 129.4H493.524V131.4H495.524V129.4Z" fill="#005078"/>
<path d="M506.824 129.4H504.824V131.4H506.824V129.4Z" fill="#005078"/>
<path d="M458.024 141.1H456.224V157.3H458.024V141.1Z" fill="#005078"/>
<path d="M464.724 141.1H462.924V157.3H464.724V141.1Z" fill="#005078"/>
<path d="M471.424 141.1H469.625V157.3H471.424V141.1Z" fill="#005078"/>
<path d="M478.024 141.1H476.224V157.3H478.024V141.1Z" fill="#005078"/>
<path d="M484.724 141.1H482.924V157.3H484.724V141.1Z" fill="#005078"/>
<path d="M491.424 141.1H489.625V157.3H491.424V141.1Z" fill="#005078"/>
<path d="M498.024 141.1H496.224V157.3H498.024V141.1Z" fill="#005078"/>
<path d="M518.624 106.1H513.924V107.9H518.624V106.1Z" fill="#005078"/>
<path d="M518.624 111.8H513.924V113.6H518.624V111.8Z" fill="#005078"/>
<path d="M518.624 117.6H513.924V119.4H518.624V117.6Z" fill="#005078"/>
<path d="M518.624 123.3H513.924V125.1H518.624V123.3Z" fill="#005078"/>
<path d="M518.624 129.1H513.924V130.9H518.624V129.1Z" fill="#005078"/>
<path d="M518.624 134.8H513.924V136.6H518.624V134.8Z" fill="#005078"/>
<path d="M518.624 140.6H513.924V142.4H518.624V140.6Z" fill="#005078"/>
<path d="M518.624 146.3H513.924V148.1H518.624V146.3Z" fill="#005078"/>
<path d="M518.624 152.1H513.924V153.9H518.624V152.1Z" fill="#005078"/>
<path d="M518.624 157.8H513.924V159.6H518.624V157.8Z" fill="#005078"/>
<path d="M563.825 110.6H562.125V114.6H563.825V110.6Z" fill="#005078"/>
<path d="M568.724 110.6H567.024V114.6H568.724V110.6Z" fill="#005078"/>
<path d="M573.524 110.6H571.824V114.6H573.524V110.6Z" fill="#005078"/>
<path d="M578.325 110.6H576.625V114.6H578.325V110.6Z" fill="#005078"/>
<path d="M583.224 110.6H581.524V114.6H583.224V110.6Z" fill="#005078"/>
<path d="M559.024 118.1H557.324V122.1H559.024V118.1Z" fill="#005078"/>
<path d="M563.825 118.1H562.125V122.1H563.825V118.1Z" fill="#005078"/>
<path d="M568.724 118.1H567.024V122.1H568.724V118.1Z" fill="#005078"/>
<path d="M578.325 118.1H576.625V122.1H578.325V118.1Z" fill="#005078"/>
<path d="M563.825 125.6H562.125V129.6H563.825V125.6Z" fill="#005078"/>
<path d="M568.724 125.6H567.024V129.6H568.724V125.6Z" fill="#005078"/>
<path d="M573.524 125.6H571.824V129.6H573.524V125.6Z" fill="#005078"/>
<path d="M578.325 125.6H576.625V129.6H578.325V125.6Z" fill="#005078"/>
<path d="M559.024 133.1H557.324V137.1H559.024V133.1Z" fill="#005078"/>
<path d="M563.825 133.1H562.125V137.1H563.825V133.1Z" fill="#005078"/>
<path d="M568.724 133.1H567.024V137.1H568.724V133.1Z" fill="#005078"/>
<path d="M573.524 133.1H571.824V137.1H573.524V133.1Z" fill="#005078"/>
<path d="M559.024 140.6H557.324V144.6H559.024V140.6Z" fill="#005078"/>
<path d="M563.825 140.6H562.125V144.6H563.825V140.6Z" fill="#005078"/>
<path d="M573.524 140.6H571.824V144.6H573.524V140.6Z" fill="#005078"/>
<path d="M578.325 140.6H576.625V144.6H578.325V140.6Z" fill="#005078"/>
<path d="M583.224 118.1H581.524V122.1H583.224V118.1Z" fill="#005078"/>
<path d="M588.024 110.6H586.324V114.6H588.024V110.6Z" fill="#005078"/>
<path d="M619.724 131.6H585.224V133.4H619.724V131.6Z" fill="#005078"/>
<path d="M606.524 136.2H585.224V138H606.524V136.2Z" fill="#005078"/>
<path d="M606.524 140.8H585.224V142.6H606.524V140.8Z" fill="#005078"/>
<path d="M606.524 145.4H585.224V147.2H606.524V145.4Z" fill="#005078"/>
</g>
</svg>
