<svg width="28" height="28" viewBox="0 0 28 28" fill="none" xmlns="http://www.w3.org/2000/svg">
<path d="M27.2296 23.5193L20.8074 17.0913C19.8495 18.58 18.5801 19.8495 17.0914 20.8073L23.5136 27.2296C24.5407 28.2567 26.2025 28.2567 27.2239 27.2296C28.2567 26.2025 28.2567 24.5406 27.2296 23.5193Z" fill="#005078"/>
<path d="M20.9978 10.5018C20.9978 4.70272 16.2951 0 10.496 0C4.70272 0 0 4.70272 0 10.5018C0 16.3008 4.70272 21.0035 10.5018 21.0035C16.2951 20.9978 20.9978 16.2951 20.9978 10.5018ZM10.5018 18.3723C6.15681 18.3723 2.62544 14.841 2.62544 10.496C2.62544 6.15104 6.15681 2.62544 10.5018 2.62544C14.8467 2.62544 18.3781 6.15681 18.3781 10.5018C18.3781 14.8467 14.841 18.3723 10.5018 18.3723Z" fill="#005078"/>
<path d="M4.37393 10.5017H6.1223C6.1223 8.08979 8.08417 6.12792 10.4961 6.12792V4.37378C7.12055 4.37378 4.37393 7.1204 4.37393 10.5017Z" fill="#005078"/>
</svg>
