<svg width="112" height="68" viewBox="0 0 112 68" fill="none" xmlns="http://www.w3.org/2000/svg">
<path d="M33.922 24.0379C33.0568 24.0379 32.2265 23.8879 31.5015 23.5093L33.1925 20.2665C33.9711 20.6772 36.6988 20.0754 39.3649 18.5629C42.2872 16.9058 48.9282 15.2897 54.3015 18.0022L52.6515 21.2665C48.8158 19.3272 43.5318 20.4058 41.1684 21.745C40.3577 22.204 36.9336 24.0379 33.922 24.0379Z" fill="#005078"/>
<path d="M69.1296 62.8771C68.9591 62.8771 68.7885 62.8717 68.6171 62.861C64.4796 62.5735 58.1778 54.7092 56.8403 52.7771C56.2644 51.9467 56.4716 50.8074 57.301 50.2324C58.1305 49.6557 59.2716 49.8646 59.8457 50.6949C62.5305 54.5682 67.3376 59.1057 68.8698 59.211C69.8617 59.3021 70.8466 58.9378 71.5037 58.2985C71.851 57.9592 72.2582 57.3807 72.2224 56.5485C72.1787 55.5396 72.9608 54.686 73.9698 54.6432C74.9957 54.5807 75.8323 55.3824 75.876 56.3914C75.9501 58.0932 75.3037 59.7003 74.0564 60.9164C72.7635 62.1771 70.9903 62.8771 69.1296 62.8771Z" fill="#005078"/>
<path d="M62.4678 66.1248C62.166 66.1248 61.8624 66.1034 61.5588 66.0588C57.9928 65.5266 52.6695 59.6838 51.607 57.4623C51.1713 56.5516 51.557 55.4588 52.4678 55.0231C53.3758 54.5873 54.4704 54.9731 54.907 55.8838C55.7481 57.6427 60.3151 62.1748 62.0981 62.4409C63.0454 62.5873 63.7812 62.1909 64.1472 61.7784C64.4392 61.4481 64.5356 61.0963 64.4347 60.7302C64.1669 59.7552 64.7392 58.7498 65.7133 58.482C66.6847 58.2159 67.6937 58.7856 67.9615 59.7588C68.3919 61.3248 67.999 62.9445 66.8838 64.2034C65.7981 65.4284 64.1642 66.1248 62.4678 66.1248Z" fill="#005078"/>
<path d="M26.4462 46.916C23.7569 45.8464 21.3337 43.3982 21.2319 43.2946L23.8391 40.7285C23.8587 40.7499 25.8346 42.7357 27.798 43.516L26.4462 46.916Z" fill="#005078"/>
<path d="M55.4751 67.9233C54.601 67.9233 53.6054 67.7501 52.5072 67.2787C51.6456 66.9108 49.5367 65.309 48.8135 63.9019L52.0653 62.2305C52.2894 62.6573 53.5394 63.709 53.9751 63.9305C54.9456 64.3465 55.8447 64.3769 56.617 64.0162C57.4215 63.6394 57.8403 62.9608 57.9019 62.7555L61.4037 63.809C61.0804 64.8858 60.0385 66.4537 58.1662 67.3287C57.4912 67.6448 56.5804 67.9233 55.4751 67.9233Z" fill="#005078"/>
<path d="M75.6991 58.502C71.2589 58.5038 60.667 46.3967 60.0107 45.5038C59.4143 44.6895 59.5902 43.5449 60.4045 42.9467C61.2196 42.3485 62.3634 42.527 62.9607 43.3395C65.0812 46.2324 73.6312 54.5431 75.7304 54.8485C76.6107 54.8235 77.5054 54.4002 78.0036 53.7431C78.2321 53.4413 78.4732 52.9574 78.3223 52.3663C77.3536 49.7931 59.6053 33.0806 55.9741 30.9038C55.0428 30.3449 53.675 30.6217 53.4723 30.927C53.292 35.4538 49.933 38.6235 46.7143 39.3985C43.2482 40.2342 40.1018 38.7913 39.0589 35.9003C38.5205 34.4074 39.3803 33.086 40.1393 31.9199C40.5214 31.3306 40.9178 30.7217 41.1884 30.0753C41.4455 29.4628 41.6741 28.5735 41.8955 27.7128C42.3071 26.111 42.6955 24.5985 43.4928 23.6145C45.7482 20.827 56.767 15.6842 59.7098 15.6592C59.7196 15.6592 59.7286 15.6592 59.7375 15.6592C60.7348 15.6592 62.0089 16.1163 64.3428 16.9878C68.3071 18.4645 74.2946 20.6949 79.1437 19.7628C80.1268 19.5645 81.0937 20.2181 81.2866 21.2092C81.4786 22.202 80.8304 23.161 79.8384 23.352C73.9812 24.486 67.4125 22.036 63.0652 20.4145C61.7803 19.9342 60.1803 19.3378 59.7286 19.3163C57.9598 19.361 47.9928 23.8663 46.3357 25.9145C46.0393 26.2806 45.6777 27.6895 45.4375 28.6217C45.1839 29.611 44.9214 30.6324 44.5616 31.4895C44.1625 32.4395 43.6321 33.2556 43.2053 33.9128C42.9982 34.2306 42.7303 34.6413 42.6045 34.8967C43.1 35.8217 44.3643 36.2056 45.858 35.8431C47.6973 35.4003 49.7152 33.4628 49.8303 30.7449C49.8857 29.4163 50.6437 28.2628 51.9098 27.5806C53.658 26.6395 56.1027 26.7181 57.8553 27.7681C61.1803 29.761 80.8366 47.4395 81.8652 51.4592C82.2652 53.0217 81.9286 54.6181 80.9179 55.952C79.7455 57.5003 77.8161 58.452 75.7554 58.502C75.7375 58.502 75.7179 58.502 75.6991 58.502Z" fill="#005078"/>
<path d="M41.9784 62.8537C39.1507 62.8537 36.4542 60.2502 36.4284 57.4966C36.4051 55.0109 39.5319 49.3198 43.0676 48.8376C46.3828 48.3912 49.5176 51.0269 49.5712 54.0752C49.6159 56.6787 45.498 62.3305 42.6685 62.7966C42.4409 62.8341 42.2105 62.8537 41.9784 62.8537ZM43.8167 52.4448C43.7319 52.4448 43.6462 52.4502 43.5605 52.4627C42.4159 52.618 40.0739 56.2341 40.0855 57.4609C40.0926 58.1912 41.1891 59.1966 41.9784 59.1966L42.0748 59.1894C43.1051 58.8502 45.8292 55.2877 45.915 54.118C45.9025 53.4698 44.9587 52.4448 43.8167 52.4448Z" fill="#005078"/>
<path d="M29.1381 54.2574C26.5131 54.2574 23.5622 52.1252 23.5426 49.2716C23.522 46.3288 26.7604 41.8324 29.4158 41.1163C29.8033 41.0127 30.2104 40.9609 30.6274 40.9609C33.3712 40.9609 35.9863 43.1145 36.2238 45.5681C36.4712 48.1163 33.2783 52.9877 30.714 53.9752C30.2283 54.1627 29.6979 54.2574 29.1381 54.2574ZM30.6274 44.6181C30.531 44.6181 30.4435 44.627 30.3667 44.6484C29.4131 44.9056 27.1908 47.9234 27.1997 49.2466C27.2033 49.7806 28.2435 50.6002 29.1381 50.6002C29.2792 50.6002 29.3613 50.577 29.3979 50.5627C30.4381 50.1627 32.6095 46.9877 32.5836 45.9092C32.539 45.4538 31.5354 44.6181 30.6274 44.6181Z" fill="#005078"/>
<path d="M35.5087 59.1485C32.6962 59.1485 29.7721 56.4664 29.7141 53.8324C29.6605 51.3574 32.756 45.686 35.5935 44.7753C36.0587 44.6253 36.5542 44.5503 37.0667 44.5503C39.806 44.5503 42.6042 46.7039 43.0551 49.1574C43.4292 51.1931 41.5123 54.1414 40.6712 55.3146C39.5283 56.9074 37.8096 58.8592 36.1105 59.1056C35.915 59.1342 35.7132 59.1485 35.5087 59.1485ZM37.0667 48.2074C36.9337 48.2074 36.815 48.2235 36.7114 48.2574C35.623 48.6307 33.3694 52.5735 33.3712 53.7539C33.3828 54.2985 34.6069 55.4914 35.5087 55.4914L35.5819 55.4878C36.6105 55.0592 39.4337 50.9592 39.4498 49.7378C39.3471 49.2128 38.1471 48.2074 37.0667 48.2074Z" fill="#005078"/>
<path d="M47.5934 66.6484C44.8764 66.6484 42.713 64.6806 42.6666 62.1698C42.6139 59.3234 46.1523 54.8145 48.7737 54.3877C51.4478 53.9466 53.8291 55.7555 54.0853 58.252C54.3148 60.4966 51.9586 65.4538 49.2371 66.3806C48.713 66.5591 48.1612 66.6484 47.5934 66.6484ZM49.5836 57.9788C49.5112 57.9788 49.4371 57.9859 49.3621 57.9984C48.4586 58.2716 46.3023 60.9788 46.3237 62.102C46.3371 62.9109 47.4702 63.1181 48.0577 62.9198C48.9068 62.5734 50.4728 59.5681 50.4461 58.6091C50.4086 58.2448 50.0532 57.9788 49.5836 57.9788Z" fill="#005078"/>
<path d="M101.962 57.4715L80.7339 13.0233L110.128 0.230469L111.587 3.58404L85.666 14.8662L103.734 52.693L110.12 49.8787L111.595 53.2251L101.962 57.4715Z" fill="#005078"/>
<path d="M92.3988 52.2054L75.9131 18.3893L83.739 14.9429L85.2122 18.2893L80.8667 20.2036L94.0274 47.2018L97.9934 45.0964L99.7077 48.3286L92.3988 52.2054Z" fill="#005078"/>
<path d="M10.0374 57.4715L0.405273 53.2251L1.88027 49.8787L8.26599 52.693L26.3338 14.8662L0.413309 3.58404L1.87224 0.230469L31.266 13.0233L10.0374 57.4715Z" fill="#005078"/>
<path d="M19.6009 52.2054L12.292 48.3286L14.0063 45.0964L17.9723 47.2018L31.1331 20.2036L26.7875 18.2893L28.2607 14.9429L36.0866 18.3893L19.6009 52.2054Z" fill="#005078"/>
<path d="M78.7903 51.3731L78.3188 47.7481C82.1965 47.2427 87.8438 44.3481 89.0528 42.8892L91.8689 45.2231C89.8215 47.6927 83.2215 50.7963 78.7903 51.3731Z" fill="#005078"/>
</svg>
