<svg width="86" height="95" viewBox="0 0 86 95" fill="none" xmlns="http://www.w3.org/2000/svg">
<path d="M67 32C67 19.8745 57.1286 10 44.998 10C32.8675 10 23 19.8705 23 32C23 44.1295 32.8714 54 45.002 54C57.1325 54 67 44.1255 67 32ZM45.002 50.8272C34.6162 50.8272 26.1691 42.3809 26.1691 31.996C26.1691 21.6112 34.6162 13.1649 45.002 13.1649C55.3877 13.1649 63.8348 21.6112 63.8348 31.996C63.8348 42.3809 55.3877 50.8272 45.002 50.8272Z" fill="#005078"/>
<path d="M70.5326 51.5257C70.8571 51.2285 71.1578 50.9075 71.4071 50.5349C72.5309 48.8584 72.6655 46.742 71.787 44.57C71.0906 42.8539 71.8859 40.6621 73.5241 39.7823C75.6332 38.6567 76.8916 36.9049 77.0657 34.8558C77.2359 32.8067 76.2941 30.8726 74.4066 29.4062C72.9425 28.2687 72.523 25.9818 73.5004 24.4004C74.7508 22.3751 74.9605 20.2389 74.094 18.384C73.2194 16.5173 71.4348 15.3124 69.0606 14.9795C67.2443 14.7298 65.6892 12.9106 65.7406 11.0954C65.8039 9.14538 65.2104 7.47284 64.0351 6.26401C62.4009 4.56769 59.7338 4.13171 57.1855 5.14634C55.4958 5.83597 53.1928 4.99969 52.3302 3.41434C50.0786 -0.735309 44.883 -1.1911 41.9469 2.53448C40.8468 3.93751 38.4093 4.38141 36.866 3.44209C35.6868 2.71679 34.4245 2.33631 33.2097 2.33631C30.2221 2.33631 27.8993 4.55976 27.4285 7.86918C27.1792 9.64873 25.4262 11.1548 23.2577 11.1548C23.2538 11.1548 23.2498 11.1548 23.2419 11.1548C20.927 11.1548 19.0356 12.0704 17.9157 13.7429C16.7959 15.4194 16.6613 17.5358 17.5437 19.6999C18.2402 21.416 17.4409 23.6077 15.7987 24.4876C13.6896 25.6211 12.4352 27.3729 12.265 29.4141C12.0909 31.4592 13.0327 33.3933 14.9242 34.8637C16.3883 36.0012 16.8077 38.2881 15.8303 39.8655C14.5799 41.8947 14.3662 44.031 15.2328 45.8859C15.9649 47.4435 17.3578 48.5096 19.178 49.0249C14.8846 59.0839 8.5929 68.3978 0.761895 76.0035C0.0456689 76.6971 -0.187797 77.7474 0.156466 78.663C0.492816 79.5983 1.3515 80.2444 2.34867 80.3117C6.29385 80.5614 10.3103 80.5376 14.3425 80.2404C14.572 84.2077 14.5285 88.2543 14.2277 92.2891C14.1446 93.3275 14.7224 94.3223 15.6602 94.7622C15.9886 94.9168 16.3566 95 16.7246 95C17.3855 95 18.0028 94.7463 18.4657 94.2906C26.7637 86.2409 35.4692 73.2966 40.4946 64.0183C41.1001 64.2442 41.7292 64.3948 42.3901 64.3948C44.2064 64.3948 45.9158 63.4951 47.2414 61.886C52.5636 71.9847 59.346 81.1599 67.5332 89.1065C68.0001 89.5662 68.6214 89.8238 69.2782 89.8238C69.6383 89.8238 69.9905 89.7446 70.3427 89.5821C71.2765 89.1461 71.8582 88.1592 71.7791 87.1208C71.4744 83.0861 71.4309 79.0395 71.6604 75.0603C75.6886 75.3536 79.709 75.3734 83.6502 75.1356C84.6435 75.0722 85.5061 74.4261 85.8424 73.4987C86.1907 72.5633 85.9493 71.5091 85.241 70.8274C79.3885 65.1439 74.4699 58.64 70.5326 51.5257ZM17.4883 90.775C17.7297 86.6175 17.6941 82.4639 17.3855 78.4053C17.3538 77.9852 17.152 77.5889 16.8315 77.3154C16.507 77.0499 16.0796 76.9191 15.6641 76.9468C11.7625 77.3035 7.84502 77.3828 4.02646 77.2203C11.6873 69.5076 17.8524 60.2095 22.1141 50.198C23.0005 50.9471 23.6139 52.0251 23.5862 53.1745C23.5268 55.1245 24.1204 56.7931 25.2917 58.0059C26.9417 59.7022 29.6246 60.1382 32.1373 59.1235C33.8943 58.4062 36.1379 59.2623 36.9966 60.8555C37.2617 61.3391 37.5743 61.7592 37.9028 62.1516C33.2691 70.7759 25.2798 82.7968 17.4883 90.775ZM44.8909 59.7735C43.3279 61.7711 40.9972 61.5769 39.7745 59.3455C38.5794 57.1339 36.1063 55.7031 33.4748 55.7031C32.6003 55.7031 31.7575 55.8656 30.9581 56.1827C29.862 56.6187 28.6868 56.9556 27.559 55.7983C26.8468 55.0611 26.7241 54.0187 26.7439 53.2696C26.8309 50.2812 24.8049 47.491 22.031 46.4843C22.0192 46.4804 22.0152 46.4685 22.0033 46.4645C21.9954 46.4606 21.9875 46.4645 21.9836 46.4606C21.572 46.3139 21.1447 46.2029 20.7015 46.1435C19.4233 45.9651 18.4974 45.3944 18.0977 44.5344C17.5873 43.4444 18.0423 42.303 18.5172 41.5341C20.3414 38.5972 19.5975 34.4793 16.8631 32.3549C15.8501 31.5702 15.3397 30.6229 15.4188 29.6796C15.5217 28.4153 16.6415 27.6345 17.2945 27.2818C20.3493 25.6449 21.7778 21.7093 20.4759 18.5069C20.0011 17.3456 20.0288 16.2834 20.5471 15.5066C21.204 14.5276 22.3159 14.3651 23.5941 14.3295C27.0248 14.3295 30.0916 11.6859 30.5704 8.30911C30.9265 5.76066 33.0079 4.7936 35.2199 6.14511C38.0848 7.89296 42.3822 7.11614 44.4398 4.49635C46.0068 2.50277 48.3454 2.68905 49.5523 4.92439C51.1549 7.8771 55.2624 9.33563 58.3686 8.0832C59.4727 7.64723 60.6439 7.30638 61.7717 8.47161C62.484 9.20483 62.6066 10.2472 62.5829 11.0002C62.4879 14.4484 65.1985 17.6429 68.6253 18.1224C69.5315 18.2453 70.7146 18.6297 71.2291 19.7316C71.6287 20.5837 71.4783 21.6498 70.8136 22.7318C68.9894 25.6687 69.7333 29.7866 72.4676 31.911C73.1838 32.4659 74.0148 33.3814 73.9119 34.5863C73.8288 35.5256 73.164 36.3777 72.0284 36.9841C68.9775 38.621 67.553 42.5566 68.8509 45.759C69.3218 46.9243 69.298 47.9904 68.7757 48.7633C68.1307 49.7224 66.9871 49.9364 65.7921 49.9364C62.2861 49.8056 59.2352 52.5602 58.7564 55.9608C58.4003 58.5052 56.2912 59.4644 54.1148 58.1287C52.1284 56.904 49.4455 56.9358 47.2968 57.9385C47.19 57.9662 47.0792 57.9742 46.9763 58.0257C46.909 58.0574 46.8694 58.1168 46.8061 58.1604C46.0662 58.5766 45.4093 59.1156 44.8909 59.7735ZM70.3268 71.7707C69.9074 71.735 69.4879 71.8658 69.1595 72.1393C68.839 72.4127 68.6372 72.8091 68.6055 73.2292C68.2969 77.3035 68.2613 81.4651 68.5026 85.6187C61.095 78.1874 54.926 69.6978 50.0272 60.3958C50.8859 60.2927 51.7683 60.4037 52.4608 60.8317C53.636 61.5531 54.8983 61.9336 56.1171 61.9336C59.1086 61.9336 61.4274 59.7101 61.8944 56.4047C62.1437 54.6211 63.8966 53.1151 66.0691 53.1151C66.073 53.1151 66.0809 53.1151 66.0849 53.1151C66.6507 53.1151 67.1889 53.0556 67.6954 52.9486C71.5535 59.94 76.3218 66.3646 81.9645 72.0402C78.1341 72.2264 74.2206 72.1194 70.3268 71.7707Z" fill="#005078"/>
<path d="M59.9205 27.1992C59.7409 26.6684 59.2772 26.2713 58.6965 26.1494L50.5583 24.4155L46.4432 17.7785C46.1466 17.2988 45.5993 17.0039 45.0061 17C44.4671 17.1769 43.8697 17.287 43.5606 17.7706L39.2951 24.5138L31.3157 26.1573C30.7391 26.2713 30.267 26.6645 30.0832 27.1953C29.8994 27.7261 30.0247 28.3041 30.4133 28.7248L35.9112 34.6265L35.1007 42.27C35.0422 42.8283 35.3012 43.367 35.7775 43.6933C36.0657 43.8978 36.4125 44 36.7634 44C36.989 44 37.2104 43.9568 37.4235 43.8703L45.0854 40.7759L52.5677 43.8624C52.7808 43.9489 53.0064 43.9961 53.2362 43.9961C53.2654 43.9921 53.2947 43.9961 53.3197 43.9961C54.2472 43.9961 54.9908 43.2883 54.9908 42.4233C54.9908 42.1992 54.9407 41.9908 54.853 41.7982L54.1427 34.4613L59.578 28.7287C59.9707 28.308 60.1002 27.73 59.9205 27.1992ZM51.3562 32.6763C50.9259 33.1245 50.717 33.73 50.7713 34.3277L51.3186 39.9148L46.038 37.7326C45.7413 37.6107 45.4238 37.5439 45.0938 37.5439C44.864 37.5439 44.3919 37.6343 44.183 37.7208L38.7102 39.9345L39.2826 34.5439C39.3578 33.9305 39.1489 33.3132 38.7228 32.8729L34.7957 28.6579L40.4315 27.498C41.0581 27.3761 41.6096 27.0066 41.9354 26.4836L44.981 21.6671L47.9012 26.3735C48.2187 26.8768 48.7493 27.2464 49.3801 27.384L55.1955 28.6225L51.3562 32.6763Z" fill="#005078"/>
</svg>
