<svg width="80" height="90" viewBox="0 0 80 90" fill="none" xmlns="http://www.w3.org/2000/svg">
<path d="M39.9998 90C39.6998 90 39.3998 89.95 39.0998 89.8C38.5498 89.5 25.5998 83 19.9998 77.5C1.69981 59.45 0.849805 20.85 0.799805 19.25C0.799805 18.7 0.999806 18.2 1.34981 17.8C1.69981 17.4 2.2498 17.2 2.7998 17.2C22.3998 17.2 38.3998 0.8 38.5498 0.6C38.9498 0.2 39.4498 0 39.9998 0C40.5498 0 41.0498 0.2 41.4498 0.6C41.5998 0.75 57.6498 17.2 77.1998 17.2C77.7498 17.2 78.2498 17.4 78.6498 17.8C79.0498 18.2 79.2498 18.7 79.1998 19.25C79.1498 20.9 78.2998 59.45 59.9998 77.55C54.3998 83.05 41.4498 89.55 40.8998 89.8C40.5998 89.95 40.2998 90 39.9998 90ZM4.89981 21.15C5.34981 29.25 7.9498 60 22.7998 74.65C27.1498 78.95 36.9998 84.2 39.9998 85.75C42.9998 84.2 52.8498 78.95 57.1998 74.65C72.0998 59.95 74.6998 29.2 75.0998 21.15C58.0998 20.25 44.3498 8.85 39.9998 4.8C35.6498 8.85 21.8998 20.25 4.89981 21.15ZM37.0998 57C37.6498 57 38.1998 56.75 38.5498 56.3L56.5498 35.3C57.2498 34.45 57.1498 33.2 56.3498 32.5C55.4998 31.8 54.2498 31.9 53.5498 32.7L36.9498 52.05L27.4998 42.6C26.6998 41.8 25.4498 41.8 24.6498 42.6C23.8498 43.4 23.8498 44.65 24.6498 45.45L35.6498 56.45C36.0498 56.85 36.5498 57.05 37.0498 57.05C37.0498 57 37.0498 57 37.0998 57Z" fill="#005078"/>
</svg>
