<svg width="116" height="99" viewBox="0 0 116 99" fill="none" xmlns="http://www.w3.org/2000/svg">
<mask id="path-1-outside-1" maskUnits="userSpaceOnUse" x="0" y="56" width="116" height="43" fill="black">
<rect fill="white" y="56" width="116" height="43"/>
<path d="M114.105 70.2596V70.0851C113.931 68.3404 113.41 66.5957 112.368 64.8511V64.6766C111.5 63.1064 110.11 61.8851 108.547 60.8383C108.026 60.4894 107.504 60.3149 106.81 60.1404L98.1247 57L94.6507 63.8043C94.3033 63.6298 93.9559 63.4553 93.6085 63.2808L84.055 59.7915L79.8862 67.817L69.8116 64.1532L59.9107 82.6468H56.0893L46.1884 64.1532L36.1138 67.817L31.945 59.7915L22.3915 63.2808C22.0441 63.4553 21.6967 63.6298 21.3493 63.8043L17.8753 57L9.19031 60.1404C8.66921 60.3149 7.97441 60.6638 7.45331 60.8383C5.89001 61.7106 4.50041 63.1064 3.63191 64.5021L3.45821 64.8511C2.41601 66.5957 1.89491 68.3404 1.72121 69.9106V70.0851C1.54751 70.783 1.37381 73.0511 1.02641 76.7149C0.852713 78.634 1.54751 80.3787 2.76341 81.7745C3.97931 83.1702 5.71631 83.8681 7.62701 83.8681H13.3591C13.5328 85.2638 14.0539 86.4851 15.0961 87.5319C16.312 88.9277 18.049 89.6255 19.9597 89.6255H24.997C24.997 89.9745 24.997 90.4979 24.8233 90.8468C24.6496 92.5915 25.3444 94.5106 26.5603 95.9064C27.7762 97.3021 29.5132 98 31.4239 98H84.4024C86.1394 98 88.0501 97.3021 89.266 95.9064C90.4819 94.5106 91.1767 92.766 91.003 90.8468C91.003 90.3234 91.003 89.9745 90.8293 89.6255H96.0403C97.951 89.6255 99.688 88.9277 100.904 87.5319C101.772 86.4851 102.467 85.2638 102.641 83.8681H108.373C110.284 83.8681 112.021 83.1702 113.237 81.7745C114.452 80.3787 115.147 78.634 114.974 76.7149C114.452 73.2255 114.279 71.1319 114.105 70.2596ZM14.4013 74.2723V74.6213C14.2276 75.4936 14.0539 77.7617 13.7065 81.4255H7.62701C6.58481 81.4255 5.54261 80.9021 4.67411 80.2043C3.97931 79.3319 3.63191 78.2851 3.63191 77.2383C3.97931 73.5745 4.32671 71.4808 4.32671 70.783C4.32671 70.6085 4.32671 70.434 4.32671 70.434C4.50041 69.0383 5.02151 67.6425 5.89001 66.0723C6.58481 64.8511 7.45331 63.9787 8.66921 63.2808C9.01661 63.1064 9.53771 62.9319 9.88511 62.7574L16.4857 60.4894L19.0912 65.3745C17.8753 66.2468 17.0068 67.2936 16.312 68.5149L16.1383 68.8638C15.0961 70.434 14.575 72.3532 14.4013 74.2723ZM26.0392 81.6C25.8655 82.1234 25.5181 84.0426 25.1707 87.183H19.786C18.7438 87.183 17.7016 86.6596 16.8331 85.9617C16.1383 85.0894 15.7909 84.0425 15.7909 82.9957C16.1383 78.634 16.4857 75.8426 16.6594 74.9702C16.6594 74.7957 16.6594 74.6213 16.6594 74.6213C16.8331 73.0511 17.3542 71.4809 18.3964 69.7362C19.0912 68.5149 20.3071 67.2936 21.6967 66.5957C22.2178 66.4213 22.5652 66.0723 23.0863 65.8979L30.5554 63.2808L33.5083 69.0383C31.2502 70.2596 29.3395 72.0043 28.1236 74.0979C26.9077 76.5404 26.2129 79.1574 26.0392 81.6ZM87.3553 94.3362C86.6605 95.2085 85.6183 95.5574 84.4024 95.5574H31.4239C30.3817 95.5574 29.3395 95.034 28.471 94.3362C27.7762 93.4638 27.2551 92.417 27.4288 91.3702C27.9499 85.2638 28.6447 82.1234 28.6447 82.1234V81.7745C28.6447 79.6808 29.3395 77.5872 30.5554 75.3191C31.7713 73.2255 33.682 71.6553 36.1138 70.6085L44.7988 67.4681L54.3523 85.4383H61.3003L71.0275 67.4681L79.7125 70.6085C80.4073 70.783 80.9284 71.1319 81.4495 71.3064C83.0128 72.1787 84.2287 73.4 85.2709 74.9702V75.1447C86.3131 77.0638 87.0079 78.983 87.1816 80.7277C87.1816 80.7277 87.1816 80.9021 87.1816 81.2511C87.3553 82.2979 87.8764 85.6128 88.2238 91.3702C88.5712 92.417 88.2238 93.4638 87.3553 94.3362ZM98.9932 85.9617C98.2984 86.834 97.2562 87.183 96.0403 87.183H90.6556C90.3082 83.8681 89.9608 81.7745 89.9608 80.9021V80.5532C89.7871 78.4596 89.0923 76.1915 87.7027 73.9234V73.7489C86.6605 71.8298 84.9235 70.2596 83.0128 69.0383C82.8391 68.8638 82.6654 68.8638 82.4917 68.8638L85.4446 63.1064L92.9137 65.7234C93.4348 65.8979 93.9559 66.0723 94.3033 66.4213C95.6929 67.1191 96.7351 68.166 97.6036 69.5617V69.7362C98.4721 71.3064 99.1669 73.0511 99.1669 74.4468C99.1669 74.4468 99.1669 74.6213 99.1669 74.7957C99.3406 75.6681 99.688 78.2851 100.035 82.8213C100.035 84.0426 99.688 85.0894 98.9932 85.9617ZM111.326 80.0298C110.631 80.9021 109.589 81.2511 108.373 81.2511H102.467C102.12 77.5872 101.772 75.1447 101.772 74.4468V74.0979C101.599 72.1787 100.904 70.2596 99.8617 68.3404V68.166C99.1669 66.9447 98.1247 65.8979 97.0825 65.0255L99.688 60.1404L106.115 62.4085C106.636 62.583 106.983 62.7574 107.331 62.9319C108.547 63.6298 109.415 64.5021 110.11 65.7234V65.8979C110.978 67.2936 111.5 68.6894 111.5 70.0851C111.5 70.0851 111.5 70.2596 111.5 70.434C111.673 71.3064 111.847 73.4 112.194 76.8894C112.368 78.2851 112.021 79.3319 111.326 80.0298Z"/>
</mask>
<path d="M114.105 70.2596V70.0851C113.931 68.3404 113.41 66.5957 112.368 64.8511V64.6766C111.5 63.1064 110.11 61.8851 108.547 60.8383C108.026 60.4894 107.504 60.3149 106.81 60.1404L98.1247 57L94.6507 63.8043C94.3033 63.6298 93.9559 63.4553 93.6085 63.2808L84.055 59.7915L79.8862 67.817L69.8116 64.1532L59.9107 82.6468H56.0893L46.1884 64.1532L36.1138 67.817L31.945 59.7915L22.3915 63.2808C22.0441 63.4553 21.6967 63.6298 21.3493 63.8043L17.8753 57L9.19031 60.1404C8.66921 60.3149 7.97441 60.6638 7.45331 60.8383C5.89001 61.7106 4.50041 63.1064 3.63191 64.5021L3.45821 64.8511C2.41601 66.5957 1.89491 68.3404 1.72121 69.9106V70.0851C1.54751 70.783 1.37381 73.0511 1.02641 76.7149C0.852713 78.634 1.54751 80.3787 2.76341 81.7745C3.97931 83.1702 5.71631 83.8681 7.62701 83.8681H13.3591C13.5328 85.2638 14.0539 86.4851 15.0961 87.5319C16.312 88.9277 18.049 89.6255 19.9597 89.6255H24.997C24.997 89.9745 24.997 90.4979 24.8233 90.8468C24.6496 92.5915 25.3444 94.5106 26.5603 95.9064C27.7762 97.3021 29.5132 98 31.4239 98H84.4024C86.1394 98 88.0501 97.3021 89.266 95.9064C90.4819 94.5106 91.1767 92.766 91.003 90.8468C91.003 90.3234 91.003 89.9745 90.8293 89.6255H96.0403C97.951 89.6255 99.688 88.9277 100.904 87.5319C101.772 86.4851 102.467 85.2638 102.641 83.8681H108.373C110.284 83.8681 112.021 83.1702 113.237 81.7745C114.452 80.3787 115.147 78.634 114.974 76.7149C114.452 73.2255 114.279 71.1319 114.105 70.2596ZM14.4013 74.2723V74.6213C14.2276 75.4936 14.0539 77.7617 13.7065 81.4255H7.62701C6.58481 81.4255 5.54261 80.9021 4.67411 80.2043C3.97931 79.3319 3.63191 78.2851 3.63191 77.2383C3.97931 73.5745 4.32671 71.4808 4.32671 70.783C4.32671 70.6085 4.32671 70.434 4.32671 70.434C4.50041 69.0383 5.02151 67.6425 5.89001 66.0723C6.58481 64.8511 7.45331 63.9787 8.66921 63.2808C9.01661 63.1064 9.53771 62.9319 9.88511 62.7574L16.4857 60.4894L19.0912 65.3745C17.8753 66.2468 17.0068 67.2936 16.312 68.5149L16.1383 68.8638C15.0961 70.434 14.575 72.3532 14.4013 74.2723ZM26.0392 81.6C25.8655 82.1234 25.5181 84.0426 25.1707 87.183H19.786C18.7438 87.183 17.7016 86.6596 16.8331 85.9617C16.1383 85.0894 15.7909 84.0425 15.7909 82.9957C16.1383 78.634 16.4857 75.8426 16.6594 74.9702C16.6594 74.7957 16.6594 74.6213 16.6594 74.6213C16.8331 73.0511 17.3542 71.4809 18.3964 69.7362C19.0912 68.5149 20.3071 67.2936 21.6967 66.5957C22.2178 66.4213 22.5652 66.0723 23.0863 65.8979L30.5554 63.2808L33.5083 69.0383C31.2502 70.2596 29.3395 72.0043 28.1236 74.0979C26.9077 76.5404 26.2129 79.1574 26.0392 81.6ZM87.3553 94.3362C86.6605 95.2085 85.6183 95.5574 84.4024 95.5574H31.4239C30.3817 95.5574 29.3395 95.034 28.471 94.3362C27.7762 93.4638 27.2551 92.417 27.4288 91.3702C27.9499 85.2638 28.6447 82.1234 28.6447 82.1234V81.7745C28.6447 79.6808 29.3395 77.5872 30.5554 75.3191C31.7713 73.2255 33.682 71.6553 36.1138 70.6085L44.7988 67.4681L54.3523 85.4383H61.3003L71.0275 67.4681L79.7125 70.6085C80.4073 70.783 80.9284 71.1319 81.4495 71.3064C83.0128 72.1787 84.2287 73.4 85.2709 74.9702V75.1447C86.3131 77.0638 87.0079 78.983 87.1816 80.7277C87.1816 80.7277 87.1816 80.9021 87.1816 81.2511C87.3553 82.2979 87.8764 85.6128 88.2238 91.3702C88.5712 92.417 88.2238 93.4638 87.3553 94.3362ZM98.9932 85.9617C98.2984 86.834 97.2562 87.183 96.0403 87.183H90.6556C90.3082 83.8681 89.9608 81.7745 89.9608 80.9021V80.5532C89.7871 78.4596 89.0923 76.1915 87.7027 73.9234V73.7489C86.6605 71.8298 84.9235 70.2596 83.0128 69.0383C82.8391 68.8638 82.6654 68.8638 82.4917 68.8638L85.4446 63.1064L92.9137 65.7234C93.4348 65.8979 93.9559 66.0723 94.3033 66.4213C95.6929 67.1191 96.7351 68.166 97.6036 69.5617V69.7362C98.4721 71.3064 99.1669 73.0511 99.1669 74.4468C99.1669 74.4468 99.1669 74.6213 99.1669 74.7957C99.3406 75.6681 99.688 78.2851 100.035 82.8213C100.035 84.0426 99.688 85.0894 98.9932 85.9617ZM111.326 80.0298C110.631 80.9021 109.589 81.2511 108.373 81.2511H102.467C102.12 77.5872 101.772 75.1447 101.772 74.4468V74.0979C101.599 72.1787 100.904 70.2596 99.8617 68.3404V68.166C99.1669 66.9447 98.1247 65.8979 97.0825 65.0255L99.688 60.1404L106.115 62.4085C106.636 62.583 106.983 62.7574 107.331 62.9319C108.547 63.6298 109.415 64.5021 110.11 65.7234V65.8979C110.978 67.2936 111.5 68.6894 111.5 70.0851C111.5 70.0851 111.5 70.2596 111.5 70.434C111.673 71.3064 111.847 73.4 112.194 76.8894C112.368 78.2851 112.021 79.3319 111.326 80.0298Z" fill="#005078"/>
<path d="M114.105 70.2596V70.0851C113.931 68.3404 113.41 66.5957 112.368 64.8511V64.6766C111.5 63.1064 110.11 61.8851 108.547 60.8383C108.026 60.4894 107.504 60.3149 106.81 60.1404L98.1247 57L94.6507 63.8043C94.3033 63.6298 93.9559 63.4553 93.6085 63.2808L84.055 59.7915L79.8862 67.817L69.8116 64.1532L59.9107 82.6468H56.0893L46.1884 64.1532L36.1138 67.817L31.945 59.7915L22.3915 63.2808C22.0441 63.4553 21.6967 63.6298 21.3493 63.8043L17.8753 57L9.19031 60.1404C8.66921 60.3149 7.97441 60.6638 7.45331 60.8383C5.89001 61.7106 4.50041 63.1064 3.63191 64.5021L3.45821 64.8511C2.41601 66.5957 1.89491 68.3404 1.72121 69.9106V70.0851C1.54751 70.783 1.37381 73.0511 1.02641 76.7149C0.852713 78.634 1.54751 80.3787 2.76341 81.7745C3.97931 83.1702 5.71631 83.8681 7.62701 83.8681H13.3591C13.5328 85.2638 14.0539 86.4851 15.0961 87.5319C16.312 88.9277 18.049 89.6255 19.9597 89.6255H24.997C24.997 89.9745 24.997 90.4979 24.8233 90.8468C24.6496 92.5915 25.3444 94.5106 26.5603 95.9064C27.7762 97.3021 29.5132 98 31.4239 98H84.4024C86.1394 98 88.0501 97.3021 89.266 95.9064C90.4819 94.5106 91.1767 92.766 91.003 90.8468C91.003 90.3234 91.003 89.9745 90.8293 89.6255H96.0403C97.951 89.6255 99.688 88.9277 100.904 87.5319C101.772 86.4851 102.467 85.2638 102.641 83.8681H108.373C110.284 83.8681 112.021 83.1702 113.237 81.7745C114.452 80.3787 115.147 78.634 114.974 76.7149C114.452 73.2255 114.279 71.1319 114.105 70.2596ZM14.4013 74.2723V74.6213C14.2276 75.4936 14.0539 77.7617 13.7065 81.4255H7.62701C6.58481 81.4255 5.54261 80.9021 4.67411 80.2043C3.97931 79.3319 3.63191 78.2851 3.63191 77.2383C3.97931 73.5745 4.32671 71.4808 4.32671 70.783C4.32671 70.6085 4.32671 70.434 4.32671 70.434C4.50041 69.0383 5.02151 67.6425 5.89001 66.0723C6.58481 64.8511 7.45331 63.9787 8.66921 63.2808C9.01661 63.1064 9.53771 62.9319 9.88511 62.7574L16.4857 60.4894L19.0912 65.3745C17.8753 66.2468 17.0068 67.2936 16.312 68.5149L16.1383 68.8638C15.0961 70.434 14.575 72.3532 14.4013 74.2723ZM26.0392 81.6C25.8655 82.1234 25.5181 84.0426 25.1707 87.183H19.786C18.7438 87.183 17.7016 86.6596 16.8331 85.9617C16.1383 85.0894 15.7909 84.0425 15.7909 82.9957C16.1383 78.634 16.4857 75.8426 16.6594 74.9702C16.6594 74.7957 16.6594 74.6213 16.6594 74.6213C16.8331 73.0511 17.3542 71.4809 18.3964 69.7362C19.0912 68.5149 20.3071 67.2936 21.6967 66.5957C22.2178 66.4213 22.5652 66.0723 23.0863 65.8979L30.5554 63.2808L33.5083 69.0383C31.2502 70.2596 29.3395 72.0043 28.1236 74.0979C26.9077 76.5404 26.2129 79.1574 26.0392 81.6ZM87.3553 94.3362C86.6605 95.2085 85.6183 95.5574 84.4024 95.5574H31.4239C30.3817 95.5574 29.3395 95.034 28.471 94.3362C27.7762 93.4638 27.2551 92.417 27.4288 91.3702C27.9499 85.2638 28.6447 82.1234 28.6447 82.1234V81.7745C28.6447 79.6808 29.3395 77.5872 30.5554 75.3191C31.7713 73.2255 33.682 71.6553 36.1138 70.6085L44.7988 67.4681L54.3523 85.4383H61.3003L71.0275 67.4681L79.7125 70.6085C80.4073 70.783 80.9284 71.1319 81.4495 71.3064C83.0128 72.1787 84.2287 73.4 85.2709 74.9702V75.1447C86.3131 77.0638 87.0079 78.983 87.1816 80.7277C87.1816 80.7277 87.1816 80.9021 87.1816 81.2511C87.3553 82.2979 87.8764 85.6128 88.2238 91.3702C88.5712 92.417 88.2238 93.4638 87.3553 94.3362ZM98.9932 85.9617C98.2984 86.834 97.2562 87.183 96.0403 87.183H90.6556C90.3082 83.8681 89.9608 81.7745 89.9608 80.9021V80.5532C89.7871 78.4596 89.0923 76.1915 87.7027 73.9234V73.7489C86.6605 71.8298 84.9235 70.2596 83.0128 69.0383C82.8391 68.8638 82.6654 68.8638 82.4917 68.8638L85.4446 63.1064L92.9137 65.7234C93.4348 65.8979 93.9559 66.0723 94.3033 66.4213C95.6929 67.1191 96.7351 68.166 97.6036 69.5617V69.7362C98.4721 71.3064 99.1669 73.0511 99.1669 74.4468C99.1669 74.4468 99.1669 74.6213 99.1669 74.7957C99.3406 75.6681 99.688 78.2851 100.035 82.8213C100.035 84.0426 99.688 85.0894 98.9932 85.9617ZM111.326 80.0298C110.631 80.9021 109.589 81.2511 108.373 81.2511H102.467C102.12 77.5872 101.772 75.1447 101.772 74.4468V74.0979C101.599 72.1787 100.904 70.2596 99.8617 68.3404V68.166C99.1669 66.9447 98.1247 65.8979 97.0825 65.0255L99.688 60.1404L106.115 62.4085C106.636 62.583 106.983 62.7574 107.331 62.9319C108.547 63.6298 109.415 64.5021 110.11 65.7234V65.8979C110.978 67.2936 111.5 68.6894 111.5 70.0851C111.5 70.0851 111.5 70.2596 111.5 70.434C111.673 71.3064 111.847 73.4 112.194 76.8894C112.368 78.2851 112.021 79.3319 111.326 80.0298Z" stroke="#005078" stroke-width="0.5" mask="url(#path-1-outside-1)"/>
<path d="M26.9413 57.4733C29.0351 57.4733 30.9562 56.9448 32.7035 56.0631C35.1773 58.5647 38.6872 60.1699 42.3739 60.1699C44.1121 60.1699 45.6792 59.8202 47.0745 59.293C49.9019 62.3374 53.9438 64.125 58.3327 64.125C62.7265 64.125 66.5955 62.3336 69.5906 59.2897C71.1517 59.8175 72.7195 60.1699 74.2914 60.1699C78.1528 60.1699 81.4917 58.5641 83.9618 56.0631C85.7091 56.9448 87.6302 57.4733 89.724 57.4733C96.6366 57.4733 102.125 51.6604 102.125 44.764C102.125 37.6855 96.4589 32.0548 89.724 32.0548C87.0961 32.0548 84.4693 32.9422 82.3556 34.5416C80.0773 32.9419 77.4471 31.875 74.4668 31.875C71.6628 31.875 68.8595 32.7642 66.571 34.3668C64.2852 32.9426 61.4835 32.0548 58.508 32.0548C55.5325 32.0548 52.7308 32.9426 50.445 34.3668C48.1565 32.7642 45.3533 31.875 42.5493 31.875C39.5743 31.875 36.7735 32.9382 34.6576 34.5394C32.5444 32.9414 29.9187 32.0548 27.292 32.0548C20.3806 32.0548 14.8928 37.8659 14.8911 44.7608C14.5385 51.662 20.0309 57.4733 26.9413 57.4733ZM99.2444 44.764C99.2444 50.2695 94.9147 54.5267 89.724 54.5267C88.3925 54.5267 87.0576 54.1978 85.8753 53.6964C87.2442 51.5409 88.0953 48.869 88.0953 46.0225C88.0953 42.4457 86.7195 39.0461 84.4764 36.5178C86.0158 35.4949 87.8727 34.8216 89.724 34.8216C94.9118 34.8216 99.2444 39.2556 99.2444 44.764ZM74.2914 34.8216C80.3574 34.8216 85.2148 39.7964 85.2148 46.0225C85.2148 52.2485 80.3574 57.2233 74.2914 57.2233C73.3072 57.2233 72.3262 57.0639 71.4953 56.7478C73.04 54.2387 74.0657 51.2083 74.0657 48C74.0657 43.3494 72.1701 39.2287 69.0619 36.1624C70.5943 35.3227 72.4433 34.8216 74.2914 34.8216ZM71.1851 48C71.1851 55.3025 65.4531 60.9986 58.3327 60.9986C51.2155 60.9986 45.6556 55.1261 45.6556 48C45.6556 40.6942 51.3909 34.8216 58.3327 34.8216C65.2756 34.8216 71.1851 40.8751 71.1851 48ZM47.7685 36.1652C44.664 39.0653 42.775 43.3579 42.775 48C42.775 51.2001 43.6267 54.2297 45.3337 56.7433C44.3601 57.0643 43.5324 57.2233 42.5493 57.2233C36.4832 57.2233 31.6259 52.2485 31.6259 46.0225C31.6259 39.7964 36.4832 34.8216 42.5493 34.8216C44.2261 34.8216 46.0719 35.322 47.7685 36.1652ZM26.9413 34.8216C28.8049 34.8216 30.6628 35.3309 32.1955 36.5103C29.9491 39.0342 28.57 42.264 28.57 46.0225C28.57 48.869 29.4212 51.5409 30.79 53.6964C29.6077 54.1978 28.2729 54.5267 26.9413 54.5267C21.5782 54.5267 17.4209 50.0927 17.4209 44.764C17.4209 39.4339 21.755 34.8216 26.9413 34.8216Z" fill="#005078" stroke="#005078" stroke-width="0.25"/>
<path d="M60.125 1V0.875H60H57H56.875V1V12V12.125H57H60H60.125V12V1Z" fill="#005078" stroke="#005078" stroke-width="0.25"/>
<path d="M79.806 5.32488L79.8538 5.2094L79.7384 5.16155L77.3306 4.16382L77.2151 4.11597L77.1672 4.23145L72.5777 15.3073L72.5298 15.4228L72.6453 15.4706L75.0531 16.4684L75.1686 16.5162L75.2164 16.4007L79.806 5.32488Z" fill="#005078" stroke="#005078" stroke-width="0.25"/>
<path d="M96.6111 17.1369L96.6994 17.0486L96.6111 16.9602L94.7681 15.1172L94.6797 15.0288L94.5913 15.1172L86.1136 23.5949L86.0252 23.6833L86.1136 23.7717L87.9566 25.6147L88.0449 25.7031L88.1333 25.6147L96.6111 17.1369Z" fill="#005078" stroke="#005078" stroke-width="0.25"/>
<path d="M44.0869 15.5456L44.2024 15.4977L44.1545 15.3822L39.5662 4.30519L39.5183 4.1897L39.4028 4.23754L36.9948 5.23501L36.8793 5.28285L36.9271 5.39833L41.5155 16.4754L41.5633 16.5909L41.6788 16.543L44.0869 15.5456Z" fill="#005078" stroke="#005078" stroke-width="0.25"/>
<path d="M30.7111 23.8908L30.7995 23.8024L30.7111 23.7141L22.2334 15.2363L22.145 15.1479L22.0566 15.2363L20.2136 17.0793L20.1253 17.1677L20.2136 17.2561L28.6914 25.7338L28.7798 25.8222L28.8682 25.7338L30.7111 23.8908Z" fill="#005078" stroke="#005078" stroke-width="0.25"/>
</svg>
