<svg width="86" height="101" viewBox="0 0 86 101" fill="none" xmlns="http://www.w3.org/2000/svg">
<path d="M0.152725 100.961C0.152725 99.2841 -0.27926 97.4302 0.309811 95.9904C0.85961 94.5901 2.4501 93.5843 3.60861 92.4206C4.78675 91.2373 5.94526 90.0342 7.16267 88.8902C7.45721 88.6141 7.9481 88.4169 8.34081 88.3972C10.4222 88.3577 12.5232 88.3775 14.7813 88.3775C14.7813 87.8844 14.7813 87.4308 14.7813 86.9969C14.7813 60.4896 14.7813 33.9625 14.7813 7.45518C14.7813 6.44933 14.8206 5.50264 14.153 4.53622C13.1712 3.11619 13.9174 1.16364 15.4882 0.374731C15.7435 0.236673 16.0184 0.118336 16.2736 0C16.6663 0 17.0591 0 17.4518 0C17.707 0.118336 17.9819 0.236673 18.2372 0.374731C19.9062 1.22281 20.5739 3.33314 19.435 4.81234C18.5121 6.01543 19.1012 7.19879 18.9637 8.48077C19.5332 8.48077 19.9455 8.48077 20.3579 8.48077C32.3356 8.48077 44.2938 8.48077 56.2716 8.48077C57.9602 8.48077 58.7064 9.30912 58.7064 10.9658C58.6867 20.985 58.6867 31.0041 58.7064 41.0232C58.7064 41.8319 58.51 42.463 57.9406 43.0547C54.4847 46.6442 51.0485 50.2535 47.6122 53.8627C47.4159 54.0797 47.2195 54.3163 46.9642 54.6319C57.6264 54.6319 68.0922 54.6319 78.7348 54.6319C78.3617 54.2375 78.1261 53.9811 77.8905 53.7247C74.4149 50.2337 70.9591 46.7625 67.4835 43.2716C66.0894 41.8713 66.0894 40.8852 67.4639 39.5046C70.9787 35.9742 74.4935 32.4439 78.0083 28.9135C78.2439 28.6768 78.4403 28.4204 78.8133 28.0062C78.2046 28.0062 77.8512 28.0062 77.4977 28.0062C72.7263 28.0062 67.9548 28.0062 63.1637 28.0062C62.2604 28.0062 61.5536 27.7104 61.1216 26.9215C60.3165 25.462 61.3965 23.8842 63.203 23.8842C69.8791 23.8842 76.5552 23.9039 83.2314 23.8645C84.547 23.8645 85.4306 24.2787 85.9804 25.4423C85.9804 25.7776 85.9804 26.0931 85.9804 26.4284C85.7055 26.8426 85.4895 27.2962 85.1557 27.6315C80.8555 31.9508 76.5552 36.2503 72.2354 40.5499C71.9801 40.8063 71.6267 40.9246 71.3125 41.1021C71.3321 41.2599 71.3518 41.4177 71.391 41.5755C71.6856 41.7924 72.0194 41.9502 72.2747 42.2066C76.3392 46.2892 80.4235 50.3718 84.4684 54.4544C85.0182 55.0066 85.4895 55.618 86 56.2097C86 56.6042 86 56.9986 86 57.3931C85.3717 58.5764 84.3702 58.9117 83.0939 58.9117C70.1147 58.892 57.1159 58.892 44.1367 58.892C43.4887 58.892 42.8211 58.9315 42.1731 58.9315C40.8575 58.9315 39.9347 58.0242 39.915 56.7225C39.915 54.0205 39.915 51.3382 39.9543 48.6362C39.9739 47.3937 40.6219 46.5653 41.6037 46.3878C42.9586 46.1511 43.9992 47.0189 44.0778 48.4981C44.1171 48.9912 44.0778 49.4843 44.0778 49.9773C44.0778 50.431 44.0778 50.8649 44.2938 51.4171C46.7286 48.8531 49.1831 46.2695 51.775 43.5477C40.7397 43.5477 29.9008 43.5477 19.003 43.5477C19.003 58.4778 19.003 73.3882 19.003 88.4169C21.0058 88.4169 22.989 88.4563 24.9722 88.3972C25.7577 88.3775 26.3075 88.5944 26.8573 89.1664C28.8798 91.2767 30.9808 93.3081 33.0033 95.3987C33.2978 95.7143 33.5138 96.2271 33.5334 96.661C33.5923 98.1008 33.5531 99.5602 33.5531 101C22.4 100.961 11.2665 100.961 0.152725 100.961ZM54.524 12.662C42.6051 12.662 30.7844 12.662 18.9834 12.662C18.9834 21.5569 18.9834 30.373 18.9834 39.189C30.8826 39.189 42.7033 39.189 54.524 39.189C54.524 30.2941 54.524 21.4978 54.524 12.662ZM5.14019 96.7202C13.0141 96.7202 20.672 96.7202 28.4674 96.7202C27.0929 95.3198 25.8559 94.0182 24.5599 92.7756C24.3439 92.5587 23.9119 92.4995 23.5585 92.4995C19.0815 92.4798 14.585 92.4798 10.108 92.4995C9.73495 92.4995 9.28333 92.5784 9.02806 92.8151C7.77138 94.0379 6.55396 95.3001 5.14019 96.7202Z" fill="#005078"/>
</svg>
