<svg width="134" height="151" viewBox="0 0 134 151" fill="none" xmlns="http://www.w3.org/2000/svg">
<path d="M64.0074 55.6545C66.204 53.9117 68.5162 52.4012 71.0596 51.1231C72.4469 50.0774 73.7186 48.9155 74.9903 47.7536C75.4528 47.2889 76.3776 46.3594 76.9557 45.8946C77.765 45.4299 78.6898 43.9194 77.765 42.9899C76.9557 42.2928 75.684 43.1061 75.1059 43.687C73.9498 44.3842 71.0596 46.8241 70.0191 47.8698C68.863 48.9155 67.8225 50.1936 66.8976 51.3555C65.9728 52.5174 65.1635 53.6793 64.3542 54.8412C64.123 55.0736 64.123 55.3059 64.0074 55.6545Z" fill="#1BCDCE"/>
<path d="M57.4176 61.3477C55.221 61.58 52.9088 61.8124 50.8278 62.3934C49.5561 62.7419 48.2844 63.2067 47.1283 63.7876C46.0878 64.3686 43.1976 65.0657 45.163 65.9952C47.2439 66.9247 51.6371 64.4848 53.6025 63.5552C54.7586 62.8581 56.1459 62.161 57.4176 61.3477Z" fill="#1BCDCE"/>
<path d="M58.1112 60.1858C56.3771 59.0239 54.6429 57.8621 52.7932 56.7002C51.8683 56.1192 50.9434 55.6545 49.9029 55.0735C49.4405 54.8411 47.4751 53.6792 47.0127 53.5631C42.1571 52.7497 46.7814 55.7707 47.3595 56.2354C48.5156 57.0487 50.0185 57.5135 51.4058 58.0944C53.4868 59.0239 55.6834 59.7211 57.88 60.1858C57.9956 60.1858 58.1112 60.1858 58.1112 60.1858Z" fill="#1BCDCE"/>
<path d="M59.7298 48.6831C59.4986 46.4755 59.1518 44.1518 58.6893 41.9442C58.3425 40.6661 58.2269 37.7614 56.8396 38.2261C55.3366 38.6909 56.6084 41.4794 56.8396 42.7575C57.1864 44.6165 57.6488 46.4755 58.1113 48.3346C58.6893 50.5422 59.2674 52.7497 59.961 54.9573C59.961 52.8659 59.8454 50.7745 59.7298 48.6831Z" fill="#1BCDCE"/>
<path d="M61.0015 58.0946C61.8108 56.8165 62.5044 55.5385 63.4293 54.2604C63.8917 53.0985 64.4698 51.9366 64.8166 50.7747C65.7415 48.3347 67.0132 44.1519 67.36 41.5958C67.5913 39.8529 66.5508 38.6911 64.4698 40.5501C63.5449 41.3634 63.4293 42.8739 62.9669 44.0358C62.3888 45.6624 62.042 47.4052 61.6951 49.1481C61.1171 52.169 61.0015 55.1899 60.8859 58.2108C60.7703 58.0946 60.7703 58.0946 61.0015 58.0946C60.8859 58.2108 60.8859 58.0946 61.0015 58.0946Z" fill="#1BCDCE"/>
<path d="M62.5044 58.4434C62.3888 58.6757 62.2732 58.9081 62.1576 59.1405C65.7415 58.0948 69.3254 57.1653 72.7937 55.8872C74.7591 55.1901 76.7244 54.3767 78.5742 53.331C79.2679 52.9825 80.3083 52.6339 80.8864 52.053C81.2332 51.8206 81.5801 51.5882 82.0425 51.3558C84.4703 49.8454 83.3142 48.7997 82.8518 48.6835C81.9269 48.1025 76.84 49.8454 75.7996 50.1939C74.4122 50.6587 73.2561 51.5882 71.9844 52.1692C68.5161 54.9577 64.701 57.1653 62.5044 58.4434Z" fill="#1BCDCE"/>
<path d="M67.5913 65.879C68.7474 66.9247 69.9035 67.9704 71.1752 68.7837C71.6377 69.1323 73.4874 70.7589 74.1811 70.7589C78.4587 71.1075 74.8747 67.9704 73.9499 67.157C72.6782 65.9952 71.1752 64.9495 69.6723 64.1361C67.5913 62.858 65.2791 61.8123 62.9669 60.999C64.3542 62.7419 65.8572 64.3685 67.5913 65.879Z" fill="#1BCDCE"/>
<path d="M36.9546 53.912C36.261 50.6587 35.4517 54.8415 35.3361 55.4225C35.2205 56.2358 35.3361 56.9329 35.4517 57.7462C35.4517 58.6758 35.5673 59.4891 35.6829 60.4186C35.7985 60.9995 35.7985 61.4643 35.9141 62.0452C36.261 61.1157 36.4922 60.07 36.6078 59.0243C36.7234 58.3272 37.0702 54.8415 36.9546 53.912Z" fill="#1BCDCE"/>
<path d="M32.7927 67.6222C32.3303 67.0413 32.2147 65.8794 31.4054 65.8794C30.1337 65.7632 30.2493 67.2736 30.8273 68.2032C31.521 70.1784 34.0644 72.1536 35.3361 73.7802C36.1454 74.5935 36.8391 75.5231 37.6483 76.3364C36.7234 74.3612 35.7986 72.5021 34.6425 70.7593C34.18 69.5974 33.4864 68.5517 32.7927 67.6222Z" fill="#1BCDCE"/>
<path d="M62.5044 65.5307C62.9669 66.925 63.7761 70.643 65.2791 70.8754C66.4352 71.1078 64.8166 68.6678 64.5854 67.9707C64.2386 67.1574 63.7762 66.344 63.4293 65.5307C62.9669 64.6012 62.3888 63.6717 61.9264 62.7422C61.9264 63.7879 62.1576 64.7174 62.5044 65.5307Z" fill="#1BCDCE"/>
<path d="M40.8854 70.7594C39.7293 71.1079 39.6137 72.386 39.8449 74.1289C40.0761 75.6393 40.0761 77.266 40.423 78.7764C40.423 78.8926 40.5386 79.125 40.6542 79.2412C41.2322 77.1498 41.5791 74.7098 41.8103 72.967C41.8103 71.6889 41.8103 70.4108 40.8854 70.7594Z" fill="#1BCDCE"/>
<path d="M96.3782 69.2485C96.725 68.8999 99.4997 66.9247 99.4997 66.5761C99.0372 64.3685 96.2626 67.0409 95.6845 67.3894C94.2972 68.3189 93.0255 69.3646 91.7538 70.5265C90.1353 71.9208 88.6323 73.5474 87.1294 75.1741C88.8635 74.2446 90.7133 73.3151 92.3318 72.1532C93.7192 71.2237 95.1065 70.2942 96.3782 69.2485Z" fill="#1BCDCE"/>
<path d="M31.9835 57.165C31.7522 56.8164 29.9025 54.1441 30.5962 56.7002C30.7118 57.0488 31.6366 58.2107 31.8679 58.5593C32.3303 59.2564 32.9083 60.0697 33.3708 60.7669C33.602 61.1154 33.9488 61.464 34.1801 61.9288C33.8332 60.9992 33.4864 60.0697 33.024 59.1402C32.6771 58.4431 32.3303 57.7459 31.9835 57.165Z" fill="#1BCDCE"/>
<path d="M51.059 68.6676C50.5966 69.3648 50.481 69.5971 51.1746 69.9457C51.6371 70.1781 51.8683 69.8295 52.3307 69.5971C52.6776 69.2486 53.2556 68.9 53.6024 68.5514C54.4117 67.7381 54.9898 66.9248 55.5678 65.9953L58.8049 61.6963C57.6488 62.5096 56.3771 63.3229 55.3366 64.2524C53.9493 65.4143 51.5215 67.1572 51.059 68.6676Z" fill="#1BCDCE"/>
<path d="M92.6786 52.5178C92.6786 50.3102 92.563 48.1026 92.2162 45.895C92.2162 45.6626 91.8694 43.4551 91.7537 43.4551C90.8289 43.3389 91.1757 46.2436 91.1757 46.5922C91.2913 49.6131 91.985 52.7502 92.4474 55.7711C92.563 54.7254 92.6786 53.6797 92.6786 52.5178Z" fill="#1BCDCE"/>
<path d="M85.5107 70.9917C86.32 65.647 87.0137 58.5595 85.0483 59.1405C84.5859 59.2567 85.1639 66.9251 85.2795 67.8546C85.2795 68.9003 85.3951 69.946 85.5107 70.9917Z" fill="#1BCDCE"/>
<path d="M133.488 64.3697C133.488 64.0212 133.141 63.7888 132.795 63.7888C132.679 63.6726 132.563 63.5564 132.332 63.5564C117.187 43.5719 100.539 24.5169 82.5043 6.97238C79.8452 4.30003 76.0301 -0.696098 71.6369 0.117225C69.9028 0.465792 68.5155 1.62768 67.1282 2.78957C64.5847 4.76478 62.1569 6.85619 59.7291 8.94759C49.9023 17.197 40.3066 25.795 31.0579 34.8577C20.653 44.9662 10.7105 55.4232 1.11488 66.3449C0.883659 66.5773 0.999269 66.9259 1.11488 67.0421C1.11488 67.2745 1.11488 67.5068 1.11488 67.7392C1.11488 67.8554 1.11488 67.8554 1.11488 67.9716C0.883659 94.8113 1.23049 121.651 2.15537 148.491C2.15537 148.491 2.15537 148.491 2.15537 148.607C2.15537 148.723 2.15537 148.955 2.15537 149.072V149.188C2.03976 149.536 2.15537 150.001 2.61781 150.001L130.598 146.864C130.714 146.98 130.945 147.096 131.06 147.212C131.407 147.445 131.754 147.212 131.87 146.864C132.332 146.864 132.679 146.864 133.141 146.864C133.488 146.864 133.719 146.515 133.719 146.283C133.719 118.979 133.604 91.6741 133.488 64.3697ZM50.5959 18.2427C54.8735 14.4085 59.2667 10.6904 63.6599 6.97238C66.4345 4.76478 69.7872 0.69817 73.7179 1.27911C76.6082 1.62768 79.7296 5.81049 81.695 7.66951C89.9033 15.6866 97.8804 24.0522 105.626 32.7663C114.644 42.8748 123.315 53.3318 131.407 64.1374C129.904 65.0669 128.286 65.9964 126.667 66.8097C117.187 56.0041 107.245 45.4309 96.9555 35.3225C91.9843 30.4426 86.8975 25.6788 81.695 20.9151C77.9955 17.5456 73.6023 12.6656 68.1686 12.898C62.9662 13.0142 59.2667 18.0103 55.914 21.3798L40.3066 37.2977C29.5549 48.1033 18.8032 59.025 7.93586 69.8306C7.93586 69.9468 7.93587 70.063 7.82026 70.1792C5.9705 69.3659 4.12074 68.4364 2.15537 67.623C2.15537 67.5068 2.15537 67.2745 2.15537 67.1583C2.15537 67.0421 2.15537 67.0421 2.15537 66.9259C17.3003 49.6137 33.4857 33.4635 50.5959 18.2427ZM108.748 63.5564C108.632 63.905 108.17 64.0212 107.938 63.905C107.707 63.905 107.592 63.6726 107.592 63.5564C107.36 63.0917 107.823 62.6269 108.285 62.7431C108.632 62.6269 108.863 63.2078 108.748 63.5564ZM78.8048 31.4883C78.6891 31.6044 78.6891 31.6044 78.5735 31.6044C78.4579 31.7206 78.3423 31.7206 78.2267 31.7206C77.4174 31.7206 76.955 30.4426 77.7643 29.9778C78.6891 29.513 79.4984 30.7911 78.8048 31.4883ZM38.1101 46.3604C38.1101 46.4766 38.1101 46.5928 38.1101 46.709C38.1101 47.0576 37.8788 47.29 37.532 47.29C37.3008 47.5223 36.954 47.5223 36.7227 47.1738C36.4915 46.8252 36.6071 46.3604 36.954 46.0119C37.0696 45.7795 37.4164 45.7795 37.532 45.7795C37.532 45.7795 37.532 45.7795 37.6476 45.7795C37.8788 45.8957 38.1101 46.1281 38.1101 46.3604ZM23.312 68.0878C23.312 68.6687 22.7339 69.1335 22.1559 69.0173C21.9247 68.9011 21.8091 68.7849 21.6934 68.4364C21.6934 68.3202 21.6934 68.204 21.6934 68.0878C21.6934 67.623 22.0403 67.5068 22.3871 67.623C22.6183 67.5068 22.8495 67.5068 23.0808 67.623C23.1964 67.623 23.4276 67.8554 23.312 68.0878ZM2.27098 68.7849C15.4505 74.8267 28.63 80.9848 41.8096 87.0266C40.7691 84.3542 39.7286 81.5657 38.8037 78.8934C36.2603 76.4534 33.8325 73.781 31.6359 70.9925C30.5954 69.7144 27.4739 66.4611 29.4393 64.6021C31.5203 62.7431 34.5261 67.5068 36.7227 71.5735C36.2603 69.5982 35.7979 67.623 35.451 65.6478C35.3354 65.6478 35.2198 65.5316 35.2198 65.4154C33.4857 62.9755 31.6359 60.5355 30.0174 57.9793C29.4393 57.0498 28.1676 55.0746 29.7861 54.2613C31.4047 53.448 32.4452 55.6556 33.0232 56.7013C33.4857 57.6308 33.9481 58.4441 34.2949 59.3736C33.7169 55.5394 33.6013 50.7756 36.2603 51.1242C38.1101 51.3566 38.1101 53.9127 38.1101 55.307C38.1101 58.4441 37.532 61.465 36.3759 64.3697C37.0696 67.8554 37.7632 71.2249 38.8037 74.5944C38.6881 71.5734 39.1505 68.4363 41.4627 68.9011C45.1623 69.482 41.694 79.7067 41.1159 81.5657C41.1159 81.6819 41.1159 81.6819 41.0003 81.6819C41.694 83.7733 42.5032 85.7485 43.3125 87.7237C48.5149 90.0475 53.6018 92.4875 58.8042 94.8112C57.1857 84.3542 57.3013 73.781 59.1511 63.324C56.492 67.1583 51.4052 73.781 49.4398 70.6439C48.3993 69.0173 51.4052 66.4611 52.4457 65.4154C52.5613 65.2992 52.6769 65.1831 52.9081 65.0669C48.3993 67.3906 43.3125 69.2497 42.6188 66.8097C42.0408 64.6021 46.5496 62.7431 47.9369 62.2783C50.1335 61.3488 52.5613 60.8841 54.8735 60.5355C52.4457 59.8384 50.2491 58.9089 47.9369 57.747C46.3184 56.9336 42.7345 55.8879 43.3125 53.2156C44.0062 50.4271 48.3993 52.4023 52.5613 54.9584C51.6364 53.9127 50.8271 52.867 50.0179 51.7051C49.093 50.3109 45.2779 45.1986 47.3588 43.4557C49.5554 41.7129 52.9081 46.5928 53.9486 47.8709C55.6828 49.8461 57.0701 51.9375 58.3418 54.2613C56.0296 46.8252 52.7925 34.8577 55.914 34.5092C58.8042 34.1606 59.6135 41.3643 59.9603 43.1072C60.3072 44.85 60.5384 46.5928 60.7696 48.2195C61.8101 42.0615 63.7755 35.9034 67.3594 37.6463C70.134 39.0405 67.8218 44.7338 67.2438 46.5928C66.8969 47.9871 66.4345 49.2652 65.9721 50.6594C67.1282 49.2652 68.2842 47.8709 69.556 46.709C71.2901 45.0824 75.4521 40.551 78.2267 42.0615C80.5389 43.3395 78.3423 46.2443 74.874 49.3814C77.4174 48.3357 82.1574 46.5928 83.8916 48.4518C87.8223 52.7508 69.4403 58.3279 63.4286 59.9546C68.2842 62.046 80.8857 68.0878 77.0706 71.922C74.9896 74.0134 71.0589 70.1792 69.556 69.0173C67.1282 67.0421 64.8159 64.9507 62.8506 62.6269C64.1223 64.7183 65.1628 66.9259 66.2033 69.2497C66.6657 70.2954 67.5906 72.2706 66.0877 72.8515C63.313 74.0134 61.3477 66.3449 60.5384 62.2783C58.4574 73.3163 58.2262 84.3542 59.9603 95.5084C62.2725 96.5541 64.5847 97.5998 66.8969 98.6455C44.8154 113.75 23.5432 130.017 3.31147 147.445C2.38659 121.186 2.03976 95.0436 2.27098 68.7849ZM71.9838 79.8229C71.9838 79.9391 71.8682 80.1714 71.7525 80.1714C71.7525 80.2876 71.6369 80.2876 71.6369 80.4038C71.0589 80.9848 70.134 80.1714 70.3652 79.4743C70.3652 79.4743 70.3652 79.4743 70.3652 79.3581C70.3652 79.2419 70.3652 79.0096 70.4808 78.8934C71.0589 78.4286 72.215 79.0095 71.9838 79.8229ZM3.31147 148.839C23.89 131.062 45.5091 114.563 67.9374 99.2264L68.053 99.1103C68.3999 98.9941 68.7467 98.5293 68.8623 98.5293C69.3247 98.2969 69.7872 98.0645 70.2496 97.8322C74.6428 90.5123 79.4984 83.3085 84.4696 76.4534C84.5853 76.221 84.5853 75.8725 84.7009 75.2915C84.1228 70.5278 82.1574 55.7718 85.9726 56.3527C88.1692 56.7013 87.5911 61.465 87.5911 62.7431C87.5911 65.9964 87.2443 69.1335 86.6662 72.2706C88.9784 68.5525 90.7126 64.4859 91.7531 60.3031C91.6375 60.1869 91.5219 59.9546 91.6375 59.606C91.7531 59.3736 91.8687 59.1412 91.9843 58.9089C91.8687 58.7927 91.8687 58.7927 91.8687 58.5603C91.2906 54.8422 90.7126 51.2404 90.2501 47.5223C90.0189 46.2443 88.9784 43.2233 89.9033 41.9453C91.4062 39.97 92.6779 42.41 93.0248 43.6881C93.4872 45.6633 93.834 47.6385 93.9497 49.7299C94.2965 47.29 94.7589 44.9662 95.2214 42.6424C95.4526 41.4805 95.7994 39.0405 97.5336 39.5053C100.655 40.2024 96.9555 49.9623 94.9902 54.4937C95.4526 53.9127 95.915 53.448 96.3775 52.867C97.3023 51.9375 99.3833 49.3814 101.002 50.7756C102.389 52.0537 100.077 54.2613 99.2677 55.1908C97.5336 57.166 95.337 58.7927 93.0248 59.9546H92.9092C91.8687 64.6021 89.9033 69.1335 87.3599 73.0839C91.2906 68.9011 99.3833 61.2326 101.002 64.7183C102.042 66.9259 97.6492 69.3659 96.2619 70.4116C93.0248 72.9677 89.4409 75.0591 85.6257 76.802C85.5101 76.802 85.3945 76.9181 85.2789 76.802L85.1633 76.9181C80.3077 83.6571 75.6833 90.5123 71.4057 97.5998C89.4409 114.912 108.748 130.946 129.095 145.47C87.2443 146.864 45.2779 147.91 3.31147 148.839ZM131.06 145.818C110.251 131.062 90.597 114.68 72.0994 97.0188C92.5623 87.1428 112.678 76.4534 132.332 64.9507C132.448 91.9065 132.563 118.862 132.679 145.818C132.101 145.818 131.638 145.818 131.06 145.818Z" fill="#343434"/>
<path d="M98.6904 54.3766C99.0372 54.028 99.2684 53.5633 99.6152 53.2147C99.9621 52.6338 100.309 52.6338 99.4996 52.4014C98.2279 52.0528 96.1469 55.0737 95.3377 56.0033C94.644 56.8166 94.066 57.7461 93.4879 58.6756C94.7596 57.9785 95.9157 57.1651 96.9562 56.2356C97.5343 55.5385 98.1123 54.9575 98.6904 54.3766Z" fill="#1BCDCE"/>
<path d="M59.4985 59.0241C58.458 56.5842 57.1863 54.2604 55.5678 52.0528C54.6429 50.6585 53.4868 49.2643 52.4463 48.1024C51.8683 47.4053 49.3249 43.9196 48.4 46.9405C48.1688 47.6376 49.9029 49.9614 50.2497 50.5424C51.1746 51.9366 52.0995 53.2147 53.2556 54.4928C55.1054 56.468 57.1863 58.2108 59.3829 59.6051C59.4985 59.2565 59.4985 59.1403 59.4985 59.0241Z" fill="#1BCDCE"/>
<path d="M96.8406 42.4092C96.0314 41.1311 96.0314 44.0358 95.8002 44.8492C95.5689 45.8949 95.4533 46.8244 95.2221 47.8701C94.9909 49.3805 94.7597 50.891 94.5284 52.4015C94.9909 51.1234 95.4533 49.8453 95.8002 48.5672C96.3782 47.0568 97.7655 43.8035 96.8406 42.4092Z" fill="#1BCDCE"/>
<path d="M69.6723 111.309C68.9786 108.753 67.7069 105.151 66.0883 106.778C65.1635 107.707 66.204 109.799 66.4352 110.844C66.5508 111.077 66.5508 111.309 66.6664 111.542C67.9381 114.563 69.441 117.583 70.4815 120.604C70.5971 120.488 70.5971 120.488 70.7127 120.372C71.522 117.7 72.2157 115.143 72.7937 112.471C73.0249 111.542 73.603 109.799 72.7937 108.985C71.1752 107.591 70.1347 109.566 69.6723 111.309Z" fill="#1BCDCE"/>
</svg>
