<svg width="40" height="63" viewBox="0 0 40 63" fill="none" xmlns="http://www.w3.org/2000/svg">
<g filter="url(#filter0_d)">
<path d="M35 17.0845C35 25.4155 20 43 20 43C20 43 5 25.4155 5 17.0845C5 8.75356 11.7157 1 20 1C28.2843 1 35 8.75356 35 17.0845Z" fill="#1BCDCE"/>
<path d="M35 17.0845C35 25.4155 20 43 20 43C20 43 5 25.4155 5 17.0845C5 8.75356 11.7157 1 20 1C28.2843 1 35 8.75356 35 17.0845Z" stroke="white" stroke-width="2"/>
</g>
<g clip-path="url(#clip0)">
<path d="M27.5642 20.0001H13.9359C13.7886 20.0001 13.6667 19.8664 13.6667 19.7047V19.4621C13.6667 19.3005 13.7886 19.1667 13.9359 19.1667H27.5642C27.7116 19.1667 27.8334 19.3005 27.8334 19.4621V19.7047C27.8334 19.8695 27.7116 20.0001 27.5642 20.0001Z" fill="white"/>
<path d="M27.3567 18.2693H14.1294V19.1469H27.3567V18.2693Z" fill="white"/>
<path d="M20.993 11.7343V11.0105C21.1609 10.9196 21.2763 10.7448 21.2763 10.542C21.2763 10.2483 21.0385 10.0105 20.7448 10.0105C20.4511 10.0105 20.2133 10.2483 20.2133 10.542C20.2133 10.7448 20.3287 10.9231 20.4965 11.0105V11.7343C17.2378 11.8671 14.6399 14.5455 14.6399 17.8322C14.6399 17.8636 14.6399 17.8951 14.6399 17.9266H26.8427C26.8427 17.8951 26.8427 17.8636 26.8427 17.8322C26.8427 14.5455 24.2448 11.8671 20.993 11.7343Z" fill="white"/>
</g>
<g filter="url(#filter1_d)">
<circle cx="20" cy="52" r="5" fill="#1BCDCE"/>
<circle cx="20" cy="52" r="4" stroke="white" stroke-width="2"/>
</g>
<defs>
<filter id="filter0_d" x="0" y="0" width="40" height="52.5409" filterUnits="userSpaceOnUse" color-interpolation-filters="sRGB">
<feFlood flood-opacity="0" result="BackgroundImageFix"/>
<feColorMatrix in="SourceAlpha" type="matrix" values="0 0 0 0 0 0 0 0 0 0 0 0 0 0 0 0 0 0 127 0"/>
<feOffset dy="4"/>
<feGaussianBlur stdDeviation="2"/>
<feColorMatrix type="matrix" values="0 0 0 0 0 0 0 0 0 0 0 0 0 0 0 0 0 0 0.25 0"/>
<feBlend mode="normal" in2="BackgroundImageFix" result="effect1_dropShadow"/>
<feBlend mode="normal" in="SourceGraphic" in2="effect1_dropShadow" result="shape"/>
</filter>
<filter id="filter1_d" x="11" y="45" width="18" height="18" filterUnits="userSpaceOnUse" color-interpolation-filters="sRGB">
<feFlood flood-opacity="0" result="BackgroundImageFix"/>
<feColorMatrix in="SourceAlpha" type="matrix" values="0 0 0 0 0 0 0 0 0 0 0 0 0 0 0 0 0 0 127 0"/>
<feOffset dy="2"/>
<feGaussianBlur stdDeviation="2"/>
<feColorMatrix type="matrix" values="0 0 0 0 0 0 0 0 0 0 0 0 0 0 0 0 0 0 0.25 0"/>
<feBlend mode="normal" in2="BackgroundImageFix" result="effect1_dropShadow"/>
<feBlend mode="normal" in="SourceGraphic" in2="effect1_dropShadow" result="shape"/>
</filter>
<clipPath id="clip0">
<rect width="17.4825" height="10" fill="white" transform="translate(12 10)"/>
</clipPath>
</defs>
</svg>
