<svg width="17" height="18" viewBox="0 0 17 18" fill="none" xmlns="http://www.w3.org/2000/svg">
<path fill-rule="evenodd" clip-rule="evenodd" d="M8.47972 2L9.60633 4.03628L11.5387 2.65445L11.7461 4.97831L14.069 4.50843L13.3211 6.71516L15.6327 7.23927L14.0594 8.94923L15.9594 10.3753L13.832 11.2913L14.9928 13.3741L12.6799 13.339L12.9005 15.7171L10.8013 14.7368L10.0434 17L8.52119 15.2431L6.91605 17L6.2338 14.7714L4.05897 15.7171L4.3347 13.4014L1.96618 13.3741L3.15249 11.3715L1 10.3753L2.89135 9.03263L1.32677 7.23927L3.59593 6.78853L2.89044 4.50843L5.14547 5.02707L5.42075 2.65445L7.27153 4.05405L8.47972 2Z" stroke="black" stroke-miterlimit="22.9256"/>
<path d="M8.47974 12.6696V12.7575M8.47974 6.24219V10.8133V6.24219Z" stroke="black" stroke-miterlimit="22.9256" stroke-linecap="round" stroke-linejoin="round"/>
</svg>
