<svg width="16" height="16" viewBox="0 0 16 16" fill="none" xmlns="http://www.w3.org/2000/svg">
<path d="M11.926 3.37681C12.5391 3.37681 13.0358 2.88342 13.0358 2.26915V1.10985C13.0358 0.495038 12.5397 0 11.926 0C11.3123 0 10.8167 0.494489 10.8167 1.10985V2.2697C10.8172 2.88342 11.3128 3.37681 11.926 3.37681Z" fill="#757575"/>
<path d="M15.8687 1.91962H13.6347V2.48389C13.6347 3.41518 12.8781 4.17394 11.9452 4.17394C11.0112 4.17394 10.2562 3.41518 10.2562 2.48389V1.91962H5.74816V2.48389C5.74816 3.41518 4.99049 4.17394 4.05811 4.17394C3.12572 4.17394 2.36861 3.41572 2.36861 2.48389V1.91962L0.114288 1.8916V15.9999H1.24172H14.7599L15.8857 15.9966L15.8687 1.91962ZM14.7588 14.8763H1.24172V5.86344H14.7599V14.8763H14.7588Z" fill="#757575"/>
<path d="M4.04053 3.37681C4.6537 3.37681 5.15093 2.88342 5.15093 2.26915V1.10985C5.15093 0.494489 4.6537 0 4.04053 0C3.42737 0 2.93178 0.494489 2.93178 1.10985V2.2697C2.93178 2.88342 3.42682 3.37681 4.04053 3.37681Z" fill="#757575"/>
<path d="M7.52666 7.07275H5.75145V8.63973H7.52666V7.07275Z" fill="#757575"/>
<path d="M10.3986 7.07275H8.62169V8.63973H10.3986V7.07275Z" fill="#757575"/>
<path d="M13.0589 7.07275H11.2837V8.63973H13.0589V7.07275Z" fill="#757575"/>
<path d="M7.52666 9.67505H5.75145V11.2409H7.52666V9.67505Z" fill="#757575"/>
<path d="M10.3986 9.67505H8.62169V11.2409H10.3986V9.67505Z" fill="#757575"/>
<path d="M13.0589 9.67505H11.2837V11.2409H13.0589V9.67505Z" fill="#757575"/>
<path d="M7.52666 12.3286H5.75145V13.8945H7.52666V12.3286Z" fill="#757575"/>
<path d="M4.70589 9.67505H2.93178V11.2409H4.70589V9.67505Z" fill="#757575"/>
<path d="M4.70589 12.3286H2.93178V13.8945H4.70589V12.3286Z" fill="#757575"/>
<path d="M10.3986 12.3286H8.62169V13.8945H10.3986V12.3286Z" fill="#757575"/>
<path d="M13.0589 12.3286H11.2837V13.8945H13.0589V12.3286Z" fill="#757575"/>
</svg>
