<svg width="18" height="15" viewBox="0 0 18 15" fill="none" xmlns="http://www.w3.org/2000/svg">
<path fill-rule="evenodd" clip-rule="evenodd" d="M3.48452 11.1182C3.64571 10.8108 3.68707 10.4665 3.62939 10.1229C3.31327 10.27 3.05348 10.4994 2.89095 10.8063C2.72976 11.1137 2.68884 11.4578 2.74652 11.8019C3.06309 11.6543 3.32288 11.4254 3.48452 11.1182ZM2.17799 7.40924C2.48897 7.25542 2.72461 7.00101 2.88022 6.68913C2.53838 6.62251 2.19297 6.65515 1.88109 6.80784C1.57011 6.96188 1.33447 7.21608 1.17887 7.52862C1.52182 7.59525 1.86634 7.56261 2.17799 7.40924ZM2.8867 7.87784C2.53816 7.88365 2.20728 7.98738 1.9343 8.20179C1.66155 8.4173 1.48471 8.71465 1.39729 9.05268C1.74628 9.04665 2.07672 8.94313 2.34924 8.72829C2.62177 8.51299 2.79928 8.2152 2.8867 7.87784ZM2.79146 9.98294C3.01279 9.71578 3.12502 9.38758 3.14 9.03927C2.80018 9.11774 2.49859 9.28765 2.27591 9.55437C2.05414 9.82153 1.9428 10.1495 1.92737 10.4983C2.26764 10.4196 2.56923 10.2499 2.79146 9.98294ZM1.09034 5.87825C1.22649 5.55721 1.26673 5.21292 1.18111 4.87645C1.09503 4.53998 0.89561 4.25672 0.622635 4.03941C0.486482 4.36068 0.446687 4.70519 0.532313 5.04122C0.617493 5.37768 0.817809 5.66117 1.09034 5.87825ZM2.78408 2.08901C2.84221 1.74695 2.77536 1.40691 2.61417 1.09727C2.35953 1.33537 2.18269 1.63383 2.12434 1.97589C2.06531 2.31772 2.13261 2.65844 2.2938 2.96763C2.54822 2.72953 2.72551 2.43152 2.78408 2.08901ZM1.83616 3.39844C1.82207 3.05147 1.68592 2.73288 1.46414 2.46349C1.26405 2.74943 1.15316 3.07807 1.16724 3.42483C1.18088 3.77158 1.31748 4.09061 1.53926 4.35956C1.73868 4.07406 1.85002 3.74564 1.83616 3.39844ZM1.28238 5.99249C1.60409 6.12865 1.94794 6.16866 2.28441 6.08326C2.62021 5.99719 2.90391 5.79754 3.121 5.52501C2.79996 5.38886 2.45544 5.34862 2.11942 5.43358C1.78295 5.51943 1.49991 5.71907 1.28238 5.99249ZM5.17178 2.67073C4.99225 2.37182 4.73694 2.13663 4.41456 2.00741C4.0924 1.87953 3.74564 1.87416 3.4094 1.96784C3.58937 2.26742 3.84424 2.50149 4.16617 2.63027C4.48878 2.75837 4.83598 2.76351 5.17178 2.67073ZM5.19011 1.44514C5.50981 1.30787 5.7582 1.06686 5.92945 0.762811C5.59141 0.678303 5.24511 0.692611 4.92608 0.829658C4.60683 0.966928 4.35889 1.2086 4.18719 1.51198C4.525 1.59627 4.87086 1.58218 5.19011 1.44514ZM3.75347 11.9027C3.65957 12.2372 3.69109 12.5821 3.81897 12.9068C4.09754 12.6966 4.30412 12.4187 4.39846 12.0845C4.49236 11.7502 4.46128 11.4048 4.3334 11.0809C4.05484 11.2906 3.84826 11.5689 3.75347 11.9027ZM3.30119 3.64034C3.64303 3.6987 3.98374 3.6314 4.29249 3.47088C4.05484 3.21579 3.75638 3.03895 3.41432 2.9797C3.07248 2.92135 2.73221 2.98842 2.42257 3.15006C2.6609 3.40538 2.95869 3.58155 3.30119 3.64034ZM0.967152 7.45686C1.03355 7.11458 1.00158 6.76939 0.84799 6.45796C0.693953 6.14653 0.439757 5.91112 0.127433 5.75507C0.0610338 6.09757 0.0938982 6.44276 0.247489 6.75396C0.400856 7.06562 0.655499 7.30126 0.967152 7.45686ZM3.59898 4.43647C3.31349 4.23637 2.98507 4.12548 2.63787 4.13868C2.29112 4.15276 1.97231 4.28914 1.70291 4.51136C1.9893 4.71168 2.31727 4.82212 2.66447 4.80848C3.01123 4.79417 3.33003 4.6578 3.59898 4.43647ZM3.98352 1.00538C4.1114 0.682774 4.11677 0.336245 4.02376 0C3.72508 0.179972 3.48966 0.435285 3.36178 0.757669C3.233 1.07961 3.22764 1.42703 3.32109 1.76283C3.61978 1.58286 3.85475 1.32821 3.98352 1.00538ZM3.6238 13.0163C3.41409 12.738 3.13598 12.5309 2.80197 12.4366C2.46751 12.3427 2.12255 12.374 1.7977 12.5017C2.00763 12.7802 2.28597 12.987 2.61998 13.0811C2.95444 13.1755 3.29985 13.144 3.6238 13.0163ZM5.4063 14.3222C5.06223 14.3722 4.75997 14.541 4.51561 14.7899C4.82078 14.9589 5.15881 15.0349 5.50244 14.9848C5.84606 14.9347 6.14877 14.7659 6.39313 14.5171C6.08773 14.3481 5.74992 14.2721 5.4063 14.3222ZM1.17507 9.02675C1.16903 8.67798 1.06597 8.3471 0.850673 8.07458C0.635378 7.80182 0.337586 7.62453 0 7.5369C0.00648345 7.88588 0.109995 8.21654 0.324843 8.48907C0.539691 8.7616 0.83793 8.93933 1.17507 9.02675ZM5.49349 12.8401C5.51585 12.4934 5.41368 12.1623 5.22096 11.8719C4.99226 12.1348 4.84805 12.45 4.82503 12.7963C4.80222 13.1431 4.90484 13.4737 5.09756 13.7648C5.32626 13.5012 5.47047 13.1864 5.49349 12.8401ZM6.25384 12.4605C6.08483 12.7652 6.00926 13.1035 6.05867 13.4471C6.10897 13.791 6.27777 14.0932 6.52682 14.3376C6.69584 14.0324 6.7714 13.6946 6.72155 13.351C6.67169 13.0074 6.50267 12.7047 6.25384 12.4605ZM1.18938 9.6552C0.922215 9.43342 0.594242 9.32141 0.245253 9.30598C0.324396 9.64603 0.494083 9.94807 0.76147 10.1696C1.02774 10.3918 1.35661 10.5036 1.7047 10.5191C1.62645 10.1792 1.45632 9.8772 1.18938 9.6552ZM4.00498 13.5162C3.65823 13.4936 3.32735 13.596 3.03649 13.7885C3.29985 14.0172 3.61463 14.1619 3.96139 14.1844C4.30769 14.2072 4.63902 14.1049 4.92988 13.9124C4.66652 13.6834 4.35174 13.539 4.00498 13.5162ZM2.53302 11.8685C2.38591 11.5526 2.15653 11.2924 1.84957 11.1305C1.54172 10.9691 1.19765 10.928 0.853579 10.9854C1.00113 11.3015 1.23051 11.5618 1.53792 11.7232C1.84488 11.8848 2.18939 11.926 2.53302 11.8685ZM15.5719 6.80784C15.26 6.65492 14.9148 6.62251 14.5728 6.68913C14.7282 7.00101 14.964 7.2552 15.275 7.40924C15.5864 7.56283 15.9314 7.59525 16.2741 7.52862C16.1183 7.21608 15.8829 6.9621 15.5719 6.80784ZM15.5187 8.20201C15.2457 7.98761 14.9148 7.88387 14.5663 7.87806C14.6537 8.21542 14.8314 8.51321 15.1038 8.72851C15.3763 8.94336 15.7067 9.04687 16.0557 9.05291C15.9685 8.71465 15.7912 8.4173 15.5187 8.20201ZM16.286 3.42483C16.3001 3.07807 16.1889 2.74943 15.9891 2.46349C15.7673 2.73288 15.6309 3.05147 15.6171 3.39844C15.603 3.74564 15.7145 4.07384 15.914 4.35956C16.1357 4.09061 16.2723 3.77158 16.286 3.42483ZM15.1594 2.96741C15.3206 2.65821 15.3877 2.31772 15.3289 1.97566C15.2703 1.63383 15.0935 1.33537 14.839 1.09704C14.6779 1.40668 14.611 1.74651 14.6691 2.08879C14.7275 2.43152 14.9048 2.72953 15.1594 2.96741ZM15.5256 10.4983C15.5104 10.1495 15.3991 9.82175 15.1771 9.55437C14.9544 9.28787 14.6526 9.11774 14.313 9.03927C14.3278 9.38758 14.44 9.71556 14.6615 9.98294C14.8838 10.2499 15.1856 10.4196 15.5256 10.4983ZM13.1607 3.47088C13.4695 3.6314 13.81 3.6987 14.152 3.64034C14.4943 3.58132 14.7921 3.40538 15.0306 3.15006C14.721 2.98842 14.381 2.92158 14.0389 2.9797C13.6966 3.03917 13.3984 3.21601 13.1607 3.47088ZM16.6025 8.07458C16.3873 8.3471 16.2842 8.67798 16.2781 9.02675C16.6153 8.93933 16.9135 8.7616 17.1284 8.48907C17.3432 8.21654 17.4467 7.88588 17.4532 7.5369C17.1152 7.62453 16.8178 7.80182 16.6025 8.07458ZM16.605 6.45818C16.4512 6.76961 16.4194 7.1148 16.4858 7.45708C16.7977 7.30148 17.0521 7.06562 17.2055 6.75419C17.3593 6.44298 17.392 6.09779 17.3256 5.75529C17.0135 5.91112 16.7593 6.14676 16.605 6.45818ZM14.3318 5.52501C14.5489 5.79754 14.8321 5.99719 15.1684 6.08326C15.5051 6.16866 15.8487 6.12865 16.1704 5.99249C15.9529 5.71907 15.67 5.51965 15.3334 5.43358C14.9973 5.34862 14.6528 5.38886 14.3318 5.52501ZM16.3627 5.87825C16.6352 5.66117 16.8355 5.37768 16.9207 5.04122C17.0063 4.70497 16.9661 4.36045 16.8304 4.03941C16.5574 4.25672 16.358 4.53998 16.2719 4.87645C16.1863 5.21292 16.2265 5.55721 16.3627 5.87825ZM13.9685 11.1182C14.1301 11.4254 14.3899 11.6541 14.7065 11.8019C14.7642 11.4578 14.723 11.1137 14.5616 10.8063C14.3995 10.4994 14.1397 10.2702 13.8236 10.1229C13.7659 10.4665 13.8075 10.8108 13.9685 11.1182ZM13.8542 4.43647C14.1232 4.6578 14.442 4.7944 14.7887 4.80848C15.1359 4.82212 15.4639 4.71145 15.7503 4.51136C15.4809 4.28914 15.1621 4.15276 14.8153 4.13868C14.4681 4.12548 14.1397 4.23637 13.8542 4.43647ZM11.0601 14.5171C11.3047 14.7657 11.6072 14.9347 11.9508 14.9848C12.2944 15.0349 12.6324 14.9589 12.9376 14.7899C12.693 14.5413 12.391 14.3722 12.0469 14.3222C11.7033 14.2721 11.3653 14.3481 11.0601 14.5171ZM14.651 12.4366C14.317 12.5309 14.0389 12.738 13.8292 13.0163C14.1531 13.144 14.4986 13.1755 14.833 13.0811C15.167 12.987 15.4451 12.7802 15.6553 12.5017C15.3304 12.374 14.9855 12.3427 14.651 12.4366ZM12.5233 13.9124C12.8142 14.1046 13.1455 14.207 13.4918 14.1844C13.8386 14.1619 14.1534 14.0174 14.4167 13.7885C14.1259 13.5962 13.795 13.4938 13.4482 13.5162C13.1015 13.539 12.7865 13.6834 12.5233 13.9124ZM11.9595 12.8401C11.9823 13.1867 12.1267 13.5012 12.3554 13.7648C12.5479 13.4737 12.6505 13.1431 12.628 12.7963C12.6047 12.45 12.4607 12.1348 12.232 11.8719C12.0395 12.1621 11.9374 12.4934 11.9595 12.8401ZM11.1994 12.4605C10.9505 12.7047 10.7815 13.0071 10.7317 13.351C10.6818 13.6946 10.7574 14.0324 10.9264 14.3376C11.1752 14.093 11.3442 13.791 11.3945 13.4471C11.444 13.1035 11.3684 12.7655 11.1994 12.4605ZM15.6034 11.1305C15.2965 11.2924 15.0673 11.5526 14.92 11.8685C15.2636 11.926 15.6081 11.8848 15.9151 11.7232C16.2225 11.5618 16.4516 11.3015 16.5994 10.9854C16.2553 10.928 15.9113 10.9691 15.6034 11.1305ZM14.0436 1.96806C13.7074 1.87439 13.3606 1.87953 13.0384 2.00763C12.7163 2.13685 12.4607 2.37205 12.2812 2.67096C12.617 2.76374 12.9642 2.7586 13.2864 2.63049C13.6088 2.50149 13.8634 2.26764 14.0436 1.96806ZM13.634 12.9068C13.7619 12.5821 13.7934 12.2372 13.6995 11.9027C13.6047 11.5689 13.3982 11.2906 13.1196 11.0809C12.9917 11.4048 12.9606 11.7502 13.0545 12.0845C13.1489 12.4189 13.3555 12.6966 13.634 12.9068ZM14.1319 1.76283C14.2254 1.42703 14.2202 1.07961 14.0912 0.757669C13.9633 0.435285 13.7279 0.179972 13.4292 0C13.3362 0.336245 13.3414 0.682774 13.4695 1.00538C13.5983 1.32821 13.8332 1.58286 14.1319 1.76283ZM12.2631 1.44514C12.5824 1.58218 12.9282 1.59627 13.266 1.51198C13.0943 1.20883 12.8464 0.966928 12.5271 0.829658C12.2079 0.692611 11.8616 0.678303 11.5238 0.762811C11.695 1.06664 11.9434 1.30787 12.2631 1.44514ZM15.7483 10.5191C16.0964 10.5039 16.4246 10.3921 16.6915 10.1696C16.9587 9.94807 17.1286 9.64581 17.2073 9.30598C16.8588 9.32119 16.531 9.43319 16.2636 9.6552C15.9965 9.8772 15.8265 10.1792 15.7483 10.5191ZM10.6264 7.86599L12.6054 5.98825L9.90067 5.633L8.7265 3.17041L7.55232 5.633L4.84716 5.98825L6.82662 7.86599L6.32919 10.5481L8.7265 9.24607L11.1238 10.5481L10.6264 7.86599Z" fill="#272727"/>
</svg>
