<svg width="23" height="25" viewBox="0 0 23 25" fill="none" xmlns="http://www.w3.org/2000/svg">
<path d="M11 0V5H12V0H11ZM14.17 4.43L15.11 4.74C15.12 4.73 15.71 3.04 17.78 3.04V2.04C15.56 2.04 14.44 3.6 14.17 4.43ZM2.18999 8.9L3.01999 9.46C4.37999 7.48 6.65999 7.63 6.74999 7.64L6.82999 6.64C6.71999 6.63 3.89999 6.42 2.18999 8.9ZM4.23999 1.56V2.56C5.98999 2.56 7.85999 3.36 7.85999 5.61H8.85999C8.85999 3.15 7.04999 1.56 4.23999 1.56ZM22.94 19.54L19.79 13.05C19.78 13.03 19.77 13.02 19.77 13L19.61 12.68C19.13 11.7 18.62 11.49 18.08 11.26C18.07 11.26 17.98 11.22 17.98 11.22L17.89 11.19C17.42 10.98 16.93 10.72 16.53 9.9C16.43 9.69 16.31 9.48 16.16 9.28C16.09 9.18 15.88 8.81 15.63 8.38C15.41 8 15.17 7.57 14.97 7.24C14.65 6.69 13.96 6.49 13.37 6.75L12.25 7.26C11.65 7.54 11.37 8.24 11.63 8.84C11.77 9.16 11.94 9.56 12.1 9.92C12.29 10.33 12.52 10.85 12.55 10.95C12.62 11.19 12.7 11.42 12.81 11.63C13.25 12.53 13.08 13.09 12.91 13.63V13.64C12.74 14.19 12.58 14.71 13.06 15.71L13.22 16.03C13.22 16.04 13.23 16.05 13.24 16.07L15.35 20.41V20.44C15.37 20.54 15.42 20.63 15.49 20.7L16.39 22.56C16.53 22.85 16.89 22.95 17.31 22.95C18.35 22.95 19.84 22.35 19.87 22.34C19.96 22.3 20.06 22.26 20.2 22.19C20.32 22.14 20.44 22.08 20.55 22.03C20.9 21.85 21.22 21.66 21.5 21.48C22.32 20.94 23.24 20.16 22.94 19.54ZM18.63 18.94C17.7 19.37 16.69 19.64 16.15 19.77L14.31 15.98C14.75 15.66 15.62 15.07 16.54 14.65C17.48 14.22 18.51 13.94 19.05 13.82L20.88 17.6C20.44 17.92 19.57 18.51 18.63 18.94ZM10.75 9.31L9.61999 8.79C9.03999 8.53 8.34999 8.74 8.02999 9.28C7.82999 9.61 7.58999 10.04 7.36999 10.42C7.11999 10.85 6.90999 11.22 6.83999 11.31C6.68999 11.52 6.56999 11.73 6.46999 11.94C6.06999 12.76 5.57999 13.03 5.12999 13.22L5.01999 13.27L4.91999 13.31C4.37999 13.53 3.86999 13.74 3.38999 14.73L3.22999 15.05C3.22999 15.06 3.21999 15.08 3.20999 15.09L0.0599873 21.58C-0.240013 22.2 0.679987 22.98 1.49999 23.52C1.77999 23.7 2.09999 23.89 2.45999 24.07C2.54999 24.12 2.65999 24.17 2.78999 24.23C2.90999 24.28 3.01999 24.33 3.13999 24.38C3.15999 24.39 4.64999 25 5.67999 25C6.10999 25 6.46999 24.89 6.60999 24.6L7.50999 22.74C7.57999 22.67 7.62999 22.58 7.64999 22.49V22.46L9.75999 18.11C9.76999 18.1 9.77999 18.08 9.77999 18.07L9.93999 17.75C10.42 16.75 10.26 16.23 10.09 15.68C9.91999 15.13 9.74999 14.57 10.19 13.67C10.3 13.46 10.38 13.24 10.45 13C10.48 12.89 10.72 12.37 10.9 11.95C11.06 11.59 11.24 11.2 11.37 10.89C11.63 10.28 11.35 9.59 10.75 9.31ZM6.84999 21.81C6.30999 21.68 5.29999 21.41 4.36999 20.99C3.42999 20.56 2.55999 19.96 2.11999 19.64L3.94999 15.86C4.48999 15.99 5.50999 16.26 6.45999 16.69C7.37999 17.11 8.23999 17.7 8.68999 18.02L6.84999 21.81Z" fill="#1BCDCE"/>
</svg>
