<svg width="24" height="24" viewBox="0 0 24 24" fill="none" xmlns="http://www.w3.org/2000/svg">
<path d="M16.1763 14.2594C15.7751 13.8577 15.2736 13.6569 14.772 13.6569C14.2705 13.6569 13.769 13.8577 13.3678 14.2594L11.7629 15.8661L8.15199 12.251L9.75686 10.6444C10.1581 10.2427 10.3587 9.74059 10.3587 9.23849C10.3587 8.7364 10.1581 8.23431 9.75686 7.83264L6.14592 4.21757C5.7447 3.91632 5.24318 3.61506 4.74166 3.61506C4.24014 3.61506 3.73863 3.8159 3.33741 4.21757L1.43164 6.12552C-0.273528 7.83264 -0.474136 10.5439 0.930118 12.5523C3.83893 16.6695 7.34956 20.2845 11.462 23.0962C12.3648 23.6987 13.3678 24 14.3708 24C15.6748 24 16.9787 23.4979 17.8815 22.4937L19.7872 20.5858C20.1885 20.1841 20.3891 19.682 20.3891 19.1799C20.3891 18.6778 20.1885 18.1757 19.7872 17.7741L16.1763 14.2594ZM16.4772 21.1883C15.4742 22.1925 13.8693 22.3933 12.5654 21.4895C8.65351 18.7782 5.24318 15.364 2.53498 11.4477C1.73255 10.2427 1.83285 8.63598 2.83589 7.53138L4.74166 5.62343L8.3526 9.23849L6.74774 10.8452C6.34652 11.2469 6.14592 11.749 6.14592 12.251C6.14592 12.7531 6.34652 13.2552 6.74774 13.6569L10.3587 17.272C11.1611 18.0753 12.4651 18.0753 13.1672 17.272L14.772 15.6653L18.383 19.2803L16.4772 21.1883ZM15.9757 12.0502C15.9757 12.6527 16.3769 13.0544 16.9787 13.0544C17.5806 13.0544 17.9818 12.6527 17.9818 12.0502C17.9818 8.7364 15.2736 6.0251 11.9635 6.0251C11.3617 6.0251 10.9605 6.42678 10.9605 7.02929C10.9605 7.6318 11.3617 8.03347 11.9635 8.03347C14.1702 8.03347 15.9757 9.841 15.9757 12.0502ZM11.9635 3.01255C11.3617 3.01255 10.9605 3.41423 10.9605 4.01674C10.9605 4.61925 11.3617 5.02092 11.9635 5.02092C15.8754 5.02092 18.9848 8.13389 18.9848 12.0502C18.9848 12.6527 19.386 13.0544 19.9878 13.0544C20.5897 13.0544 20.9909 12.6527 20.9909 12.0502C20.9909 7.02929 16.9787 3.01255 11.9635 3.01255ZM11.9635 0C11.3617 0 10.9605 0.401674 10.9605 1.00418C10.9605 1.60669 11.3617 2.00837 11.9635 2.00837C17.4802 2.00837 21.9939 6.5272 21.9939 12.0502C21.9939 12.6527 22.3951 13.0544 22.997 13.0544C23.5988 13.0544 24 12.6527 24 12.0502C24 5.42259 18.5836 0 11.9635 0Z" fill="white"/>
</svg>
