<svg width="61" height="178" viewBox="0 0 61 178" fill="none" xmlns="http://www.w3.org/2000/svg">
<g clip-path="url(#clip0)">
<path d="M19.4999 1.2999C17.9999 2.3999 17.7999 6.69989 17.3999 8.2999C16.9999 9.8999 16.6999 11.5999 16.2999 13.2999C16.2999 13.3999 16.1999 13.4999 16.1999 13.4999C15.7999 15.6999 15.2999 17.8999 14.8999 20.0999C13.4999 27.7999 12.4999 35.5999 11.3999 43.3999C10.3999 50.4999 9.09986 57.5999 8.69986 64.6999C8.49986 68.8999 8.69986 73.0999 9.19986 77.1999C9.29986 78.3999 10.1999 81.6999 9.49986 82.5999C9.19986 83.0999 8.39986 83.0999 7.99986 83.7999C6.69986 85.9999 9.09986 89.1999 10.0999 90.8999C11.6999 93.5999 13.3999 96.0999 15.2999 98.4999C12.3999 97.3999 9.79986 95.8999 7.19986 94.1999C7.19986 94.1999 7.19986 94.1999 7.09986 94.1999C6.99986 94.1999 6.99986 94.0999 6.89986 94.0999C6.49986 93.8999 6.09986 94.2999 6.19986 94.5999C7.99986 101.9 12.1999 107.9 16.6999 113.8C19.5999 117.6 22.5999 121.4 25.5999 125.2L25.4999 125.1C22.7999 122.6 19.5999 120.6 16.4999 118.7C15.9999 118.4 15.5999 119.1 15.8999 119.4C19.1999 122.9 22.0999 126.6 25.0999 130.4C27.0999 133 29.3999 135.1 32.4999 136.1C32.5999 136.1 32.5999 136.1 32.6999 136.1C32.6999 136.4 32.6999 136.8 32.6999 137.1C23.3999 132 14.2999 125.4 11.1999 114.8C11.0999 114.5 10.6999 114.3 10.3999 114.6C9.49986 115.6 8.79987 116.7 8.69987 118.2C8.69987 118.8 8.79987 119.2 8.89987 119.7C8.99987 120.1 9.09987 120.6 9.29987 121C9.99987 122.2 9.39987 123.2 7.79987 124C7.49987 123.7 6.99987 123.9 6.99987 124.3C6.69987 131 12.0999 135.5 16.6999 139.5C19.0999 141.5 21.4999 143.2 24.2999 144.7C27.4999 146.4 30.5999 148 32.3999 151.3C32.4999 151.5 32.6999 151.5 32.7999 151.5C32.7999 151.8 32.7999 152.1 32.7999 152.4C30.1999 149.5 27.1999 147.2 23.5999 145.6C21.1999 144.5 18.5999 144 16.2999 142.5C14.5999 141.4 13.1999 140 11.1999 139.3C10.7999 139.2 10.4999 139.7 10.6999 140C12.8999 143.2 16.0999 144.8 19.5999 146.2C24.3999 148.3 28.6999 150.7 32.5999 154.1C32.6999 154.1 32.6999 154.2 32.7999 154.2C32.8999 162 33.4999 169.8 36.7999 177.1C37.1999 177.4 37.4999 177.4 37.6999 177.3C37.9999 177.3 38.2999 177.1 38.1999 176.7C37.2999 170.9 36.2999 165.1 36.1999 159.3C36.1999 158 36.1999 156.7 36.1999 155.5C36.2999 155.5 36.3999 155.5 36.5999 155.4C39.8999 153.3 43.3999 151.3 46.6999 149.1C49.3999 147.2 51.6999 144.8 54.3999 142.9C54.7999 142.6 54.5999 142 53.9999 142C47.4999 143.2 43.2999 150 37.2999 152.5C37.9999 152 38.5999 151.5 38.6999 151.4C39.6999 150.6 40.5999 149.7 41.4999 148.8C43.0999 147.2 44.5999 145.6 45.9999 143.8C48.8999 140.3 51.4999 136.7 54.0999 133C56.5999 129.5 58.5999 126.1 59.6999 121.9C60.1999 120.1 61.9999 115.9 60.0999 114.4C59.8999 114.2 59.5999 114.4 59.4999 114.6C59.0999 115.1 58.6999 115.6 58.2999 116.2C57.6999 116.8 57.1999 117.5 56.5999 118.1C54.3999 120.5 51.8999 122.6 49.0999 124.5C50.6999 120 53.8999 116.3 54.0999 111.2C54.1999 108.3 53.3999 105.5 53.3999 102.6C53.3999 102.3 53.3999 101.9 53.3999 101.6C53.4999 101.4 53.4999 101.3 53.3999 101.2C53.4999 98.5999 53.4999 96.0999 53.5999 93.4999C53.5999 93.0999 53.0999 92.8999 52.7999 93.1999C51.3999 94.8999 49.7999 96.4999 48.0999 97.9999C47.4999 98.4999 46.8999 98.9999 46.1999 99.4999C43.7999 98.2999 43.2999 97.0999 44.5999 95.8999C45.5999 94.0999 47.8999 92.8999 49.8999 92.7999C50.0999 92.7999 50.1999 92.6999 50.2999 92.5999C50.4999 92.4999 50.5999 92.2999 50.5999 92.0999C49.7999 86.4999 49.4999 80.7999 49.2999 75.1999C49.3999 74.9999 49.3999 74.7999 49.2999 74.6999C49.0999 67.9999 48.8999 61.2999 47.8999 54.6999C47.9999 54.4999 47.8999 54.2999 47.7999 54.1999C47.3999 51.7999 46.9999 49.3999 46.2999 46.9999C46.2999 46.8999 46.2999 46.8999 46.1999 46.7999C46.2999 46.5999 46.1999 46.3999 45.9999 46.1999C45.2999 43.6999 44.4999 41.2999 43.5999 38.8999C43.5999 38.6999 43.5999 38.5999 43.3999 38.4999C39.5999 28.5999 34.0999 19.3999 28.0999 10.6999C26.2999 7.99991 24.5999 5.0999 22.4999 2.6999C21.8999 1.6999 20.6999 0.399902 19.4999 1.2999ZM22.8999 146.5C19.4999 145 15.7999 143.8 13.1999 141.2C14.2999 141.9 15.2999 142.8 16.4999 143.5C18.1999 144.6 20.1999 145.1 22.0999 145.8C25.0999 146.9 27.7999 148.6 30.0999 150.7C27.8999 149.1 25.3999 147.7 22.8999 146.5ZM13.1999 37.5999C13.5999 34.9999 13.8999 32.3999 14.2999 29.7999C16.3999 32.1999 18.4999 34.7999 20.8999 36.7999C22.3999 37.9999 23.5999 38.8999 24.5999 40.5999C25.5999 42.1999 26.4999 43.9999 27.4999 45.6999C27.5999 48.0999 27.7999 50.5999 27.8999 52.9999C25.5999 50.5999 23.6999 48.0999 21.4999 45.5999C18.9999 42.7999 15.8999 40.5999 13.3999 37.7999C13.3999 37.6999 13.2999 37.5999 13.1999 37.5999ZM12.0999 45.5999C12.3999 43.2999 12.6999 40.9999 13.0999 38.6999C15.4999 41.3999 18.4999 43.4999 20.8999 46.1999C23.2999 48.8999 25.4999 51.7999 28.0999 54.2999C28.2999 56.9999 28.3999 59.6999 28.5999 62.3999C26.1999 59.5999 22.6999 57.9999 20.1999 55.2999C18.2999 53.2999 16.7999 50.9999 15.1999 48.7999C14.1999 47.6999 13.3999 46.3999 12.0999 45.5999ZM10.7999 54.8999C11.0999 52.4999 11.4999 50.1999 11.7999 47.7999C11.8999 47.3999 11.8999 46.9999 11.9999 46.5999C13.6999 47.7999 14.8999 50.1999 16.0999 51.8999C17.1999 53.2999 18.1999 54.6999 19.3999 56.0999C22.0999 58.9999 26.0999 60.6999 28.3999 63.9999C28.3999 64.0999 28.4999 64.0999 28.4999 64.0999C28.5999 66.5999 28.7999 69.0999 28.8999 71.5999C25.8999 68.6999 22.7999 65.8999 19.5999 63.1999C18.0999 61.9999 16.5999 60.8999 15.1999 59.4999C13.7999 57.9999 12.4999 56.2999 10.7999 54.8999ZM10.0999 63.9999C9.99986 63.8999 9.89986 63.7999 9.79986 63.7999C9.99986 61.1999 10.2999 58.5999 10.5999 55.9999C11.8999 57.1999 12.9999 58.4999 14.2999 59.7999C15.6999 61.2999 17.3999 62.4999 18.9999 63.7999C22.4999 66.6999 25.8999 69.6999 29.0999 72.8999C29.1999 73.8999 29.1999 74.8999 29.2999 75.8999C29.3999 77.6999 29.4999 79.4999 29.5999 81.2999C27.1999 78.3999 24.0999 76.3999 21.1999 73.8999C19.5999 72.4999 17.9999 70.8999 16.3999 69.4999C14.3999 67.6999 11.6999 66.0999 10.0999 63.9999ZM9.69986 70.9999C9.59986 69.2999 9.59986 67.4999 9.69986 65.7999C9.69986 65.4999 9.69986 65.1999 9.69986 64.9999C10.7999 66.2999 12.2999 67.1999 13.5999 68.2999C15.3999 69.7999 17.0999 71.4999 18.7999 73.0999C22.2999 76.2999 26.5999 78.7999 29.3999 82.6999C29.3999 82.7999 29.4999 82.7999 29.4999 82.7999C29.5999 85.2999 29.7999 87.6999 29.8999 90.1999C25.9999 86.8999 22.0999 83.5999 18.4999 80.0999C15.5999 77.0999 13.3999 73.4999 9.69986 70.9999C9.79986 71.0999 9.79986 71.0999 9.69986 70.9999ZM10.3999 78.9999C10.0999 76.6999 9.89986 74.4999 9.79986 72.1999C13.1999 74.6999 15.4999 78.3999 18.4999 81.2999C22.1999 84.7999 26.0999 88.1999 29.9999 91.4999C30.0999 93.8999 30.2999 96.2999 30.3999 98.6999C26.5999 96.0999 23.5999 92.7999 20.4999 89.2999C18.9999 87.4999 17.4999 85.6999 15.7999 83.9999C14.1999 82.2999 12.1999 80.9999 10.6999 79.1999C10.6999 78.9999 10.5999 78.9999 10.3999 78.9999ZM9.09986 84.6999C9.19986 83.9999 9.59986 83.5999 10.4999 83.5999C10.6999 83.5999 10.9999 83.3999 10.9999 83.0999C10.8999 82.1999 10.7999 81.1999 10.5999 80.2999C12.0999 81.8999 13.7999 83.0999 15.2999 84.6999C17.1999 86.6999 18.8999 88.7999 20.6999 90.8999C23.6999 94.2999 26.7999 97.3999 30.5999 99.8999C30.6999 102.3 30.8999 104.7 30.9999 107.1C28.7999 105.5 27.1999 103.4 25.2999 101.5C23.5999 99.7999 21.7999 98.1999 20.0999 96.4999C16.2999 92.4999 12.2999 88.9999 9.09986 84.6999ZM12.3999 92.7999C12.0999 92.2999 10.0999 89.0999 9.29986 86.5999C12.3999 90.3999 15.8999 93.5999 19.2999 97.1999C21.1999 99.1999 23.2999 101 25.1999 103C26.9999 104.9 28.5999 106.9 30.8999 108.3L30.9999 108.3C30.9999 108.7 30.9999 109 31.0999 109.4C31.1999 111.9 31.3999 114.3 31.5999 116.8C28.7999 113.5 25.1999 111 22.2999 107.8C19.8999 105.2 17.6999 102 14.9999 99.4999C15.4999 99.6999 15.9999 99.8999 16.5999 100.1C17.0999 100.3 17.2999 99.5999 17.0999 99.2999C15.3999 97.0999 13.7999 94.9999 12.3999 92.7999ZM12.3999 98.2999C12.3999 98.3999 12.4999 98.3999 12.4999 98.4999C15.9999 101.2 18.5999 105.1 21.4999 108.4C24.5999 111.8 28.3999 114.4 31.2999 118C31.3999 118.1 31.4999 118.2 31.5999 118.2C31.7999 119.9 31.8999 121.6 32.1999 123.4C22.9999 115.5 14.9999 106.4 8.49986 96.0999C9.79986 96.8999 11.0999 97.6999 12.3999 98.2999ZM17.6999 113.3C13.8999 108.3 10.1999 103.2 8.09987 97.2999C14.6999 107.6 22.7999 116.7 32.1999 124.4C32.2999 124.4 32.3999 124.4 32.4999 124.4L32.4999 124.5C32.4999 124.5 32.4999 124.5 32.4999 124.6C32.5999 127.2 32.6999 129.7 32.7999 132.3C32.6999 132.2 32.5999 132.1 32.3999 131.9C27.3999 125.8 22.4999 119.6 17.6999 113.3ZM31.5999 132.4L31.7999 132.6C31.9999 132.8 32.2999 133.1 32.4999 133.3C32.5999 133.4 32.6999 133.4 32.7999 133.4C32.7999 133.6 32.7999 133.7 32.7999 133.9C31.2999 132.5 30.0999 130.7 28.8999 128.9C29.7999 130 30.5999 131.1 31.4999 132.1C31.4999 132.3 31.4999 132.4 31.5999 132.4ZM23.8999 126.9C22.4999 124.9 20.8999 123.1 19.1999 121.3C21.7999 123 24.2999 124.8 26.3999 127.1C28.6999 129.6 29.9999 133 32.6999 135.1C28.6999 133.7 26.2999 130.2 23.8999 126.9ZM10.6999 121.1C10.1999 119.2 9.39987 117.8 10.6999 115.9C14.1999 126.5 23.3999 133.1 32.8999 138.2C32.8999 139.4 32.8999 140.7 32.9999 141.9C29.6999 138.8 25.8999 136.8 22.2999 134.2C17.4999 130.6 13.9999 126 10.6999 121.1ZM10.2999 124.5C10.6999 124.1 10.7999 123.5 10.7999 122.9C13.4999 126.8 16.3999 130.6 20.0999 133.6C24.1999 137 28.8999 139.2 32.6999 142.9C32.7999 143 32.8999 143 32.9999 143C32.9999 143.5 32.9999 144 32.9999 144.5C30.3999 141.3 25.8999 139.2 22.5999 136.9C17.7999 133.4 13.3999 129.6 10.0999 124.7C10.1999 124.7 10.1999 124.6 10.2999 124.5ZM21.5999 141.9C16.0999 138.3 8.39987 132.2 8.19987 125.1C8.59987 125.2 8.99987 125.3 9.39987 125.2C12.0999 129.2 15.4999 132.6 19.3999 135.6C21.2999 137.1 23.1999 138.4 25.1999 139.8C27.6999 141.5 30.9999 143.1 32.7999 145.6C32.8999 145.8 33.0999 145.8 33.1999 145.8C33.1999 147.3 33.1999 148.7 33.1999 150.2C30.3999 146 25.5999 144.5 21.5999 141.9ZM43.8999 149.2C46.1999 147.6 48.8999 145.2 51.7999 143.9C49.9999 145.4 48.2999 147 46.2999 148.4C43.0999 150.6 39.6999 152.6 36.3999 154.6C36.3999 154.4 36.3999 154.2 36.3999 154L36.4999 154C36.6999 154 36.7999 153.9 36.8999 153.8C39.3999 152.8 41.5999 150.8 43.8999 149.2ZM35.2999 158.7C35.2999 163.9 36.0999 169.1 36.8999 174.2C34.5999 167.8 34.0999 161.1 33.9999 154.3C34.1999 154.1 34.2999 153.8 34.0999 153.6L33.9999 153.5C33.9999 150.9 33.9999 148.3 33.9999 145.7C33.9999 140.8 33.7999 135.9 33.5999 130.9C34.0999 133.7 34.6999 136.6 35.0999 139.4C35.9999 145.9 35.1999 152.3 35.2999 158.7ZM59.5999 118.6C59.3999 120 58.9999 121.4 58.5999 122.8C57.7999 125.6 56.4999 128.2 54.7999 130.6C51.4999 135.4 48.0999 140.2 44.2999 144.6C42.4999 146.7 40.5999 148.7 38.4999 150.5C37.8999 151 37.0999 151.5 36.3999 152.1C36.3999 150.9 36.4999 149.7 36.4999 148.5C36.5999 148.5 36.5999 148.4 36.6999 148.4C41.0999 143.8 46.0999 139.8 49.9999 134.8C54.0999 129.4 56.7999 122.7 59.6999 116.6C59.7999 117.2 59.7999 117.9 59.5999 118.6ZM58.1999 117.7C55.5999 123.3 53.0999 129.3 49.2999 134.1C45.5999 138.9 40.7999 142.9 36.4999 147.2C36.4999 145.7 36.4999 144.2 36.3999 142.7C36.3999 142.4 36.2999 142.2 36.2999 141.9C36.3999 141.9 36.3999 141.9 36.4999 141.8C40.9999 138.2 45.6999 135.4 49.1999 130.7C52.3999 126.5 54.6999 121.7 58.1999 117.7ZM53.5999 122.4C52.2999 124.5 50.9999 126.6 49.5999 128.6C47.6999 131.4 45.4999 134.1 42.6999 136.1C40.3999 137.6 38.2999 139.3 36.1999 141C35.9999 139.1 35.6999 137.3 35.2999 135.5C35.3999 135.5 35.4999 135.5 35.4999 135.4C37.8999 133.3 40.3999 131.3 43.2999 129.9C45.1999 128.9 46.5999 127.6 48.0999 126.1C48.1999 126.2 48.3999 126.2 48.4999 126.1C50.2999 124.9 51.9999 123.7 53.5999 122.4ZM53.1999 110.2C53.4999 115.9 49.6999 119.8 48.0999 124.8C47.1999 125.8 46.1999 126.8 45.1999 127.6C43.9999 128.6 42.5999 129.1 41.2999 129.8C39.0999 131.1 37.0999 132.8 35.1999 134.4C34.9999 133.2 34.6999 132 34.4999 130.8C34.5999 130.8 34.5999 130.7 34.6999 130.7C36.2999 128.5 38.5999 127.3 40.5999 125.7C42.4999 124.1 44.2999 122.2 46.1999 120.5C49.4999 117.5 50.7999 113.3 53.1999 109.7C53.0999 109.8 53.1999 110 53.1999 110.2ZM52.9999 108.2C51.3999 110.4 50.3999 112.6 49.1999 114.8C47.8999 117.2 46.1999 119.1 44.1999 120.9C42.0999 122.8 40.1999 124.8 37.8999 126.4C36.5999 127.4 35.2999 128.3 34.2999 129.6C34.1999 129.2 34.0999 128.8 34.0999 128.4C33.9999 127.8 33.8999 127.2 33.7999 126.6C37.0999 122.5 41.3999 119.4 44.6999 115.2C46.1999 113.3 47.1999 111.1 48.2999 109C49.3999 106.8 50.9999 104.8 52.5999 102.9C52.4999 104.7 52.7999 106.4 52.9999 108.2ZM52.4999 101.3C51.1999 102.9 49.7999 104.6 48.5999 106.3C46.8999 108.8 45.9999 111.7 44.1999 114.2C41.0999 118.4 36.7999 121.5 33.4999 125.4C33.3999 124.5 33.2999 123.6 33.0999 122.7C32.9999 121.5 32.9999 120.3 32.8999 119.2C32.9999 119.2 32.9999 119.1 33.0999 119.1C34.6999 117.2 36.4999 116 38.3999 114.5C40.1999 113.1 41.7999 111.4 43.3999 109.8C46.7999 106.5 49.5999 102.7 52.4999 98.8999C52.4999 99.6999 52.4999 100.5 52.4999 101.3ZM52.6999 95.0999C52.6999 95.8999 52.6999 96.6999 52.5999 97.4999L52.4999 97.5999C49.3999 101.6 46.4999 105.7 42.8999 109.2C41.0999 111 39.3999 112.8 37.2999 114.3C35.6999 115.5 34.2999 116.5 32.9999 118C32.8999 116.9 32.8999 115.8 32.7999 114.7C36.3999 110.9 40.4999 107.7 44.2999 104.1C47.1999 101.3 50.0999 98.0999 52.6999 95.0999ZM42.8999 99.6999C43.7999 101.2 45.1999 101.1 46.6999 100.3C45.6999 101.4 44.6999 102.4 43.5999 103.4C39.9999 106.8 36.0999 109.8 32.6999 113.4C32.6999 113.2 32.6999 113.1 32.6999 112.9C32.5999 111.4 32.5999 110 32.4999 108.5C35.5999 104.4 38.9999 99.0999 43.3999 95.5999C42.4999 96.8999 42.0999 98.2999 42.8999 99.6999ZM49.5999 91.3999C49.4999 91.3999 49.4999 91.3999 49.3999 91.3999C41.9999 93.2999 36.8999 101.1 32.3999 107C32.2999 104.9 32.1999 102.9 32.0999 100.8C34.6999 97.3999 38.2999 94.6999 40.9999 91.3999C43.2999 88.5999 45.9999 86.2999 48.6999 83.9999C48.9999 86.4999 49.1999 88.9999 49.5999 91.3999ZM48.7999 82.8999C45.4999 85.6999 42.4999 88.2999 39.7999 91.5999C37.4999 94.3999 34.4999 96.6999 32.1999 99.4999C32.0999 96.6999 31.8999 93.8999 31.7999 91.0999C34.7999 88.2999 37.6999 85.3999 40.4999 82.3999C41.7999 81.0999 43.3999 80.2999 44.7999 79.1999C46.0999 78.1999 47.2999 76.9999 48.4999 75.7999C48.4999 78.1999 48.5999 80.4999 48.7999 82.8999ZM48.3999 74.5999C46.7999 76.0999 45.1999 77.8999 43.2999 79.0999C41.9999 79.9999 40.8999 80.4999 39.6999 81.6999C36.9999 84.4999 34.3999 87.1999 31.5999 89.7999C31.4999 87.2999 31.3999 84.7999 31.1999 82.2999C32.3999 80.7999 33.3999 79.1999 34.6999 77.7999C36.2999 76.0999 38.2999 74.5999 39.9999 72.9999C42.8999 70.3999 45.4999 67.6999 47.7999 64.5999C48.1999 68.0999 48.2999 71.3999 48.3999 74.5999ZM47.8999 63.3999C45.1999 67.0999 41.9999 70.2999 38.6999 73.1999C37.1999 74.4999 35.5999 75.7999 34.1999 77.1999C33.0999 78.3999 32.1999 79.6999 31.2999 80.9999C31.1999 78.1999 30.9999 75.3999 30.8999 72.6999C32.0999 70.9999 33.2999 69.1999 34.7999 67.6999C36.2999 66.1999 38.1999 65.3999 39.8999 64.0999C42.6999 61.8999 45.2999 58.7999 47.2999 55.6999C47.4999 58.2999 47.6999 60.7999 47.8999 63.3999ZM46.6999 52.9999C46.7999 53.3999 46.7999 53.8999 46.8999 54.2999C44.2999 58.5999 40.8999 62.1999 36.7999 64.8999C34.2999 66.4999 32.3999 68.7999 30.6999 71.1999C30.5999 68.4999 30.3999 65.7999 30.1999 62.9999C35.4999 57.9999 40.8999 53.1999 45.4999 47.4999C45.9999 49.3999 46.3999 51.1999 46.6999 52.9999ZM45.2999 46.4999C40.7999 52.0999 35.3999 56.8999 30.1999 61.7999C29.9999 59.0999 29.8999 56.4999 29.6999 53.7999C34.0999 48.8999 39.1999 44.8999 43.0999 39.6999C43.8999 41.9999 44.6999 44.1999 45.2999 46.4999ZM42.6999 38.6999C41.7999 39.9999 40.8999 41.4999 39.7999 42.5999C38.6999 43.6999 37.2999 44.5999 36.1999 45.6999C33.8999 47.7999 31.7999 50.1999 29.6999 52.5999C29.5999 50.8999 29.4999 49.1999 29.3999 47.4999C29.3999 46.7999 29.2999 45.9999 29.1999 45.2999L29.2999 45.1999C31.3999 42.5999 33.4999 40.0999 35.7999 37.7999C37.3999 36.1999 39.2999 35.3999 40.4999 33.5999C41.2999 35.1999 41.9999 36.8999 42.6999 38.6999ZM34.5999 37.5999C32.6999 39.5999 30.7999 41.6999 29.0999 43.8999C28.9999 41.9999 28.7999 39.9999 28.6999 38.0999C29.2999 37.2999 29.3999 36.3999 29.8999 35.2999C30.5999 33.7999 31.5999 32.4999 32.3999 31.0999C33.6999 28.8999 35.0999 26.4999 35.7999 23.9999C37.2999 26.6999 38.7999 29.4999 40.0999 32.3999C38.8999 34.4999 36.1999 35.8999 34.5999 37.5999ZM34.7999 22.4999C34.8999 22.5999 34.8999 22.7999 34.9999 22.8999C34.3999 25.7999 32.6999 28.4999 31.1999 31.0999C30.4999 32.1999 29.7999 33.2999 29.1999 34.4999C28.8999 34.9999 28.6999 35.6999 28.4999 36.2999C28.3999 35.0999 28.2999 33.8999 28.1999 32.5999C29.1999 26.9999 29.2999 21.2999 30.6999 15.8999C32.1999 18.0999 33.4999 20.2999 34.7999 22.4999ZM26.9999 35.1999C27.1999 37.9999 27.2999 40.6999 27.4999 43.4999C26.2999 41.1999 24.9999 38.6999 22.9999 37.0999C19.8999 34.5999 17.3999 31.6999 14.6999 28.6999C14.6999 28.6999 14.6999 28.6999 14.5999 28.6999C15.2999 23.9999 16.0999 19.2999 17.0999 14.5999C21.6999 20.4999 23.3999 28.6999 26.9999 35.1999Z" fill="#1BCDCE"/>
<path d="M38.5 48.7999C38.1 49.5999 38.3 50.5999 39.1 50.9999C39.6 51.1999 40.1 51.1999 40.5 50.9999C40.9 50.8999 41.3 50.6999 41.6 50.2999C42.1 49.4999 41.7 48.3999 40.8 47.9999C40 47.5999 38.9 47.8999 38.5 48.7999Z" fill="#272727"/>
<path d="M56.9001 123.4C55.4001 123.6 55.0001 125.4 55.7001 126.6C56.0001 127.1 56.5001 127.3 57.0001 127.3C57.8001 127.4 58.6001 126.7 58.8001 125.9C59.2001 124.5 58.2001 123.2 56.9001 123.4Z" fill="#272727"/>
<path d="M9.99994 40.1999C9.79994 40.7999 10.0999 41.3999 10.6999 41.5999C10.8999 41.6999 10.9999 41.6999 11.1999 41.6999L11.2999 41.7999C12.5999 42.2999 13.5999 40.5999 12.7999 39.5999C11.9999 38.5999 10.3999 38.8999 9.99994 40.1999Z" fill="#272727"/>
<path d="M1.49997 71.2999C1.29997 72.7999 3.19997 73.7999 4.29997 72.5999C4.79997 72.0999 4.69997 71.2999 4.19997 70.7999C4.19997 70.7999 4.19997 70.7999 4.09997 70.7999C3.39997 69.6999 1.69997 69.9999 1.49997 71.2999Z" fill="#272727"/>
<path d="M0.900045 133.7C0.200045 134 -0.199955 134.9 0.100045 135.7C0.100045 135.7 0.100045 135.8 0.200045 135.8C0.200045 135.9 0.300045 136 0.400045 136.1C0.500045 136.3 0.700045 136.4 1.00005 136.5C1.10005 136.5 1.20005 136.6 1.30005 136.6C1.40005 136.6 1.60005 136.6 1.70005 136.6C1.90005 136.6 2.00005 136.5 2.20005 136.4C2.80005 136.1 3.10005 135.3 2.80005 134.7C2.50005 134 1.70005 133.4 0.900045 133.7Z" fill="#272727"/>
<path d="M1.60008 147.2C1.50008 148 2.00008 148.8 2.80008 149C3.40008 149.1 4.10008 148.9 4.40008 148.3C4.60008 148 4.70008 147.7 4.60008 147.4C4.50008 146.6 3.90008 145.8 3.10008 145.7C2.20008 145.4 1.70008 146.4 1.60008 147.2Z" fill="#272727"/>
<path d="M46.2003 157.1C46.8003 157.7 47.5003 157.3 48.0003 156.7C48.2003 156.6 48.4003 156.3 48.5003 156C48.7003 155.5 48.5003 154.9 48.1003 154.6C48.0003 154.5 47.9003 154.5 47.8003 154.4C47.8003 154.4 47.8003 154.4 47.7003 154.4C46.2003 153.8 45.1003 156 46.2003 157.1Z" fill="#272727"/>
</g>
<defs>
<clipPath id="clip0">
<rect width="178" height="61.0008" fill="white" transform="translate(-0.000732422 178) rotate(-90)"/>
</clipPath>
</defs>
</svg>
