<svg width="61" height="179" viewBox="0 0 61 179" fill="none" xmlns="http://www.w3.org/2000/svg">
<path d="M19.5 2.29999C18 3.39999 17.8 7.69998 17.4 9.29999C17 10.9 16.7 12.6 16.3 14.3C16.3 14.4 16.2 14.5 16.2 14.5C15.8 16.7 15.3 18.9 14.9 21.1C13.5 28.8 12.5 36.6 11.4 44.4C10.4 51.5 9.09998 58.6 8.69999 65.7C8.49999 69.9 8.69999 74.1 9.19999 78.2C9.29999 79.4 10.2 82.7 9.49999 83.6C9.19999 84.1 8.39999 84.1 7.99999 84.8C6.69999 87 9.09999 90.2 10.1 91.9C11.7 94.6 13.4 97.1 15.3 99.5C12.4 98.4 9.79999 96.9 7.19999 95.2C7.19999 95.2 7.19999 95.2 7.09999 95.2C6.99999 95.2 6.99999 95.1 6.89999 95.1C6.49999 94.9 6.09999 95.3 6.19999 95.6C7.99999 102.9 12.2 108.9 16.7 114.8C19.6 118.6 22.6 122.4 25.6 126.2L25.5 126.1C22.8 123.6 19.6 121.6 16.5 119.7C16 119.4 15.6 120.1 15.9 120.4C19.2 123.9 22.1 127.6 25.1 131.4C27.1 134 29.4 136.1 32.5 137.1C32.6 137.1 32.6 137.1 32.7 137.1C32.7 137.4 32.7 137.8 32.7 138.1C23.4 133 14.3 126.4 11.2 115.8C11.1 115.5 10.7 115.3 10.4 115.6C9.49999 116.6 8.79999 117.7 8.69999 119.2C8.69999 119.8 8.79999 120.2 8.89999 120.7C8.99999 121.1 9.09999 121.6 9.29999 122C9.99999 123.2 9.39999 124.2 7.79999 125C7.49999 124.7 6.99999 124.9 6.99999 125.3C6.69999 132 12.1 136.5 16.7 140.5C19.1 142.5 21.5 144.2 24.3 145.7C27.5 147.4 30.6 149 32.4 152.3C32.5 152.5 32.7 152.5 32.8 152.5C32.8 152.8 32.8 153.1 32.8 153.4C30.2 150.5 27.2 148.2 23.6 146.6C21.2 145.5 18.6 145 16.3 143.5C14.6 142.4 13.2 141 11.2 140.3C10.8 140.2 10.5 140.7 10.7 141C12.9 144.2 16.1 145.8 19.6 147.2C24.4 149.3 28.7 151.7 32.6 155.1C32.7 155.1 32.7 155.2 32.8 155.2C32.9 163 33.5 170.8 36.8 178.1C37.2 178.4 37.5 178.4 37.7 178.3C38 178.3 38.3 178.1 38.2 177.7C37.3 171.9 36.3 166.1 36.2 160.3C36.2 159 36.2 157.7 36.2 156.5C36.3 156.5 36.4 156.5 36.6 156.4C39.9 154.3 43.4 152.3 46.7 150.1C49.4 148.2 51.7 145.8 54.4 143.9C54.8 143.6 54.6 143 54 143C47.5 144.2 43.3 151 37.3 153.5C38 153 38.6 152.5 38.7 152.4C39.7 151.6 40.6 150.7 41.5 149.8C43.1 148.2 44.6 146.6 46 144.8C48.9 141.3 51.5 137.7 54.1 134C56.6 130.5 58.6 127.1 59.7 122.9C60.2 121.1 62 116.9 60.1 115.4C59.9 115.2 59.6 115.4 59.5 115.6C59.1 116.1 58.7 116.6 58.3 117.2C57.7 117.8 57.2 118.5 56.6 119.1C54.4 121.5 51.9 123.6 49.1 125.5C50.7 121 53.9 117.3 54.1 112.2C54.2 109.3 53.4 106.5 53.4 103.6C53.4 103.3 53.4 102.9 53.4 102.6C53.5 102.4 53.5 102.3 53.4 102.2C53.5 99.6 53.5 97.1 53.6 94.5C53.6 94.1 53.1 93.9 52.8 94.2C51.4 95.9 49.8 97.5 48.1 99C47.5 99.5 46.9 100 46.2 100.5C43.8 99.3 43.3 98.1 44.6 96.9C45.6 95.1 47.9 93.9 49.9 93.8C50.1 93.8 50.2 93.7 50.3 93.6C50.5 93.5 50.6 93.3 50.6 93.1C49.8 87.5 49.5 81.8 49.3 76.2C49.4 76 49.4 75.8 49.3 75.7C49.1 69 48.9 62.3 47.9 55.7C48 55.5 47.9 55.3 47.8 55.2C47.4 52.8 47 50.4 46.3 48C46.3 47.9 46.3 47.9 46.2 47.8C46.3 47.6 46.2 47.4 46 47.2C45.3 44.7 44.5 42.3 43.6 39.9C43.6 39.7 43.6 39.6 43.4 39.5C39.6 29.6 34.1 20.4 28.1 11.7C26.3 9 24.6 6.09999 22.5 3.7C21.9 2.7 20.7 1.39999 19.5 2.29999ZM22.9 147.5C19.5 146 15.8 144.8 13.2 142.2C14.3 142.9 15.3 143.8 16.5 144.5C18.2 145.6 20.2 146.1 22.1 146.8C25.1 147.9 27.8 149.6 30.1 151.7C27.9 150.1 25.4 148.7 22.9 147.5ZM13.2 38.6C13.6 36 13.9 33.4 14.3 30.8C16.4 33.2 18.5 35.8 20.9 37.8C22.4 39 23.6 39.9 24.6 41.6C25.6 43.2 26.5 45 27.5 46.7C27.6 49.1 27.8 51.6 27.9 54C25.6 51.6 23.7 49.1 21.5 46.6C19 43.8 15.9 41.6 13.4 38.8C13.4 38.7 13.3 38.6 13.2 38.6ZM12.1 46.6C12.4 44.3 12.7 42 13.1 39.7C15.5 42.4 18.5 44.5 20.9 47.2C23.3 49.9 25.5 52.8 28.1 55.3C28.3 58 28.4 60.7 28.6 63.4C26.2 60.6 22.7 59 20.2 56.3C18.3 54.3 16.8 52 15.2 49.8C14.2 48.7 13.4 47.4 12.1 46.6ZM10.8 55.9C11.1 53.5 11.5 51.2 11.8 48.8C11.9 48.4 11.9 48 12 47.6C13.7 48.8 14.9 51.2 16.1 52.9C17.2 54.3 18.2 55.7 19.4 57.1C22.1 60 26.1 61.7 28.4 65C28.4 65.1 28.5 65.1 28.5 65.1C28.6 67.6 28.8 70.1 28.9 72.6C25.9 69.7 22.8 66.9 19.6 64.2C18.1 63 16.6 61.9 15.2 60.5C13.8 59 12.5 57.3 10.8 55.9ZM10.1 65C9.99999 64.9 9.89999 64.8 9.79999 64.8C9.99999 62.2 10.3 59.6 10.6 57C11.9 58.2 13 59.5 14.3 60.8C15.7 62.3 17.4 63.5 19 64.8C22.5 67.7 25.9 70.7 29.1 73.9C29.2 74.9 29.2 75.9 29.3 76.9C29.4 78.7 29.5 80.5 29.6 82.3C27.2 79.4 24.1 77.4 21.2 74.9C19.6 73.5 18 71.9 16.4 70.5C14.4 68.7 11.7 67.1 10.1 65ZM9.69999 72C9.59999 70.3 9.59999 68.5 9.69999 66.8C9.69999 66.5 9.69999 66.2 9.69999 66C10.8 67.3 12.3 68.2 13.6 69.3C15.4 70.8 17.1 72.5 18.8 74.1C22.3 77.3 26.6 79.8 29.4 83.7C29.4 83.8 29.5 83.8 29.5 83.8C29.6 86.3 29.8 88.7 29.9 91.2C26 87.9 22.1 84.6 18.5 81.1C15.6 78.1 13.4 74.5 9.69999 72C9.79999 72.1 9.79999 72.1 9.69999 72ZM10.4 80C10.1 77.7 9.89999 75.5 9.79999 73.2C13.2 75.7 15.5 79.4 18.5 82.3C22.2 85.8 26.1 89.2 30 92.5C30.1 94.9 30.3 97.3 30.4 99.7C26.6 97.1 23.6 93.8 20.5 90.3C19 88.5 17.5 86.7 15.8 85C14.2 83.3 12.2 82 10.7 80.2C10.7 80 10.6 80 10.4 80ZM9.09999 85.7C9.19999 85 9.59999 84.6 10.5 84.6C10.7 84.6 11 84.4 11 84.1C10.9 83.2 10.8 82.2 10.6 81.3C12.1 82.9 13.8 84.1 15.3 85.7C17.2 87.7 18.9 89.8 20.7 91.9C23.7 95.3 26.8 98.4 30.6 100.9C30.7 103.3 30.9 105.7 31 108.1C28.8 106.5 27.2 104.4 25.3 102.5C23.6 100.8 21.8 99.2 20.1 97.5C16.3 93.5 12.3 90 9.09999 85.7ZM12.4 93.8C12.1 93.3 10.1 90.1 9.29999 87.6C12.4 91.4 15.9 94.6 19.3 98.2C21.2 100.2 23.3 102 25.2 104C27 105.9 28.6 107.9 30.9 109.3L31 109.3C31 109.7 31 110 31.1 110.4C31.2 112.9 31.4 115.3 31.6 117.8C28.8 114.5 25.2 112 22.3 108.8C19.9 106.2 17.7 103 15 100.5C15.5 100.7 16 100.9 16.6 101.1C17.1 101.3 17.3 100.6 17.1 100.3C15.4 98.1 13.8 96 12.4 93.8ZM12.4 99.3C12.4 99.4 12.5 99.4 12.5 99.5C16 102.2 18.6 106.1 21.5 109.4C24.6 112.8 28.4 115.4 31.3 119C31.4 119.1 31.5 119.2 31.6 119.2C31.8 120.9 31.9 122.6 32.2 124.4C23 116.5 15 107.4 8.49999 97.1C9.79999 97.9 11.1 98.7 12.4 99.3ZM17.7 114.3C13.9 109.3 10.2 104.2 8.09999 98.3C14.7 108.6 22.8 117.7 32.2 125.4C32.3 125.4 32.4 125.4 32.5 125.4L32.5 125.5C32.5 125.5 32.5 125.5 32.5 125.6C32.6 128.2 32.7 130.7 32.8 133.3C32.7 133.2 32.6 133.1 32.4 132.9C27.4 126.8 22.5 120.6 17.7 114.3ZM31.6 133.4L31.8 133.6C32 133.8 32.3 134.1 32.5 134.3C32.6 134.4 32.7 134.4 32.8 134.4C32.8 134.6 32.8 134.7 32.8 134.9C31.3 133.5 30.1 131.7 28.9 129.9C29.8 131 30.6 132.1 31.5 133.1C31.5 133.3 31.5 133.4 31.6 133.4ZM23.9 127.9C22.5 125.9 20.9 124.1 19.2 122.3C21.8 124 24.3 125.8 26.4 128.1C28.7 130.6 30 134 32.7 136.1C28.7 134.7 26.3 131.2 23.9 127.9ZM10.7 122.1C10.2 120.2 9.39999 118.8 10.7 116.9C14.2 127.5 23.4 134.1 32.9 139.2C32.9 140.4 32.9 141.7 33 142.9C29.7 139.8 25.9 137.8 22.3 135.2C17.5 131.6 14 127 10.7 122.1ZM10.3 125.5C10.7 125.1 10.8 124.5 10.8 123.9C13.5 127.8 16.4 131.6 20.1 134.6C24.2 138 28.9 140.2 32.7 143.9C32.8 144 32.9 144 33 144C33 144.5 33 145 33 145.5C30.4 142.3 25.9 140.2 22.6 137.9C17.8 134.4 13.4 130.6 10.1 125.7C10.2 125.7 10.2 125.6 10.3 125.5ZM21.6 142.9C16.1 139.3 8.39999 133.2 8.19999 126.1C8.59999 126.2 8.99999 126.3 9.39999 126.2C12.1 130.2 15.5 133.6 19.4 136.6C21.3 138.1 23.2 139.4 25.2 140.8C27.7 142.5 31 144.1 32.8 146.6C32.9 146.8 33.1 146.8 33.2 146.8C33.2 148.3 33.2 149.7 33.2 151.2C30.4 147 25.6 145.5 21.6 142.9ZM43.9 150.2C46.2 148.6 48.9 146.2 51.8 144.9C50 146.4 48.3 148 46.3 149.4C43.1 151.6 39.7 153.6 36.4 155.6C36.4 155.4 36.4 155.2 36.4 155L36.5 155C36.7 155 36.8 154.9 36.9 154.8C39.4 153.8 41.6 151.8 43.9 150.2ZM35.3 159.7C35.3 164.9 36.1 170.1 36.9 175.2C34.6 168.8 34.1 162.1 34 155.3C34.2 155.1 34.3 154.8 34.1 154.6L34 154.5C34 151.9 34 149.3 34 146.7C34 141.8 33.8 136.9 33.6 131.9C34.1 134.7 34.7 137.6 35.1 140.4C36 146.9 35.2 153.3 35.3 159.7ZM59.6 119.6C59.4 121 59 122.4 58.6 123.8C57.8 126.6 56.5 129.2 54.8 131.6C51.5 136.4 48.1 141.2 44.3 145.6C42.5 147.7 40.6 149.7 38.5 151.5C37.9 152 37.1 152.5 36.4 153.1C36.4 151.9 36.5 150.7 36.5 149.5C36.6 149.5 36.6 149.4 36.7 149.4C41.1 144.8 46.1 140.8 50 135.8C54.1 130.4 56.8 123.7 59.7 117.6C59.8 118.2 59.8 118.9 59.6 119.6ZM58.2 118.7C55.6 124.3 53.1 130.3 49.3 135.1C45.6 139.9 40.8 143.9 36.5 148.2C36.5 146.7 36.5 145.2 36.4 143.7C36.4 143.4 36.3 143.2 36.3 142.9C36.4 142.9 36.4 142.9 36.5 142.8C41 139.2 45.7 136.4 49.2 131.7C52.4 127.5 54.7 122.7 58.2 118.7ZM53.6 123.4C52.3 125.5 51 127.6 49.6 129.6C47.7 132.4 45.5 135.1 42.7 137.1C40.4 138.6 38.3 140.3 36.2 142C36 140.1 35.7 138.3 35.3 136.5C35.4 136.5 35.5 136.5 35.5 136.4C37.9 134.3 40.4 132.3 43.3 130.9C45.2 129.9 46.6 128.6 48.1 127.1C48.2 127.2 48.4 127.2 48.5 127.1C50.3 125.9 52 124.7 53.6 123.4ZM53.2 111.2C53.5 116.9 49.7 120.8 48.1 125.8C47.2 126.8 46.2 127.8 45.2 128.6C44 129.6 42.6 130.1 41.3 130.8C39.1 132.1 37.1 133.8 35.2 135.4C35 134.2 34.7 133 34.5 131.8C34.6 131.8 34.6 131.7 34.7 131.7C36.3 129.5 38.6 128.3 40.6 126.7C42.5 125.1 44.3 123.2 46.2 121.5C49.5 118.5 50.8 114.3 53.2 110.7C53.1 110.8 53.2 111 53.2 111.2ZM53 109.2C51.4 111.4 50.4 113.6 49.2 115.8C47.9 118.2 46.2 120.1 44.2 121.9C42.1 123.8 40.2 125.8 37.9 127.4C36.6 128.4 35.3 129.3 34.3 130.6C34.2 130.2 34.1 129.8 34.1 129.4C34 128.8 33.9 128.2 33.8 127.6C37.1 123.5 41.4 120.4 44.7 116.2C46.2 114.3 47.2 112.1 48.3 110C49.4 107.8 51 105.8 52.6 103.9C52.5 105.7 52.8 107.4 53 109.2ZM52.5 102.3C51.2 103.9 49.8 105.6 48.6 107.3C46.9 109.8 46 112.7 44.2 115.2C41.1 119.4 36.8 122.5 33.5 126.4C33.4 125.5 33.3 124.6 33.1 123.7C33 122.5 33 121.3 32.9 120.2C33 120.2 33 120.1 33.1 120.1C34.7 118.2 36.5 117 38.4 115.5C40.2 114.1 41.8 112.4 43.4 110.8C46.8 107.5 49.6 103.7 52.5 99.9C52.5 100.7 52.5 101.5 52.5 102.3ZM52.7 96.1C52.7 96.9 52.7 97.7 52.6 98.5L52.5 98.6C49.4 102.6 46.5 106.7 42.9 110.2C41.1 112 39.4 113.8 37.3 115.3C35.7 116.5 34.3 117.5 33 119C32.9 117.9 32.9 116.8 32.8 115.7C36.4 111.9 40.5 108.7 44.3 105.1C47.2 102.3 50.1 99.1 52.7 96.1ZM42.9 100.7C43.8 102.2 45.2 102.1 46.7 101.3C45.7 102.4 44.7 103.4 43.6 104.4C40 107.8 36.1 110.8 32.7 114.4C32.7 114.2 32.7 114.1 32.7 113.9C32.6 112.4 32.6 111 32.5 109.5C35.6 105.4 39 100.1 43.4 96.6C42.5 97.9 42.1 99.3 42.9 100.7ZM49.6 92.4C49.5 92.4 49.5 92.4 49.4 92.4C42 94.3 36.9 102.1 32.4 108C32.3 105.9 32.2 103.9 32.1 101.8C34.7 98.4 38.3 95.7 41 92.4C43.3 89.6 46 87.3 48.7 85C49 87.5 49.2 90 49.6 92.4ZM48.8 83.9C45.5 86.7 42.5 89.3 39.8 92.6C37.5 95.4 34.5 97.7 32.2 100.5C32.1 97.7 31.9 94.9 31.8 92.1C34.8 89.3 37.7 86.4 40.5 83.4C41.8 82.1 43.4 81.3 44.8 80.2C46.1 79.2 47.3 78 48.5 76.8C48.5 79.2 48.6 81.5 48.8 83.9ZM48.4 75.6C46.8 77.1 45.2 78.9 43.3 80.1C42 81 40.9 81.5 39.7 82.7C37 85.5 34.4 88.2 31.6 90.8C31.5 88.3 31.4 85.8 31.2 83.3C32.4 81.8 33.4 80.2 34.7 78.8C36.3 77.1 38.3 75.6 40 74C42.9 71.4 45.5 68.7 47.8 65.6C48.2 69.1 48.3 72.4 48.4 75.6ZM47.9 64.4C45.2 68.1 42 71.3 38.7 74.2C37.2 75.5 35.6 76.8 34.2 78.2C33.1 79.4 32.2 80.7 31.3 82C31.2 79.2 31 76.4 30.9 73.7C32.1 72 33.3 70.2 34.8 68.7C36.3 67.2 38.2 66.4 39.9 65.1C42.7 62.9 45.3 59.8 47.3 56.7C47.5 59.3 47.7 61.8 47.9 64.4ZM46.7 54C46.8 54.4 46.8 54.9 46.9 55.3C44.3 59.6 40.9 63.2 36.8 65.9C34.3 67.5 32.4 69.8 30.7 72.2C30.6 69.5 30.4 66.8 30.2 64C35.5 59 40.9 54.2 45.5 48.5C46 50.4 46.4 52.2 46.7 54ZM45.3 47.5C40.8 53.1 35.4 57.9 30.2 62.8C30 60.1 29.9 57.5 29.7 54.8C34.1 49.9 39.2 45.9 43.1 40.7C43.9 43 44.7 45.2 45.3 47.5ZM42.7 39.7C41.8 41 40.9 42.5 39.8 43.6C38.7 44.7 37.3 45.6 36.2 46.7C33.9 48.8 31.8 51.2 29.7 53.6C29.6 51.9 29.5 50.2 29.4 48.5C29.4 47.8 29.3 47 29.2 46.3L29.3 46.2C31.4 43.6 33.5 41.1 35.8 38.8C37.4 37.2 39.3 36.4 40.5 34.6C41.3 36.2 42 37.9 42.7 39.7ZM34.6 38.6C32.7 40.6 30.8 42.7 29.1 44.9C29 43 28.8 41 28.7 39.1C29.3 38.3 29.4 37.4 29.9 36.3C30.6 34.8 31.6 33.5 32.4 32.1C33.7 29.9 35.1 27.5 35.8 25C37.3 27.7 38.8 30.5 40.1 33.4C38.9 35.5 36.2 36.9 34.6 38.6ZM34.8 23.5C34.9 23.6 34.9 23.8 35 23.9C34.4 26.8 32.7 29.5 31.2 32.1C30.5 33.2 29.8 34.3 29.2 35.5C28.9 36 28.7 36.7 28.5 37.3C28.4 36.1 28.3 34.9 28.2 33.6C29.2 28 29.3 22.3 30.7 16.9C32.2 19.1 33.5 21.3 34.8 23.5ZM27 36.2C27.2 39 27.3 41.7 27.5 44.5C26.3 42.2 25 39.7 23 38.1C19.9 35.6 17.4 32.7 14.7 29.7C14.7 29.7 14.7 29.7 14.6 29.7C15.3 25 16.1 20.3 17.1 15.6C21.7 21.5 23.4 29.7 27 36.2Z" fill="#FFDC25"/>
<path d="M38.5 9.79995C38.1 10.6 38.3 11.6 39.1 12C39.6 12.2 40.1 12.2 40.5 12C40.9 11.9 41.3 11.7 41.6 11.3C42.1 10.5 41.7 9.39996 40.8 8.99996C40 8.59996 38.9 8.89995 38.5 9.79995Z" fill="#272727"/>
<path d="M56.9 84.4C55.4 84.6 55 86.4 55.7 87.6C56 88.1 56.5 88.3 57 88.3C57.8 88.4 58.6 87.7 58.8 86.9C59.2 85.5 58.2 84.2 56.9 84.4Z" fill="#272727"/>
<path d="M10 1.19998C9.8 1.79998 10.1 2.39997 10.7 2.59997C10.9 2.69997 11 2.69998 11.2 2.69998L11.3 2.79997C12.6 3.29997 13.6 1.59997 12.8 0.59997C12 -0.40003 10.4 -0.100024 10 1.19998Z" fill="#272727"/>
<path d="M1.49997 32.3C1.29997 33.8 3.19997 34.8 4.29997 33.6C4.79997 33.1 4.69997 32.3 4.19997 31.8C4.19997 31.8 4.19997 31.8 4.09997 31.8C3.39997 30.7 1.69997 31 1.49997 32.3Z" fill="#272727"/>
<path d="M0.899984 94.7C0.199984 95 -0.200016 95.9 0.0999842 96.7C0.0999842 96.7 0.0999842 96.8 0.199984 96.8C0.199984 96.9 0.299984 97 0.399984 97.1C0.499984 97.3 0.699984 97.4 0.999984 97.5C1.09998 97.5 1.19998 97.6 1.29998 97.6C1.39998 97.6 1.59998 97.6 1.69998 97.6C1.89998 97.6 1.99998 97.5 2.19998 97.4C2.79998 97.1 3.09998 96.3 2.79998 95.7C2.49998 95 1.69998 94.4 0.899984 94.7Z" fill="#272727"/>
<path d="M1.59996 108.2C1.49996 109 1.99996 109.8 2.79996 110C3.39996 110.1 4.09996 109.9 4.39996 109.3C4.59996 109 4.69996 108.7 4.59996 108.4C4.49996 107.6 3.89996 106.8 3.09996 106.7C2.19996 106.4 1.69996 107.4 1.59996 108.2Z" fill="#272727"/>
<path d="M46.2 158.1C46.8 158.7 47.5 158.3 48 157.7C48.2 157.6 48.4 157.3 48.5 157C48.7 156.5 48.5 155.9 48.1 155.6C48 155.5 47.9 155.5 47.8 155.4C47.8 155.4 47.8 155.4 47.7 155.4C46.2 154.8 45.1 157 46.2 158.1Z" fill="#272727"/>
</svg>
