<svg width="99" height="95" viewBox="0 0 99 95" fill="none" xmlns="http://www.w3.org/2000/svg">
<g clip-path="url(#clip0)">
<path d="M77.7628 42.3478C79.5016 40.1775 81.4447 37.7588 82.3637 35.1152C83.0301 33.1193 82.7564 31.0689 81.1459 29.6508C79.243 28.0028 76.5781 27.9902 74.2556 28.5417C67.5496 30.1638 60.9734 33.8754 55.3419 37.9492C56.108 34.7289 56.711 31.4755 57.1509 28.189C57.5233 25.2298 57.8575 22.1264 56.9298 19.2101C55.5478 14.8717 50.9076 11.3381 46.9963 15.0621C42.4608 19.3414 40.4293 26.2261 39.2599 32.1436C37.8806 39.1608 36.6189 46.1848 35.964 53.315C35.6123 57.0798 34.889 60.752 34.0217 64.4632C33.2674 67.8734 32.6042 71.3363 32.8093 74.8731C32.8211 75.063 32.9577 75.1419 33.1017 75.1029C33.1664 75.2013 33.2766 75.326 33.4014 75.2149C45.6558 66.2968 58.0323 57.6932 70.4807 49.0702C73.1907 47.2164 75.6156 45.0149 77.7628 42.3478Z" fill="#1BCDCE"/>
<path d="M30.6216 56.1517C30.6936 56.1322 30.792 56.0669 30.7993 55.9491C30.8067 55.8312 30.8286 55.4776 30.9034 55.0325C31.8696 53.1486 35.109 47.3275 33.2505 46.8649C31.5551 46.4354 30.7703 51.4762 30.4772 54.2981C30.0501 49.7785 29.858 45.2725 30.1169 40.7216C31.001 39.4008 38.9396 26.2817 36.6374 25.7461C35.1506 25.376 33.5326 29.0201 33.1406 30.0146C32.0849 32.5794 31.185 35.2951 30.3116 37.965C30.6661 33.7746 31.2556 29.5978 31.8452 25.421C32.0843 23.8498 32.2778 22.2524 32.5624 20.7075C32.6344 20.688 32.6344 20.688 32.6608 20.6422C33.5949 19.6555 43.3284 10.6858 40.9334 9.36413C39.6581 8.6278 37.3759 11.9495 36.7899 12.6489C35.3154 14.3613 34.0039 16.1069 32.9849 18.0824C33.4456 15.6014 34.0429 13.1994 34.8297 10.7846C34.9428 10.4836 34.4344 10.3122 34.3405 10.6853C33.4744 13.2374 32.8624 15.8752 32.3871 18.5918C31.7062 15.8791 31.4499 13.1673 30.985 10.3962C30.8658 9.65589 30.3993 6.15125 29.0845 6.4299C27.4098 6.80597 28.7052 11.3996 28.9537 12.3366C29.6537 15.1214 30.7856 17.7893 31.9439 20.4114C31.963 20.4835 32.0541 20.5361 32.0996 20.5624C31.8341 22.1793 31.595 23.7505 31.3751 25.3938C30.7107 30.0157 30.1183 34.6182 29.7346 39.28C28.8817 35.9186 28.0288 32.5572 27.0583 29.1889C26.8025 28.3698 25.8947 22.4738 23.9118 24.0149C22.277 25.2686 24.2995 29.5495 24.7611 30.8537C26.0048 34.3797 27.5629 37.7821 29.3633 41.0801C29.428 41.1785 29.5191 41.2311 29.5911 41.2116C29.3659 45.5988 29.5917 49.9411 29.9351 54.2903C29.0282 52.1796 27.9773 50.1078 26.7486 48.2386C26.3415 47.5763 24.5574 44.776 23.4748 45.4939C22.3203 46.2313 24.2602 49.1826 24.6938 49.7992C26.181 52.0619 28.0282 54.2271 30.1133 55.9803C30.6023 61.024 31.2807 66.0549 31.8417 71.0791C31.8917 71.4132 32.3883 71.3947 32.3382 71.0606C31.8228 66.0627 31.1635 61.1038 30.6216 56.1517ZM29.9046 13.7402C29.6297 12.8489 29.3811 11.9119 29.1782 11.0012C29.0326 10.3067 28.8679 9.54008 28.9118 8.83291C28.8955 8.33517 28.9141 6.51465 29.5754 7.26269C30.8333 8.6604 30.6622 11.7969 30.9314 13.5395C31.2052 15.5899 31.6229 17.6013 32.2037 19.6458C32.2037 19.6458 32.2492 19.6721 32.2228 19.7179C31.3541 17.7513 30.4854 15.7847 29.9046 13.7402ZM36.3569 13.9249C36.7916 13.3823 40.2047 8.94337 40.7765 10.3723C40.8794 10.6148 40.1539 11.661 39.9689 11.9815C39.5797 12.5503 39.1186 13.1387 38.6383 13.655C38.0068 14.3281 37.3488 15.047 36.6717 15.6938C35.3366 17.0595 34.0735 18.4057 32.7385 19.7714C33.6282 17.5992 34.9014 15.7095 36.3569 13.9249ZM26.1646 32.9459C25.6765 31.6875 25.1885 30.429 24.7724 29.1511C24.5475 28.5939 23.4303 25.6903 23.9561 25.2003C25.488 23.7041 26.1604 27.6938 26.3324 28.3425C26.7412 29.7383 27.169 31.2062 27.5058 32.6215C28.1822 35.0264 28.7866 37.4508 29.3909 39.8752C28.1652 37.5804 27.1289 35.2729 26.1646 32.9459ZM30.3869 39.4125C31.1326 37.2793 31.8784 35.146 32.5786 32.9865C32.9853 31.7562 33.3655 30.5718 33.9088 29.4204C34.2068 28.7989 34.5696 28.2758 34.9323 27.7527C35.2686 27.2754 35.759 26.2156 36.2454 26.7406C36.842 27.3903 35.6262 29.4963 35.3281 30.1177C34.8039 31.3412 34.2606 32.4926 33.6454 33.6634C32.6719 35.6652 31.5881 37.5422 30.3869 39.4125ZM26.6231 51.4014C26.0338 50.6339 25.3989 49.8401 24.9081 49.0073C24.6758 48.568 23.1503 46.1611 24.6709 46.3676C25.2321 46.4474 26.1036 47.9883 26.3814 48.4539C26.8341 49.1426 27.2603 49.877 27.6145 50.6309C28.3303 52.0208 29.0461 53.4108 29.6635 54.866C28.554 53.7371 27.5621 52.615 26.6231 51.4014ZM32.976 47.8662C33.7121 48.1691 32.9866 49.2153 32.6886 49.8368C32.4169 50.4124 32.1717 50.9423 31.9001 51.518C31.6549 52.0479 31.4097 52.5778 31.1644 53.1077C31.5987 50.6726 32.2399 47.5633 32.976 47.8662Z" fill="#272727"/>
<path d="M32.8443 7.80719C33.3042 8.37796 34.1607 8.26201 34.5954 7.71943C35.0301 7.17686 35.024 6.13559 34.235 5.92426C33.5636 5.71974 33.0642 6.16394 32.819 6.69384C32.6075 7.0601 32.5592 7.45946 32.8443 7.80719ZM33.5844 6.52529C33.6828 6.46002 33.7548 6.44054 33.8723 6.44735C34.3688 6.42881 34.4042 6.99864 34.2648 7.34541C34.0797 7.66589 33.7389 7.83539 33.4201 7.65131C33.329 7.59872 33.2188 7.47404 33.1997 7.40196L33.2261 7.35618C33.2143 7.16624 33.2216 7.04838 33.2745 6.95681C33.3009 6.91103 33.3729 6.89155 33.4449 6.87206C33.5888 6.83309 33.649 6.62366 33.5844 6.52529Z" fill="#272727"/>
<path d="M35.2012 4.04035C35.3761 4.2634 35.6494 4.42118 35.93 4.4611C36.237 4.45524 36.4867 4.23315 36.6453 3.95845C36.9552 3.52693 36.9991 2.81976 36.5509 2.43892C36.1483 2.08439 35.4623 2.11559 35.1979 2.57341C34.8881 3.00494 34.897 3.62054 35.2012 4.04035ZM35.6534 2.83639C35.6798 2.7906 35.6798 2.7906 35.7063 2.74482C35.8311 2.63377 36.1117 2.6737 36.2675 2.82467C36.4424 3.04772 36.3749 3.375 36.2427 3.60392C36.1898 3.69548 36.0841 3.87861 35.9402 3.91758C35.7962 3.95655 35.6213 3.7335 35.5567 3.63512C35.4082 3.36629 35.4757 3.039 35.6534 2.83639Z" fill="#272727"/>
<path d="M38.4503 7.56422C38.8968 7.21158 39.1831 6.40018 38.7158 5.94726C38.5145 5.76999 38.2603 5.68429 37.9988 5.71645C37.9533 5.69015 37.9077 5.66385 37.8093 5.72912C37.1351 5.95027 36.5755 6.60389 36.8842 7.3315C37.1018 8.00651 37.9245 8.0542 38.4503 7.56422ZM37.4319 6.48793C37.5686 6.56682 37.739 6.48207 37.8183 6.34472C37.9313 6.04373 38.3677 6.23463 38.425 6.45087C38.5015 6.73918 38.3165 7.05966 38.0932 7.23598C37.7715 7.47756 37.419 7.45712 37.2778 7.07043C37.2205 6.85419 37.2807 6.64476 37.4319 6.48793Z" fill="#272727"/>
<path d="M93.8663 45.9073C93.4503 44.6294 90.1819 45.9776 89.4812 46.2446C86.8488 47.2275 84.3722 48.3615 81.6825 49.1282C83.7256 47.3777 85.704 45.5288 87.5531 43.4832C87.7572 43.2348 87.4266 42.8608 87.2224 43.1092C85.5246 44.998 83.7431 46.7163 81.8248 48.3557C83.0261 46.4855 83.8821 44.4769 84.6278 42.3437C84.9405 41.4865 86.6306 37.823 85.4008 37.113C83.0587 35.6997 80.1575 48.614 79.7699 49.9163C79.7435 49.9621 79.7626 50.0342 79.7626 50.0342C78.5215 51.0268 77.2804 52.0194 76.0392 53.0121C72.7168 55.611 69.3943 58.21 65.9426 60.6122C67.8181 58.5208 69.7391 56.4557 71.4133 54.187C72.0786 53.3503 74.4063 50.0549 73.3616 49.0244C71.7202 47.3442 64.3545 60.7331 63.6526 62.1591C59.841 64.6588 55.8426 66.7454 51.7149 68.6353C54.0122 66.9705 57.9853 63.7705 56.7656 62.517C55.4093 61.1845 52.0142 66.8547 50.8922 68.5876C50.5441 68.875 50.2489 69.0708 50.1505 69.136C50.0521 69.2013 50.0448 69.3192 50.0639 69.3913C45.5234 71.4701 40.8801 73.3065 36.3205 75.3133C36.0062 75.437 36.2839 75.9026 36.5528 75.7526C41.1843 73.7263 45.8805 71.7984 50.4929 69.7C53.0802 70.5833 55.8525 71.1462 58.5557 71.3029C59.3328 71.3243 62.7867 71.5481 62.8936 70.2059C62.9741 68.9094 59.6569 68.7644 58.8797 68.743C56.6467 68.6136 54.3006 68.7852 52.0456 69.0093C56.0293 67.1584 59.8837 65.1107 63.5441 62.7679C63.5632 62.84 63.6543 62.8926 63.7718 62.8994C67.4827 62.7833 71.2082 62.4315 74.9293 61.7718C76.2896 61.5195 81.0082 61.1306 81.2765 59.088C81.6197 56.6002 76.0597 58.7619 75.2224 58.95C71.8202 59.7937 68.5091 60.69 65.1451 61.6779C68.9641 59.0604 72.6802 56.2003 76.3507 53.314C77.6374 52.3477 78.905 51.3093 80.1726 50.2708C80.2181 50.2971 80.2637 50.3234 80.3812 50.3302C83.2311 50.0223 86.1075 49.6686 88.8692 48.8823C89.7521 48.7206 94.378 47.5457 93.8663 45.9073ZM53.3127 66.0783C53.6754 65.5552 54.0117 65.0779 54.3745 64.5548C54.7636 63.9859 55.2805 62.8804 55.9373 63.3206C56.5676 63.8066 54.1956 65.9166 52.3038 67.5102C52.6401 67.0329 52.9764 66.5556 53.3127 66.0783ZM56.2957 69.3266C57.0993 69.3022 57.9749 69.2584 58.7976 69.3061C59.3132 69.3596 61.1099 69.2981 61.4597 69.7442C62.3987 70.9579 59.5252 70.8859 59.0551 70.8587C58.0884 70.85 57.0835 70.6971 56.1242 70.5705C54.6036 70.3641 53.0904 70.0398 51.63 69.624C53.1725 69.4768 54.7341 69.4017 56.2957 69.3266ZM71.9467 60.4161C73.3863 60.0264 74.7995 59.6825 76.2391 59.2928C76.8605 59.1632 80.6783 57.7048 80.1485 59.7796C79.987 60.48 76.8683 60.9379 76.3189 61.048C75.0041 61.3267 73.6702 61.5333 72.3363 61.7398C69.8125 62.114 67.2769 62.2982 64.7222 62.4104C67.124 61.7216 69.5258 61.0328 71.9467 60.4161ZM64.5985 61.3623C65.6176 59.3868 66.6558 57.4835 67.9026 55.6395C68.6089 54.5213 69.3344 53.4751 70.1319 52.4094C70.5666 51.8668 71.7634 49.6888 72.5979 49.9264C73.2957 50.0851 72.6231 51.0398 72.3779 51.5697C72.1063 52.1453 71.8082 52.7668 71.4454 53.2899C70.72 54.3361 69.8579 55.3034 69.0222 56.2249C67.5476 57.9373 66.0731 59.6498 64.5985 61.3623ZM80.4133 49.4331C80.9285 47.5941 81.4628 45.8271 81.978 43.9881C82.2452 43.1046 82.4932 42.149 82.7604 41.2655C82.9673 40.5915 83.2199 39.9437 83.5444 39.2764C83.703 39.0017 84.2727 37.8046 84.5342 37.7724C86.0767 37.6253 83.9198 42.7285 83.6673 43.3763C82.8687 45.6011 81.8687 47.6486 80.4133 49.4331ZM91.8188 47.35C91.1828 47.7153 90.4365 47.9559 89.8078 48.2034C88.8912 48.5288 88.0274 48.7626 87.0726 48.9438C84.9924 49.391 82.9005 49.6483 80.8086 49.9055C80.8086 49.9055 80.8541 49.9318 80.8806 49.886C82.9151 49.4125 84.8659 48.7686 86.8049 47.9347C88.4296 47.2245 91.0794 45.5802 92.9188 45.9707C93.8253 46.1888 92.2389 47.0432 91.8188 47.35Z" fill="#272727"/>
<path d="M90.741 43.4312C91.1847 43.5042 91.5328 43.2168 91.6723 42.8701C92.0086 42.3928 92.1436 41.7382 91.6499 41.331C91.0459 40.7992 90.1866 41.3409 89.915 41.9165C89.6625 42.5643 90.0167 43.3182 90.741 43.4312ZM91.4311 41.8152C91.4957 41.9135 91.4884 42.0314 91.5075 42.1035C91.3636 42.1425 91.2387 42.2535 91.277 42.3977C91.2961 42.4697 91.2696 42.5155 91.2888 42.5876C91.2359 42.6792 91.1375 42.7444 91.0391 42.8097C91.0126 42.8555 91.0126 42.8555 91.0126 42.8555C90.8687 42.8945 90.7776 42.8419 90.6865 42.7893C90.3677 42.6052 90.3705 42.1795 90.5291 41.9048C90.6612 41.6759 91.1989 41.3759 91.4311 41.8152Z" fill="#272727"/>
<path d="M92.1223 39.0401C92.2708 39.3089 92.5705 39.4209 92.8511 39.4608C93.3667 39.5144 93.8324 39.2338 94.0967 38.776C94.433 38.2987 94.117 37.689 93.6087 37.5176C93.0548 37.3198 92.4643 37.7115 92.2455 38.1956C92.0869 38.4703 91.9739 38.7713 92.1223 39.0401ZM93.3443 37.9754C93.553 38.0348 93.7278 38.2578 93.6941 38.4215C93.6676 38.4673 93.6676 38.4673 93.6412 38.513C93.5546 38.7682 93.3049 38.9903 92.9979 38.9962C92.8803 38.9894 92.6453 38.9758 92.5615 38.8053C92.5233 38.6612 92.629 38.478 92.6819 38.3865C92.814 38.1576 93.0637 37.9355 93.3443 37.9754Z" fill="#272727"/>
<path d="M89.1784 39.7212C89.9629 39.6248 90.2036 38.7871 90.1036 38.1189C90.0845 38.0468 90.0653 37.9747 90.0198 37.9484C89.9169 37.7059 89.7156 37.5286 89.4614 37.4429C88.8355 37.2647 88.276 37.9183 88.1939 38.4813C87.9869 39.1554 88.394 39.8177 89.1784 39.7212ZM89.1251 37.9202C89.3411 37.8617 89.6981 38.19 89.5204 38.3926C89.3956 38.5036 89.4529 38.7199 89.5896 38.7988C89.5294 39.0082 89.3781 39.165 89.1886 39.1777C88.7567 39.2946 88.5436 38.9274 88.6375 38.5543C88.6522 38.3186 88.7916 37.9718 89.1251 37.9202Z" fill="#272727"/>
</g>
<defs>
<clipPath id="clip0">
<rect x="32.4325" width="76.4725" height="64.865" transform="rotate(30 32.4325 0)" fill="white"/>
</clipPath>
</defs>
</svg>
