<svg width="165" height="60" viewBox="0 0 165 60" fill="none" xmlns="http://www.w3.org/2000/svg">
<path d="M18.1244 59V52.33H16.4744L14.6544 56.72L12.8444 52.33H11.1944V59H12.3644V54.05L14.4044 59H14.9044L16.9544 54.05V59H18.1244ZM25.304 59.12C27.304 59.12 28.714 57.66 28.714 55.67C28.714 53.68 27.304 52.22 25.304 52.22C23.304 52.22 21.894 53.68 21.894 55.67C21.894 57.66 23.304 59.12 25.304 59.12ZM25.304 58.08C23.954 58.08 23.094 57.04 23.094 55.67C23.094 54.29 23.954 53.26 25.304 53.26C26.644 53.26 27.514 54.29 27.514 55.67C27.514 57.04 26.644 58.08 25.304 58.08ZM35.6905 59.12C37.0405 59.12 37.8605 58.42 38.3705 57.62L37.3705 57.11C37.0505 57.67 36.4105 58.08 35.6905 58.08C34.3705 58.08 33.3905 57.07 33.3905 55.67C33.3905 54.27 34.3705 53.26 35.6905 53.26C36.4105 53.26 37.0505 53.68 37.3705 54.23L38.3705 53.72C37.8705 52.92 37.0405 52.22 35.6905 52.22C33.7205 52.22 32.1905 53.62 32.1905 55.67C32.1905 57.72 33.7205 59.12 35.6905 59.12ZM47.3869 59L44.4769 55.48L47.1869 52.33H45.7369L43.1269 55.51V52.33H41.9569V59H43.1269V56.87L43.7069 56.19L45.9469 59H47.3869ZM54.1878 59C55.4378 59 56.1278 58.23 56.1278 57.2C56.1278 56.38 55.5478 55.67 54.8378 55.56C55.4578 55.43 55.9978 54.87 55.9978 54.03C55.9978 53.09 55.3178 52.33 54.0978 52.33H50.8178V59H54.1878ZM53.8578 55.09H51.9878V53.36H53.8578C54.4578 53.36 54.7978 53.73 54.7978 54.23C54.7978 54.73 54.4578 55.09 53.8578 55.09ZM53.9078 57.97H51.9878V56.12H53.9078C54.5778 56.12 54.9278 56.54 54.9278 57.04C54.9278 57.62 54.5478 57.97 53.9078 57.97ZM59.9522 52.33V59H62.8822C64.2822 59 65.0622 58.04 65.0622 56.91C65.0622 55.78 64.2722 54.82 62.8822 54.82H61.1222V52.33H59.9522ZM62.7222 55.85C63.3822 55.85 63.8622 56.27 63.8622 56.91C63.8622 57.55 63.3822 57.97 62.7222 57.97H61.1222V55.85H62.7222ZM66.8522 59V52.33H65.6822V59H66.8522ZM77.2709 59L80.7509 54.24V59H81.9209V52.33H80.7209L77.3109 56.96V52.33H76.1409V59H77.2709ZM94.3165 59.12C96.3165 59.12 97.7265 57.66 97.7265 55.67C97.7265 53.68 96.3165 52.22 94.3165 52.22C92.3165 52.22 90.9065 53.68 90.9065 55.67C90.9065 57.66 92.3165 59.12 94.3165 59.12ZM94.3165 58.08C92.9665 58.08 92.1065 57.04 92.1065 55.67C92.1065 54.29 92.9665 53.26 94.3165 53.26C95.6565 53.26 96.5265 54.29 96.5265 55.67C96.5265 57.04 95.6565 58.08 94.3165 58.08ZM101.503 52.33V59H104.433C105.833 59 106.613 58.04 106.613 56.91C106.613 55.78 105.823 54.82 104.433 54.82H102.673V53.36H106.073V52.33H101.503ZM104.273 55.85C104.933 55.85 105.413 56.27 105.413 56.91C105.413 57.55 104.933 57.97 104.273 57.97H102.673V55.85H104.273ZM109.807 59.12C111.097 59.12 111.967 58.67 112.287 55.84L112.567 53.36H114.877V59H116.047V52.33H111.517L111.127 55.76C110.897 57.73 110.527 58.08 109.807 58.08V59.12ZM126.114 59L123.494 52.33H122.034L119.414 59H120.744L121.234 57.72H124.294L124.784 59H126.114ZM123.964 56.69H121.564L122.764 53.51L123.964 56.69ZM132.34 59.12C133.69 59.12 134.51 58.42 135.02 57.62L134.02 57.11C133.7 57.67 133.06 58.08 132.34 58.08C131.02 58.08 130.04 57.07 130.04 55.67C130.04 54.27 131.02 53.26 132.34 53.26C133.06 53.26 133.7 53.68 134.02 54.23L135.02 53.72C134.52 52.92 133.69 52.22 132.34 52.22C130.37 52.22 128.84 53.62 128.84 55.67C128.84 57.72 130.37 59.12 132.34 59.12ZM141.367 59V53.36H143.387V52.33H138.177V53.36H140.197V59H141.367ZM148.158 59L151.638 54.24V59H152.808V52.33H151.608L148.198 56.96V52.33H147.028V59H148.158Z" fill="#888888"/>
<path d="M2.136 30.328V41H6.824C9.064 41 10.312 39.464 10.312 37.656C10.312 35.848 9.048 34.312 6.824 34.312H4.008V31.976H9.448V30.328H2.136ZM6.568 35.96C7.624 35.96 8.392 36.632 8.392 37.656C8.392 38.68 7.624 39.352 6.568 39.352H4.008V35.96H6.568ZM21.6304 41L17.4384 30.328H15.1024L10.9104 41H13.0384L13.8224 38.952H18.7184L19.5024 41H21.6304ZM18.1904 37.304H14.3504L16.2704 32.216L18.1904 37.304ZM32.252 41V30.328H30.38V34.696H24.828V30.328H22.956V41H24.828V36.344H30.38V41H32.252ZM43.3665 41L38.7105 35.368L43.0465 30.328H40.7265L36.5505 35.416V30.328H34.6785V41H36.5505V37.592L37.4785 36.504L41.0625 41H43.3665ZM52.088 41V39.352H46.648V36.392H51.976V34.744H46.648V31.976H52.088V30.328H44.776V41H52.088ZM58.5864 41V31.976H61.8184V30.328H53.4824V31.976H56.7144V41H58.5864ZM72.8607 41V30.328H70.9887V34.696H65.4367V30.328H63.5647V41H65.4367V36.344H70.9887V41H72.8607ZM75.2873 30.328V41H79.9753C82.2153 41 83.4633 39.464 83.4633 37.656C83.4633 35.848 82.1993 34.312 79.9753 34.312H77.1593V30.328H75.2873ZM79.7193 35.96C80.7753 35.96 81.5433 36.632 81.5433 37.656C81.5433 38.68 80.7753 39.352 79.7193 39.352H77.1593V35.96H79.7193ZM86.3273 41V30.328H84.4553V41H86.3273ZM96.0717 41V39.352H90.6317V36.392H95.9597V34.744H90.6317V31.976H96.0717V30.328H88.7597V41H96.0717ZM122.973 41.192C125.437 41.192 127.197 39.896 127.197 38.088C127.197 36.44 125.757 35.592 124.717 35.496C125.821 35.304 127.037 34.472 127.037 33.048C127.037 31.256 125.277 30.168 122.973 30.168C121.197 30.168 119.709 30.888 118.893 31.848L119.853 33.016C120.621 32.248 121.709 31.832 122.797 31.832C124.109 31.832 125.165 32.344 125.165 33.336C125.165 34.312 124.125 34.744 122.765 34.744H120.621V36.392H122.765C124.397 36.392 125.341 36.84 125.341 37.896C125.341 38.888 124.429 39.528 122.909 39.528C121.773 39.528 120.445 39.032 119.757 38.232L118.749 39.464C119.469 40.424 121.069 41.192 122.973 41.192ZM138.839 41L134.647 30.328H132.311L128.119 41H130.247L131.031 38.952H135.927L136.711 41H138.839ZM135.399 37.304H131.559L133.479 32.216L135.399 37.304ZM139.477 41.192C141.541 41.192 142.933 40.472 143.445 35.944L143.893 31.976H147.589V41H149.461V30.328H142.213L141.589 35.816C141.221 38.968 140.629 39.528 139.477 39.528V41.192ZM151.887 30.328V41H156.575C158.815 41 160.063 39.464 160.063 37.656C160.063 35.848 158.799 34.312 156.575 34.312H153.759V30.328H151.887ZM156.319 35.96C157.375 35.96 158.143 36.632 158.143 37.656C158.143 38.68 157.375 39.352 156.319 39.352H153.759V35.96H156.319ZM162.927 41V30.328H161.055V41H162.927Z" fill="#272727"/>
<g clip-path="url(#clip0)">
<path d="M107.854 25.1399C106.489 25.1399 105.51 24.6862 104.948 23.7862C103.913 22.1362 104.61 19.3387 105.611 17.2725C106.886 14.6362 105.581 13.8975 105.525 13.8675C105.514 13.86 105.499 13.8525 105.488 13.845C104.359 13.5 103.185 13.4212 102.15 13.56C99.4238 13.9275 97.5338 15.6525 97.095 18.1762C96.8963 19.3162 96.9375 20.3587 97.215 21.2737C97.275 21.4762 97.1625 21.6899 96.96 21.7537C96.7575 21.8137 96.5438 21.7012 96.48 21.4987C96.165 20.4674 96.12 19.3087 96.3375 18.045C96.84 15.1762 98.9738 13.215 102.049 12.7987C105.566 12.3262 109.005 14.0775 110.411 17.0587C111.833 20.0737 112.114 22.3012 111.244 23.6699C110.629 24.6449 109.485 25.1399 107.854 25.1399ZM106.815 14.3887C107.033 15.0787 107.025 16.11 106.301 17.6062C105.435 19.4024 104.73 21.9937 105.596 23.3774C106.009 24.0374 106.77 24.3712 107.85 24.3712C109.2 24.3712 110.123 23.9962 110.591 23.2612C111.3 22.1437 110.996 20.1112 109.714 17.3887C109.061 15.9975 108.011 15.0187 106.815 14.3887Z" fill="#E0B365" stroke="#1BCDCE"/>
<path d="M114.596 44.6775H111.375C110.377 44.6775 109.582 44.3888 109.016 43.8188C108.165 42.9638 108.165 41.79 108.165 41.7413C108.165 41.7188 108.127 38.8688 108.165 34.9688C108.199 31.2675 109.976 29.595 114.214 27.0225C117.416 25.08 118.129 21.8138 118.282 20.6813H112.17C111.956 20.6813 111.784 20.5088 111.784 20.2988C111.784 20.085 111.956 19.9163 112.17 19.9163H119.1L119.085 20.3138C119.077 20.5088 118.856 25.1025 114.607 27.6825C110.374 30.2513 108.96 31.665 108.93 34.98C108.892 38.8725 108.93 41.715 108.93 41.745C108.93 41.9738 109.001 43.9163 111.375 43.9163H114.596C114.81 43.9163 114.979 44.0888 114.979 44.3025C114.979 44.505 114.806 44.6775 114.596 44.6775Z" fill="#E0B365" stroke="#1BCDCE"/>
<path d="M104.018 44.6775H100.796C100.583 44.6775 100.414 44.505 100.414 44.295C100.414 44.0812 100.586 43.9087 100.796 43.9087H104.018C106.388 43.9087 106.463 41.9662 106.463 41.745C106.463 41.7112 106.5 38.865 106.463 34.9762C106.433 31.665 105.019 30.2475 100.785 27.6787C96.5363 25.0987 96.315 20.505 96.3075 20.31L96.2925 19.9125H103.774C103.988 19.9125 104.156 20.085 104.156 20.295C104.156 20.5087 103.984 20.6775 103.774 20.6775H97.1138C97.2713 21.81 97.9875 25.08 101.183 27.0187C105.416 29.5912 107.194 31.26 107.231 34.965C107.269 38.865 107.231 41.7187 107.231 41.745C107.231 41.7862 107.231 42.9562 106.38 43.815C105.81 44.3887 105.015 44.6775 104.018 44.6775Z" fill="#E0B365" stroke="#1BCDCE"/>
<path d="M102.979 8.05126C102.911 8.05126 102.84 8.04751 102.773 8.04001C102.244 7.98376 101.768 7.72876 101.434 7.31626C101.1 6.90376 100.943 6.38626 100.999 5.85751C101.104 4.83751 101.955 4.07251 102.975 4.07251C103.043 4.07251 103.114 4.07626 103.181 4.08376C104.273 4.19626 105.071 5.17501 104.959 6.26626C104.854 7.28251 104.003 8.05126 102.979 8.05126ZM102.975 4.83751C102.349 4.83751 101.828 5.31001 101.76 5.93251C101.726 6.25876 101.82 6.57376 102.026 6.82876C102.233 7.08376 102.525 7.24126 102.848 7.27501C102.889 7.27876 102.934 7.28251 102.975 7.28251C103.601 7.28251 104.123 6.81001 104.19 6.18751C104.258 5.51626 103.77 4.91626 103.099 4.84876C103.061 4.84126 103.02 4.83751 102.975 4.83751Z" fill="#E0B365" stroke="#1BCDCE"/>
<path d="M105.848 11.7938C105.78 11.7938 105.709 11.79 105.641 11.7825C105.113 11.7263 104.636 11.4713 104.303 11.0588C103.969 10.6463 103.811 10.1288 103.868 9.60003C103.973 8.58003 104.824 7.81128 105.844 7.81128C105.911 7.81128 105.983 7.81503 106.05 7.82253C107.141 7.93503 107.94 8.91378 107.828 10.005C107.719 11.025 106.868 11.7938 105.848 11.7938ZM105.844 8.58003C105.218 8.58003 104.696 9.05253 104.629 9.67503C104.595 10.0013 104.689 10.3163 104.895 10.5713C105.101 10.8263 105.394 10.9838 105.716 11.0175C105.758 11.0213 105.803 11.025 105.844 11.025C106.47 11.025 106.991 10.5525 107.059 9.93003C107.126 9.25878 106.639 8.65878 105.968 8.59128C105.926 8.58378 105.885 8.58003 105.844 8.58003Z" fill="#E0B365" stroke="#1BCDCE"/>
<path d="M101.449 12.0525C101.381 12.0525 101.31 12.0487 101.243 12.0412C100.151 11.9287 99.3525 10.95 99.465 9.85873C99.57 8.83873 100.421 8.07373 101.441 8.07373C101.509 8.07373 101.58 8.07748 101.648 8.08498C102.739 8.19748 103.538 9.17623 103.425 10.2675C103.32 11.2837 102.469 12.0525 101.449 12.0525ZM101.445 8.83873C100.819 8.83873 100.298 9.31123 100.23 9.93373C100.163 10.605 100.65 11.205 101.321 11.2725C101.363 11.2762 101.408 11.28 101.449 11.28C102.075 11.28 102.596 10.8075 102.664 10.185C102.731 9.51373 102.244 8.91373 101.573 8.84623C101.528 8.84248 101.486 8.83873 101.445 8.83873Z" fill="#E0B365" stroke="#1BCDCE"/>
<path d="M95.8388 26.295C95.7225 26.295 95.6063 26.2425 95.5313 26.1412C93.885 23.9325 93.1125 21.7162 93.2363 19.5525C93.36 17.3475 94.4175 15.1762 96.375 13.0987C96.4313 13.0387 96.4875 12.9787 96.54 12.9187C97.6688 9.3187 92.07 5.36245 92.01 5.32495L91.9875 5.3062C91.2375 4.6912 90.8438 3.8287 90.9263 2.99995C91.0725 1.57495 92.445 0.498704 93.9225 0.652454C94.5113 0.712454 95.0663 0.978704 95.5275 1.4212C96.6263 2.47495 98.0063 4.41745 98.5988 6.7012C99.285 9.35245 98.7075 11.745 96.9375 13.6275C93.3113 17.4675 93.0488 21.5212 96.15 25.68C96.2775 25.8487 96.2438 26.0925 96.0713 26.2162C96 26.2687 95.9213 26.295 95.8388 26.295ZM92.46 4.70245C92.805 4.9462 97.1775 8.08871 97.4438 11.5912C99.2963 7.94995 96.7688 3.6862 94.9913 1.9762C94.755 1.7512 94.3688 1.46995 93.84 1.41745C93.3413 1.36495 92.82 1.5187 92.4113 1.8337C91.995 2.15245 91.7363 2.59495 91.6875 3.08245C91.62 3.7462 92.04 4.3537 92.46 4.70245Z" fill="#E0B365" stroke="#1BCDCE"/>
</g>
<defs>
<clipPath id="clip0">
<rect x="81" width="45" height="45" fill="white"/>
</clipPath>
</defs>
</svg>
