<svg width="103" height="145" viewBox="0 0 103 145" fill="none" xmlns="http://www.w3.org/2000/svg">
<g clip-path="url(#clip0)">
<path d="M99.2 73.9001C97.7 60.9001 95.2 47.2001 90.3 35.0001C86.3 25.0001 79.7 15.3001 69.8 10.4001C66.4 8.70006 62.8 7.70006 59.2 7.30006C59.9 3.10006 57.1 -0.399937 52.7 0.200063C49 0.700063 47.7 4.40006 48.8 7.60006C44.8 8.30006 40.9 9.60006 37.2 11.4001C27 16.5001 19.2 25.5001 13.8 35.4001C10.5 41.5001 8 48.0001 5.9 54.6001C3.8 61.1001 1.7 68.0001 2.5 75.0001C2.5 75.1001 2.5 75.1001 2.5 75.2001C0.7 76.2001 -1.2 78.2001 1 80.0001C4 82.5001 10.7 82.0001 14.3 82.2001C24.2 82.9001 34.1 83.3001 44.1 83.5001C44.4 95.2001 44.7 106.9 44.9 118.7C45 124.4 45.1 130.1 45.1 135.9C45.1 136.7 45.1 137.5 45.1 138.4C44.5 139.4 43.7 139.9 42.6 139.8C42.3 139.9 41.9 140 41.6 140.1C40.4 140.7 40 141.9 40 143.1C40 143.3 40.1 143.4 40.2 143.5C40.2 143.7 40.3 143.8 40.5 143.9C46.1 144.7 51.7 145.4 57.1 143.5C57.4 143.4 57.5 143 57.3 142.7C57.3 142.6 57.4 142.5 57.3 142.4C57.1 141.1 56.5 140 55.2 139.5C54.3 139.1 54.2 139.6 53.4 139.4C52 139.8 51.4 138.9 51.7 136.7C51.8 135.9 51.9 135.1 52.1 134.3C52.8 129.1 53.1 123.9 53.3 118.7C53.7 107 54.1 95.3001 54.4 83.6001C66.4 83.5001 78.5 83.0001 90.5 81.8001C93 81.6001 95.5 81.3001 97.9 80.8001C99.3 80.5001 101 80.2001 102 79.1001C104 76.6001 101.3 74.7001 99.2 73.9001ZM53.2 0.900063C56.8 0.700063 58.8 3.70006 58.2 7.10006C55.4 6.80006 52.5 6.90006 49.6 7.30006C48.4 4.40006 49.8 1.10006 53.2 0.900063ZM6.3 56.3001C8 50.6001 10 45.0001 12.6 39.6001C17.4 29.7001 24.2 20.5001 33.5 14.5001C43.2 8.20006 55.8 5.70006 66.8 10.0001C77.2 14.0001 84.3 23.4001 88.6 33.3001C93.8 45.2001 96.4 58.8001 98 71.8001C96.8 70.0001 94.6 69.2001 92.3 68.6001C87.9 67.4001 83.5 66.5001 79 66.6001C79.1 64.7001 78.7 62.7001 78.6 60.9001C78.4 58.4001 78.4 55.7001 77.5 53.4001C76.2 50.1001 73 47.6001 69.5 47.1001C68.7 47.0001 68 47.0001 67.5 47.1001C66.6 44.6001 63.7 43.9001 61.3 43.9001C60.9 43.9001 60.5 43.9001 60 44.0001C59.9 43.9001 59.7 43.8001 59.5 43.8001C55.5 44.5001 51.9 46.3001 48.1 47.5001C48.1 47.5001 48.1 47.5001 48 47.5001C46.2 46.9001 43.8 46.7001 42.1 47.3001C45.9 44.9001 49.7 42.7001 52.7 39.4001C53.5 38.5001 57 34.8001 54.8 33.7001C52.6 32.6001 48.4 37.1001 47.2 38.4001C45.2 40.4001 43.3 42.4001 42 44.9001C42.2 42.3001 42.1 39.6001 41.7 36.9001C41.5 35.8001 41.1 31.2001 39.1 31.6001C37.4 31.9001 37.1 36.6001 37.1 37.8001C37.1 40.0001 37.6 42.2001 38.5 44.2001C35.3 42.5001 30.5 45.4001 28.7 47.9001C26.6 50.8001 25.8 54.6001 24.9 58.0001C24.2 60.9001 23.2 64.3001 23 67.5001C17.7 68.5001 12 68.8001 6.9 70.3001C5.5 70.7001 3.8 71.6001 3.2 72.9001C3.1 67.0001 4.7 61.6001 6.3 56.3001ZM23.2 70.3001C24.4 71.0001 26.3 71.8001 27.5 70.9001C31.1 71.9001 35.8 73.0001 39.5 72.2001C40.3 72.0001 40.8 71.7001 41.3 71.3001C41.7 72.3001 42.2 73.2001 43.5 73.4001C44.5 73.6001 45.7 73.2001 46.7 73.0001C48.7 72.6001 50.7 72.3001 52.7 72.1001C53.6 72.0001 55.1 72.2001 56.3 71.9001C56.6 72.4001 57.2 72.7001 58.1 72.8001C59.4 73.0001 61 72.5001 62.3 72.5001C64 72.4001 65.7 72.6001 67.4 72.6001C68.8 72.6001 70.7 72.7001 71.4 71.3001C74.1 72.1001 77.4 71.7001 78.6 68.8001C78.8 68.4001 78.9 67.9001 79 67.5001C82.4 67.4001 85.6 67.9001 88.9 68.6001C92.2 69.4001 97.2 69.9001 98 73.9001C82.5 77.5001 66.6 77.0001 50.9 76.9001C35.5 76.8001 19.6 78.6001 4.4 74.9001C4.4 74.8001 4.4 74.8001 4.3 74.7001C2 70.8001 13 70.0001 14.7 69.7001C17.5 69.2001 20.4 68.7001 23.2 68.2001C23.2 68.7001 23.2 69.1001 23.3 69.6001C23 69.8001 22.9 70.1001 23.2 70.3001ZM40.1 45.0001C39.4 43.7001 38.8 42.4001 38.4 40.9001C38.2 40.0001 37.6 32.5001 39.1 32.5001C39.2 32.5001 39.2 32.5001 39.3 32.5001C39.2 36.7001 39.5 40.8001 40.1 45.0001ZM42.1 67.5001C40.5 73.2001 32.6 71.3001 28.1 70.0001C28.8 68.7001 29.1 66.7001 29.5 65.6001C30.3 63.3001 31.1 60.9001 32.7 59.0001C34.2 57.2001 37.4 54.8001 39.4 52.1001C45.7 53.1001 43.2 63.6001 42.1 67.5001ZM40.2 33.9001C40.9 35.9001 41.2 39.5001 41.2 40.0001C41.3 41.8001 41.3 43.5001 41 45.3001C40.5 41.5001 40.2 37.7001 40.2 33.9001ZM66.2 52.3001C65.6 50.0001 66.3 47.6001 69.4 47.9001C70.6 48.0001 71.9 48.6001 72.9 49.2001C75.6 50.9001 76.9 53.5001 77.3 56.6001C77.6 58.7001 77.7 60.8001 77.9 62.9001C78 64.0001 78.2 65.1001 78.1 66.2001C77.9 69.7001 74.6 71.2001 71.6 70.3001C71.6 69.3001 71.2 68.0001 71.1 67.3001C70.8 65.3001 70.5 63.4001 70.1 61.4001C69.6 58.9001 68.5 54.8001 66.3 52.6001C66.2 52.6001 66.2 52.5001 66.2 52.3001ZM69 61.2001C69.3 62.7001 69.5 64.3001 69.8 65.8001C69.9 66.5001 70.5 68.1001 70.3 68.8001C70 70.2001 68.5 71.4001 67.3 71.6001C66 71.8001 64.6 71.5001 63.3 71.5001C62.7 71.5001 58.7 72.0001 57.4 71.4001C57.6 71.2001 57.8 71.1001 57.9 70.8001C58.6 69.4001 57.6 65.9001 57.1 64.2001C57.1 64.1001 57.1 64.1001 57.2 64.0001C57.5 60.8001 58.1 56.1001 60.3 53.5001C64.9 48.3001 68.4 58.2001 69 61.2001ZM64.6 46.8001C63.2 47.9001 61.7 48.1001 59.9 48.2001C59.3 48.2001 57.6 48.3001 57.1 48.0001C54.5 46.2001 58.3 45.2001 59 45.0001C60.9 44.6001 64 44.5001 65.7 46.0001C65.3 46.1001 65.1 46.4001 64.6 46.8001ZM57.1 68.8001C57.1 70.0001 57.2 70.0001 56.5 70.2001C56.4 70.2001 56.3 70.3001 56 70.4001C55.7 70.7001 55.3 70.8001 54.8 70.8001C54.2 71.0001 53.4 71.0001 52.6 71.0001C51.3 71.1001 49.9 71.3001 48.6 71.6001C47.7 71.8001 46.6 71.7001 45.8 72.1001C44.4 73.0001 42.2 72.4001 42 70.3001C42.5 69.6001 42.7 68.6001 43 67.7001C43.3 66.5001 43.7 64.9001 44 63.2001C44.1 63.2001 44.2 62.8001 44.2 62.6001C44.5 61.1001 44.9 59.9001 45.5 58.4001C46.1 57.0001 47.5 53.8001 49.1 53.6001C50.4 53.4001 52 54.9001 52.7 55.7001C53.2 56.4001 53.6 57.3001 53.9 58.1001C54.7 59.9001 55.4 61.7001 55.9 63.5001C56.4 65.1001 57.3 67.3001 57.1 68.8001ZM48.7 49.5001C47.9 49.8001 46.5 49.5001 45.7 49.5001C45.3 49.5001 41.6 49.0001 41.4 48.7001C42.1 47.7001 44.8 47.7001 45.9 47.8001C46.6 47.8001 47.2 47.9001 47.9 48.2001C48 48.2001 48 48.2001 48.1 48.2001C48.2 48.2001 48.2 48.3001 48.3 48.3001C48.7 48.5001 49 48.7001 49.1 49.1001C49.5 49.5001 49.4 49.7001 48.7 49.5001ZM39.9 47.5001C40.8 52.1001 33.8 55.9001 31.4 59.2001C30.5 60.4001 30 61.8001 29.4 63.2001C28.5 65.6001 27.6 71.3001 24 69.6001C23.5 64.7001 25.5 58.7001 26.9 54.0001C27.7 51.5001 28.5 49.0001 30.3 47.1001C32.7 44.7001 38.9 42.3001 39.9 47.5001ZM48.4 40.5001C50.2 38.8001 52 37.1001 53.8 35.4001C54.3 35.0001 54.5 35.0001 54.2 35.6001C54 35.9001 53.9 36.1001 53.7 36.4001C53.5 37.1001 52.6 37.9001 52.1 38.5001C51.3 39.4001 50.5 40.2001 49.6 40.9001C47.7 42.5001 45.7 43.8001 43.6 45.1001C45 43.4001 47 41.9001 48.4 40.5001ZM43.7 43.6001C44.5 42.4001 45.4 41.3001 46.4 40.3001C47.2 39.4001 48.1 38.6001 48.9 37.8001C49.8 37.0001 51.6 34.9001 52.8 34.8001L52.9 34.9001C50.9 36.7001 49 38.6001 47 40.5001C46.1 41.5001 44.8 42.5001 43.7 43.6001ZM53.5 83.5001C53.2 95.0001 52.8 106.5 52.4 118C52.2 124 51.9 129.9 50.9 135.8C50.7 136.8 50.1 138.7 50.9 139.7C52.4 141.6 55.9 138.3 56.5 142.6C51.4 144.3 46.2 143.7 40.9 143C41.2 139.3 44.3 141.6 45.6 139.9C46.4 138.9 45.9 137.1 45.9 136C45.8 130.1 45.8 124.1 45.7 118.2C45.5 106.7 45.3 95.2001 45 83.7001C47.6 83.7001 50.2 83.7001 52.9 83.7001C53 83.5001 53.3 83.5001 53.5 83.5001ZM99.5 79.4001C98.9 79.8001 97.8 79.8001 97.1 79.9001C94.7 80.4001 92.3 80.6001 89.9 80.9001C85.7 81.3001 81.5 81.6001 77.3 81.8001C68.5 82.3001 59.8 82.6001 51 82.6001C42.4 82.6001 33.8 82.4001 25.3 82.0001C20.8 81.8001 16.3 81.5001 11.9 81.1001C9.8 80.9001 7.6 80.8001 5.5 80.5001C4.8 80.4001 2.6 80.1001 2.2 79.6001C0.8 78.9001 0.899999 78.0001 1.5 77.0001C2.1 76.5001 2.7 76.1001 3.4 75.8001C3.5 75.8001 3.5 75.7001 3.6 75.7001C19 79.5001 35.1 77.7001 50.8 77.8001C66.8 77.9001 83 78.4001 98.7 74.6001C100.5 75.3001 103.8 76.8001 99.5 79.4001Z" fill="#1BCDCE"/>
<path d="M43.9 34.9001C43.9 35.0001 43.9 35.0001 44 35.1001C44.2 35.6001 44.8 35.7001 45.3 35.6001C46.3 35.2001 46.4 33.8001 45.5 33.3001C44.6 32.9001 43.7 33.8001 43.9 34.7001C43.9 34.7001 43.9 34.8001 43.9 34.9001Z" fill="#1BCDCE"/>
<path d="M53.4 41.4C53.3 41.9 53.6 42.3 54 42.5C54.4 42.8 54.8 42.8 55.2 42.4C55.3 42.3 55.3 42.1 55.3 42C55.4 41.8 55.4 41.6 55.4 41.4C55.2 40.4 53.7 40.5 53.4 41.4Z" fill="#1BCDCE"/>
<path d="M40.5 129.4C40.7 130.5 40.9 131.7 41.2 132.8C41.3 133.4 42.2 133.1 42.1 132.6C41.7 131 41.4 129.3 41.2 127.6C41.7 125.2 42.1 122.7 42.4 120.2C42.5 118.6 43.1 116.1 42.1 114.7C41.9 114.5 41.7 114.4 41.5 114.5C40.3 115 40.2 116.5 40.2 117.6C40.2 118.8 40.2 119.9 40.3 121.1C40.2 120.7 40.1 120.3 40 119.9C39.2 117 38.1 114.1 36.9 111.3C37 111.2 37.1 111.1 37.1 110.9C37.2 108.4 37.3 105.9 37.3 103.3C37.3 101.9 37.4 99.9001 36.4 98.7001C36.3 98.6001 36.1 98.5001 35.9 98.6001C33.7 99.3001 34.5 104.3 35.2 107.6C33.6 104.3 31.7 101.2 29.5 98.3001C29.5 98.2001 29.6 98.1001 29.6 98.0001C29.6 97.9001 29.6 97.8001 29.6 97.7001V97.6001C29.6 97.5001 29.6 97.3001 29.5 97.2001C29.4 95.6001 29.2 94.1001 28.9 92.5001C28.7 91.3001 28.5 89.4001 27.5 88.5001C27.3 88.4001 27.1 88.3001 26.9 88.4001C25.9 88.9001 26.3 90.4001 26.5 91.2001C26.9 93.2001 28.2 95.0001 28.5 96.9001C27 95.1001 25.4 93.4001 23.6 91.9001C22.5 90.8001 21.3 89.4001 20 88.8001C19.7 88.7001 19.3 88.8001 19.3 89.2001C19.4 90.9001 20.8 91.7001 22 92.8001C22.4 93.2001 22.8 93.5001 23.3 93.9001C22.2 93.5001 20.2 92.5001 19.2 93.5001C19.1 93.9001 19 94.0001 19 94.2001C19.3 95.3001 21 95.6001 22 96.0001C24 96.8001 26 97.5001 28 98.1001C30.4 101 32.4 104.3 34.1 107.8C33.2 106.8 32.3 105.9 31.3 105C30.5 104.3 28.6 102 27.4 103.3C26.2 104.5 28.7 106.2 29.5 106.9C31.4 108.7 33.5 110.3 35.8 111.6C37.2 114.7 38.5 118 39.2 121.3C39.6 122.9 39.8 124.5 40 126C39.3 124.8 38.5 123.7 37.6 122.6C36.5 121.4 35.1 119.4 33.3 119.4C33.1 119.4 33 119.5 32.9 119.6C32.2 120.9 33.9 122.2 34.8 123C36.8 124.9 38.6 126.9 40.1 129.2C40.3 129.3 40.4 129.3 40.5 129.4Z" fill="#1BCDCE"/>
<path d="M74.2 95C74.6 94.6 75 94.3 75.5 93.9C76.7 92.9 78.1 92 78.2 90.3C78.2 89.9 77.8 89.8 77.5 89.9C76.1 90.5 75 91.9 73.9 93C72.1 94.5 70.5 96.2 69 98C69.4 96 70.6 94.2 71 92.3C71.2 91.4 71.6 90 70.6 89.5C70.4 89.4 70.2 89.4 70 89.6C69 90.5 68.9 92.4 68.6 93.6C68.3 95.1 68.1 96.7 68 98.3C68 98.4 68 98.6 67.9 98.7V98.8C67.9 98.9 67.9 99 67.9 99.1C67.9 99.2 67.9 99.3 68 99.4C65.8 102.3 63.9 105.4 62.3 108.7C63 105.3 63.8 100.3 61.6 99.7C61.5 99.7 61.3 99.7 61.1 99.8C60.1 101 60.2 103 60.2 104.4C60.2 106.9 60.4 109.5 60.4 112C60.4 112.2 60.5 112.3 60.6 112.4C59.4 115.2 58.3 118.1 57.5 121C57.4 121.4 57.3 121.8 57.2 122.2C57.2 121 57.3 119.9 57.3 118.7C57.3 117.6 57.2 116.1 56 115.6C55.7 115.5 55.5 115.5 55.4 115.8C54.4 117.2 54.9 119.7 55.1 121.3C55.3 123.8 55.7 126.2 56.3 128.7C56.1 130.4 55.8 132 55.4 133.7C55.3 134.3 56.1 134.5 56.3 133.9C56.6 132.8 56.8 131.6 57 130.5C57.1 130.5 57.2 130.4 57.3 130.3C58.9 128 60.6 126 62.6 124.1C63.5 123.3 65.2 122 64.5 120.7C64.4 120.6 64.3 120.5 64.1 120.5C62.3 120.5 60.9 122.5 59.8 123.7C58.9 124.8 58.1 125.9 57.4 127.1C57.6 125.5 57.8 123.9 58.2 122.4C59 119.1 60.2 115.8 61.6 112.7C63.9 111.5 66 109.8 67.9 108C68.6 107.3 71.2 105.6 70 104.4C68.8 103.1 66.9 105.4 66.1 106.1C65.1 107 64.2 108 63.3 108.9C65 105.5 67 102.2 69.4 99.2C71.4 98.6 73.4 97.9 75.4 97.1C76.4 96.7 78 96.4 78.4 95.3C78.4 95.1 78.4 95 78.3 94.8C77.4 93.7 75.3 94.7 74.2 95Z" fill="#1BCDCE"/>
</g>
<defs>
<clipPath id="clip0">
<rect width="102.7" height="144.6" fill="white"/>
</clipPath>
</defs>
</svg>
