<svg width="841" height="184" viewBox="0 0 841 184" fill="none" xmlns="http://www.w3.org/2000/svg">
<g clip-path="url(#clip0)">
<path fill-rule="evenodd" clip-rule="evenodd" d="M105.965 133.286C104.065 132.143 105.332 134.429 104.698 132.429C104.698 132.143 104.382 132.143 104.065 132.143L104.382 131H99L99.6332 134.143C99.6332 134.429 99.9497 134.143 99.9497 134.143H100.899C100.899 134.143 101.533 134.143 101.849 134.143C101.849 131 100.899 134.429 105.015 135C106.281 134.143 105.965 135.286 105.965 133.286Z" fill="#1BCDCE"/>
<path fill-rule="evenodd" clip-rule="evenodd" d="M8.78572 35.1579C6.85714 35.4737 8.78572 36.4211 7.5 34.8421L8.78572 34.5263L9.10714 32C6.21429 32.9474 7.82143 31.3684 5.89286 33.8947L3 35.7895C4.92857 37.0526 6.85714 37.3684 9.10714 38H10.7143C11.0357 38 11.0357 38 11.3571 38C11.3571 38 11.6786 38 12 38L11.3571 34.2105C9.75 37.0526 12.3214 35.4737 9.42857 37.0526C8.14286 36.1053 9.10714 37.3684 8.78572 35.1579Z" fill="#1BCDCE"/>
<path fill-rule="evenodd" clip-rule="evenodd" d="M224.578 159.744C223.724 157.911 226.569 158.827 223.724 158.216C222.018 157.911 222.587 157.605 222.587 159.744C223.156 162.188 222.587 160.049 223.44 160.966C221.733 161.882 222.018 161.271 222.018 163.104C224.009 165.549 222.302 165.243 226 164.327C225.716 163.104 225.716 162.493 225.431 160.355H224.578C224.862 160.049 224.578 160.355 224.578 159.744Z" fill="#1BCDCE"/>
<path fill-rule="evenodd" clip-rule="evenodd" d="M6.04826 47.3342L7.32054 46.7121L6.6844 47.9563C13.6819 49.2005 10.8193 49.8226 12.4097 52C12.4097 50.1337 12.0916 49.5116 11.7735 48.2673C12.7277 47.9563 13.6819 48.2673 14 46.401C13.3639 46.09 13.3639 45.7789 12.0916 46.09C9.54703 46.401 12.4097 45.7789 11.1374 46.401L10.1832 47.3342C8.91089 42.6684 10.5012 46.7121 6.6844 45.1568C5.41213 46.401 6.36633 44.5347 6.04826 47.3342Z" fill="#1BCDCE"/>
<path fill-rule="evenodd" clip-rule="evenodd" d="M262.369 56.9259C265.456 56.9259 262.986 57.5185 265.456 56.037C265.147 57.8148 264.839 58.1111 263.912 59C267 58.7037 266.691 59.8889 267 56.9259C262.677 53.963 265.765 56.3333 264.839 54.5556C262.986 52.7778 264.839 55.1481 264.53 53.3704C264.53 52.1852 264.839 52.7778 263.912 51C263.604 51.2963 263.295 51 263.295 51.5926L262.369 52.7778C262.369 53.0741 262.369 53.0741 262.06 53.3704C261.751 54.5556 262.677 55.1481 263.912 56.3333C261.751 56.3333 263.604 55.4444 262.369 56.9259Z" fill="#1BCDCE"/>
<path fill-rule="evenodd" clip-rule="evenodd" d="M468.313 66C469.25 65.6956 469.25 65.6956 470.188 65.3913C471.75 64.7826 470.812 64.7826 473 64.7826L472.687 62.9565C472.375 62.9565 472.375 62.9565 472.062 63.2609C471.75 64.1739 469.875 63.2609 469.875 63.2609L469.25 61.4348H471.125L469.562 59C468.938 59.6087 469.875 59.3043 468 59.913C468.312 61.7391 468 64.1739 468.313 66Z" fill="#1BCDCE"/>
<path fill-rule="evenodd" clip-rule="evenodd" d="M118 4.15609C119.333 5.75772 116.667 4.47641 119.667 5.75772C123.333 7.35935 118.333 4.47641 121.333 6.07804C122.667 6.7187 120.667 7.03902 124.333 8C124.333 8 124.667 7.35935 124.667 7.67967C125 8 127 4.47641 127 4.15609C125.333 4.79674 126 4.15609 126 6.07804L124.667 4.47641L124.333 4.15609C122 5.11707 123.333 3.51544 118 4.15609Z" fill="#1BCDCE"/>
<path fill-rule="evenodd" clip-rule="evenodd" d="M221.815 35C225.678 34.2302 221.171 34.7434 226 35C224.068 32.434 225.678 34.7434 225.034 32.9472C224.712 32.1774 223.746 31.4076 223.102 31.151C219.561 30.3812 221.493 32.6906 221.815 35Z" fill="#1BCDCE"/>
<path fill-rule="evenodd" clip-rule="evenodd" d="M8.42857 0H2L2.32143 1.5C3.28571 3 2.64286 1.875 3.60714 3C3.92857 3 6.17857 2.625 7.14286 2.25L11 1.5L8.42857 0Z" fill="#1BCDCE"/>
<path fill-rule="evenodd" clip-rule="evenodd" d="M92.2727 34H93.0909L94.7273 29.7647L95 29.4118C94.4545 28 93.9091 28.3529 92 28C92.2727 29.4118 92.2727 29.4118 92.5454 30.8235C92.8182 32.5882 92.8182 31.1765 92.8182 32.2353C92.5455 33.2941 92 30.8235 92.2727 34Z" fill="#1BCDCE"/>
<path fill-rule="evenodd" clip-rule="evenodd" d="M91.7059 34C91.4118 30.8235 92 33.2941 92 32.2353C92 31.1765 92 32.5882 91.7059 30.8235C91.4118 29.7647 91.4118 29.7647 91.1176 28C86.4118 31.1765 88.1765 28.3529 87 32.5882C88.7647 31.1765 87.5882 32.2353 89.3529 29.7647C89.6471 31.5294 89.6471 31.5294 90.5294 32.9412C91.1176 33.6471 90.8235 33.2941 91.7059 34Z" fill="#1BCDCE"/>
<path fill-rule="evenodd" clip-rule="evenodd" d="M362.037 136.176C362.368 137.352 360.382 140.096 367 138.528L365.676 135C363.691 136.176 366.007 136.176 362.699 136.176H362.037Z" fill="#1BCDCE"/>
<path fill-rule="evenodd" clip-rule="evenodd" d="M114 15L119 14.6667C118.667 13 119 12 117 12C114.667 12 114.667 13 114 15Z" fill="#1BCDCE"/>
<path fill-rule="evenodd" clip-rule="evenodd" d="M59.5385 118.025L61.3846 122L62 118.025C60.7692 116.941 59.8462 116.941 59.5385 116.58C58.6154 115.496 60.7692 114.05 58 115.857C58.6154 120.193 58.3077 116.58 59.5385 118.025Z" fill="#1BCDCE"/>
<path fill-rule="evenodd" clip-rule="evenodd" d="M469 65.8182C469.267 66.1818 469.533 66.1818 470.067 66.5455C470.067 66.5455 470.333 66.5454 470.333 66.9091H470.6L471.4 67.2727H471.667L472.467 67.6364C472.467 67.6364 472.733 68 473 68C473 65.0909 472.467 65.8182 472.733 64C470.867 64 471.933 64 470.333 64.7273C469.8 65.4545 470.067 65.4545 469 65.8182Z" fill="#1BCDCE"/>
<path fill-rule="evenodd" clip-rule="evenodd" d="M93 33.6111C93 33.6111 93.3333 33.6111 93.3333 33.8889C93.6667 35.8333 92.6667 32.7778 94 34.4444C94.3333 35 94.6667 33.6111 94 35L96 32.7778L95.3333 30H95L94.6667 30.2778L93 33.6111Z" fill="#1BCDCE"/>
<path fill-rule="evenodd" clip-rule="evenodd" d="M476 96.2774C473.609 93.9781 473.951 96.0219 471.218 95C471.218 95 470.194 96.0219 472.584 96.7884C474.975 97.2993 474.634 96.7884 476 96.2774Z" fill="#1BCDCE"/>
<path fill-rule="evenodd" clip-rule="evenodd" d="M245 38L249 37C248.2 34.3333 249.267 36.3333 247.133 35.6667V33C246.333 34.6667 246.867 34.3333 246.6 35.6667C246.6 36 246.6 36 246.333 36.3333C246.333 36.6667 246.067 36.6667 246.067 37L245 38Z" fill="#1BCDCE"/>
<path fill-rule="evenodd" clip-rule="evenodd" d="M465 95.0292C470 97.6194 469.688 94.2892 470 93.5491C465.313 92.439 470.312 93.1791 466.562 94.2892L465 95.0292Z" fill="#1BCDCE"/>
<path fill-rule="evenodd" clip-rule="evenodd" d="M123.991 83L126 78.433C123.991 78.433 124.326 76.9107 123.321 79.5748C122.316 81.0971 123.991 82.6194 123.991 83Z" fill="#1BCDCE"/>
<path fill-rule="evenodd" clip-rule="evenodd" d="M407 34.6V37H408.5C409.4 36.1 409.4 35.8 410 34C407.6 35.2 410 34.6 407 34.6Z" fill="#1BCDCE"/>
<path fill-rule="evenodd" clip-rule="evenodd" d="M11.1206 152.444C10.8131 154.519 11.1206 154.519 11.7356 156C12.0431 155.704 12.9656 154.815 12.9656 154.222C13.2731 150.667 11.4281 152.444 11.1206 152.444Z" fill="#1BCDCE"/>
<path fill-rule="evenodd" clip-rule="evenodd" d="M250 0H246C247.846 3 246 1 250 2V0Z" fill="#1BCDCE"/>
<path fill-rule="evenodd" clip-rule="evenodd" d="M217.856 124C217.856 124 220.152 124 218.239 121C217.856 121 213.648 122.2 217.856 124Z" fill="#1BCDCE"/>
<path fill-rule="evenodd" clip-rule="evenodd" d="M149.909 134.912L150.182 134.366L151 133.546C149.091 133.546 150.182 133.546 148.273 133L148 134.093C148 134.366 148.273 134.093 148.545 134.366C149.364 136.004 148.273 133.819 149.909 134.912Z" fill="#1BCDCE"/>
<path fill-rule="evenodd" clip-rule="evenodd" d="M399.575 61C399.911 60.25 402.606 62.5 399.575 58C396.206 62.5 399.238 60.25 399.575 61Z" fill="#1BCDCE"/>
<path fill-rule="evenodd" clip-rule="evenodd" d="M408 54.0935C409.5 55.7617 406.5 54.3318 411 56C410.625 54.8084 411.375 55.0467 410.25 54.5701C410.25 54.0935 409.125 53.8552 408 54.0935Z" fill="#1BCDCE"/>
<path fill-rule="evenodd" clip-rule="evenodd" d="M306 32.125H306.866L308.598 34C308.887 31.375 309.464 32.875 308.309 31.375C308.021 31 308.021 31 307.443 31C304.845 31.375 307.155 31.75 306 32.125Z" fill="#1BCDCE"/>
<path fill-rule="evenodd" clip-rule="evenodd" d="M243.905 37C243.905 35.5149 244.286 35.2178 243.524 34.0297C242 35.5148 241.619 32.2475 242.381 35.5148C243.143 37.5941 242 35.8119 243.905 37Z" fill="#1BCDCE"/>
<path fill-rule="evenodd" clip-rule="evenodd" d="M217 138.983C215.721 136.67 217.64 138.322 215.081 137C214.122 139.974 212.523 138.652 217 138.983Z" fill="#1BCDCE"/>
<path fill-rule="evenodd" clip-rule="evenodd" d="M341 142.289C343.286 143.257 341.571 143.579 343 141H341.286L341 142.289Z" fill="#1BCDCE"/>
<path fill-rule="evenodd" clip-rule="evenodd" d="M245 0H243.5L242.3 0.694444L242 0.925926C245.3 0.925926 244.1 1.38889 245 0Z" fill="#1BCDCE"/>
<path fill-rule="evenodd" clip-rule="evenodd" d="M635 145H638C638 142.667 637.571 143.667 637.143 143C634.143 144.667 636.286 143 635 145Z" fill="#1BCDCE"/>
<path fill-rule="evenodd" clip-rule="evenodd" d="M318 32.2855C319.491 33 316.882 32.5237 319.491 33H320.236C320.236 33 320.609 33 320.982 33C320.982 32.5237 321.354 31.8091 318.745 32.0473L318 32.2855Z" fill="#1BCDCE"/>
<path fill-rule="evenodd" clip-rule="evenodd" d="M470.667 63C472.667 62.2 471.333 63.4 472 61H470L470.667 63Z" fill="#1BCDCE"/>
<path fill-rule="evenodd" clip-rule="evenodd" d="M341 142.938V141H340.2C339 141.775 339.8 141 339 142.163C340.2 143.326 339 142.938 341 142.938Z" fill="#1BCDCE"/>
<path fill-rule="evenodd" clip-rule="evenodd" d="M330 34C330.6 33.3333 330.4 34.3333 331 32C329.4 32.6667 330.4 30.6667 330 34Z" fill="#1BCDCE"/>
<path fill-rule="evenodd" clip-rule="evenodd" d="M240.578 0H240.133C239.911 1.90471 239.911 0.423269 240.578 0.846539C241.246 0 241.024 1.05817 240.578 0Z" fill="#1BCDCE"/>
<path fill-rule="evenodd" clip-rule="evenodd" d="M223.719 11C223.719 11 225.997 11 224.478 9.77386C223.719 8.95643 224.478 8.54771 223.719 9.77386C222.58 11 222.96 9.77386 223.719 11Z" fill="#1BCDCE"/>
<path fill-rule="evenodd" clip-rule="evenodd" d="M85.5823 32C86.0865 31.4 86.0865 31.8 85.8344 31.2L85.5823 31C85.078 31.6 84.5738 31.2 85.5823 32Z" fill="#1BCDCE"/>
<path fill-rule="evenodd" clip-rule="evenodd" d="M250 29C249.6 26.6667 250.8 28.3333 248 27L250 29Z" fill="#1BCDCE"/>
<path fill-rule="evenodd" clip-rule="evenodd" d="M6.6 47.4834L7 46L6 47.1126C6.4 48.596 6 47.8543 6.6 47.4834Z" fill="#1BCDCE"/>
<path fill-rule="evenodd" clip-rule="evenodd" d="M9 34.8802V34L7 34.4401C8.5 37.0805 6 35.7603 9 34.8802Z" fill="#1BCDCE"/>
<path fill-rule="evenodd" clip-rule="evenodd" d="M820.536 43.6316C822.464 43.8947 820.536 44.6842 821.821 43.3684L820.536 43.1053L820.214 41C823.107 41.7895 821.178 40.4737 823.107 42.3158L826 43.8947C824.071 44.9474 822.143 45.2105 819.893 45.7368L818.286 46C817.964 46 817.964 46 817.643 46C817.643 46 817.321 46 817 46L817.643 42.8421C819.25 45.2105 816.679 43.8947 819.571 45.2105C820.857 44.4211 820.214 45.4737 820.536 43.6316Z" fill="#1BCDCE"/>
<path fill-rule="evenodd" clip-rule="evenodd" d="M721.724 115.334L720.488 114.712L721.106 115.956C714.309 117.201 717.09 117.823 715.545 120C715.545 118.134 715.854 117.512 716.163 116.267C715.236 115.956 714.309 116.267 714 114.401C714.618 114.09 714.618 113.779 715.854 114.09C718.326 114.401 715.545 113.779 716.781 114.401L717.708 115.334C718.944 110.668 717.399 114.712 721.106 113.157C722.651 114.401 721.724 112.535 721.724 115.334Z" fill="#1BCDCE"/>
<path fill-rule="evenodd" clip-rule="evenodd" d="M806 114C805.31 116 806.345 114.667 802.897 115C799.448 115.333 801.517 115.667 797.724 116L797.379 114C795.655 111.667 797.379 115.667 796 112L803.931 113C806 113.667 803.931 113 806 114Z" fill="#1BCDCE"/>
<path fill-rule="evenodd" clip-rule="evenodd" d="M566.631 65.6667C563.544 65.6667 566.014 66.3333 563.544 64.6667C563.853 66.6667 564.161 67 565.088 68C562 67.6667 562.309 69 562 65.6667C566.323 62.3333 563.235 65 564.161 63C566.014 61 564.161 63.6667 564.47 61.6667C564.47 60.3333 564.161 61 565.088 59C565.396 59.3333 565.705 59 565.705 59.6667L566.631 61C566.631 61.3333 566.631 61.3333 566.94 61.6667C567.249 63 566.323 63.6667 565.088 65C567.249 64.6667 565.705 64 566.631 65.6667Z" fill="#1BCDCE"/>
<path fill-rule="evenodd" clip-rule="evenodd" d="M710 13.1561C708.815 14.7577 711.185 13.4764 708.518 14.7577C705.259 16.3593 709.704 13.4764 707.037 15.078C705.852 15.7187 707.63 16.039 704.37 17C704.37 17 704.074 16.3593 704.074 16.6797C703.778 17 702 13.4764 702 13.1561C703.482 13.7967 702.889 13.1561 702.889 15.078L704.074 13.4764L704.37 13.1561C706.444 14.1171 705.259 12.5154 710 13.1561Z" fill="#1BCDCE"/>
<path fill-rule="evenodd" clip-rule="evenodd" d="M606.97 44C603 43.0378 607.632 43.6792 603 44C604.985 40.7925 603.331 43.6792 603.992 41.434C604.323 40.4717 605.316 39.5095 605.977 39.1887C609.617 38.2265 607.301 41.1133 606.97 44Z" fill="#1BCDCE"/>
<path fill-rule="evenodd" clip-rule="evenodd" d="M820.571 9H827L826.679 10C825.714 11 826.357 10.5 825.393 11C825.071 11 822.821 10.75 821.857 10.5L818 10L820.571 9Z" fill="#1BCDCE"/>
<path fill-rule="evenodd" clip-rule="evenodd" d="M736.333 42H735.333L733.333 38.4706L733 38.1765C733.667 37 734.667 37.2941 737 37C736.667 38.1765 736.667 38.1765 736.333 39.3529C736 40.8235 736 39.6471 736 40.5294C736 41.4118 736.667 39.3529 736.333 42Z" fill="#1BCDCE"/>
<path fill-rule="evenodd" clip-rule="evenodd" d="M770 154.689C768.421 155.457 764.316 156.993 764 155.073V154.689L764.316 152C770.632 155.073 765.263 152.384 768.421 153.536C770.632 154.304 768.105 152.384 770 154.689Z" fill="#1BCDCE"/>
<path fill-rule="evenodd" clip-rule="evenodd" d="M815.667 114.055C814.333 115.109 816.667 115.109 813.667 114.758C814 114.758 814 115.109 814.333 115.109L815.667 116.164C818 118.273 814.667 115.813 816 116.867C816.667 117.219 817 117.219 818 117.219C816.667 118.977 816.333 117.219 812 117.219C812.333 115.812 812.333 115.109 812.667 114.758L814.667 113C814.667 113.703 814.333 113.352 815.667 114.055Z" fill="#1BCDCE"/>
<path fill-rule="evenodd" clip-rule="evenodd" d="M736.294 42C736.588 39.3529 736 41.4118 736 40.5294C736 39.6471 736 40.8235 736.294 39.3529C736.588 38.4706 736.588 38.4706 736.882 37C741.588 39.6471 739.824 37.2941 741 40.8235C739.235 39.6471 740.412 40.5294 738.647 38.4706C738.353 39.9412 738.353 39.9412 737.471 41.1176C737.176 41.7059 737.176 41.4118 736.294 42Z" fill="#1BCDCE"/>
<path fill-rule="evenodd" clip-rule="evenodd" d="M465.963 144.882C465.632 145.764 467.618 147.822 461 146.646L462.324 144C464.309 144.882 461.993 144.882 465.301 144.882H465.963Z" fill="#1BCDCE"/>
<path fill-rule="evenodd" clip-rule="evenodd" d="M714 24L709 23.6667C709.333 22 709 21 711 21C713.333 21 713.333 22 714 24Z" fill="#1BCDCE"/>
<path fill-rule="evenodd" clip-rule="evenodd" d="M817.051 114.538C818.609 115.462 817.986 115.769 817.051 117C816.116 116.692 815.805 117 815.181 116.692C813.935 115.769 817.051 117.923 814.87 116.077L813.623 115.154C813.623 115.154 813.312 114.846 813 114.846C816.116 115.154 813.623 115.154 814.87 114.231L816.116 113C818.609 113.923 817.363 112.077 817.051 114.538Z" fill="#1BCDCE"/>
<path fill-rule="evenodd" clip-rule="evenodd" d="M584 46L579 45.2C580 43.0667 578.667 44.6667 581.333 44.1333V42C582.333 43.3333 581.667 43.0667 582 44.1333C582 44.4 582 44.4 582.333 44.6667C582.333 44.9333 582.667 44.9333 582.667 45.2L584 46Z" fill="#1BCDCE"/>
<path fill-rule="evenodd" clip-rule="evenodd" d="M566 65.6V68H564.5C563.6 67.1 563.6 66.8 563 65C565.7 66.2 563 65.6 566 65.6Z" fill="#1BCDCE"/>
<path fill-rule="evenodd" clip-rule="evenodd" d="M817.877 160.678C818.19 163.199 817.877 163.199 817.251 165C816.939 164.64 816 163.919 816 162.839C816 158.157 817.877 160.678 817.877 160.678Z" fill="#1BCDCE"/>
<path fill-rule="evenodd" clip-rule="evenodd" d="M579 9H583C581.154 12 583 10 579 11V9Z" fill="#1BCDCE"/>
<path fill-rule="evenodd" clip-rule="evenodd" d="M809 157C808.644 157 807.222 156.733 806.867 156.465C804.378 155.128 807.933 151.383 809 157Z" fill="#1BCDCE"/>
<path fill-rule="evenodd" clip-rule="evenodd" d="M794 115.772C793.333 116.664 794 116.664 792.333 116.961C789.667 117.258 790.333 115.772 790 115.772C791.333 115.178 788.667 115.178 791.667 115.178C796 114.881 792.333 114.881 794 115.772Z" fill="#1BCDCE"/>
<path fill-rule="evenodd" clip-rule="evenodd" d="M815.666 99C814.833 97.5455 814.833 96.8182 814 95C816.916 95.7273 816.5 94.6364 816.916 96.4546C817.333 97.9091 816.083 98.2727 815.666 99Z" fill="#1BCDCE"/>
<path fill-rule="evenodd" clip-rule="evenodd" d="M841 161C837.625 160.429 838.375 161.571 838 159C840.25 159.286 839.875 158.714 841 161Z" fill="#1BCDCE"/>
<path fill-rule="evenodd" clip-rule="evenodd" d="M522 40.75H521.134L519.402 42C519.113 40.25 518.536 41.25 519.691 40.25C519.979 40 519.979 40 520.557 40C523.155 40.25 520.845 40.25 522 40.75Z" fill="#1BCDCE"/>
<path fill-rule="evenodd" clip-rule="evenodd" d="M585.048 46C585.048 44.0198 584.857 43.6238 585.238 42.0396C586 44.0198 586.19 39.6634 585.81 44.0198C585.429 46.7921 586 44.4158 585.048 46Z" fill="#1BCDCE"/>
<path fill-rule="evenodd" clip-rule="evenodd" d="M584 9H585.5L586.7 9.69444L587 9.92593C583.7 9.92593 585.2 10.3889 584 9Z" fill="#1BCDCE"/>
<path fill-rule="evenodd" clip-rule="evenodd" d="M510 40.571C509.006 42 510.745 41.0473 509.006 42H508.509C508.509 42 508.261 42 508.012 42C508.012 41.0473 507.764 39.6183 509.503 40.0946L510 40.571Z" fill="#1BCDCE"/>
<path fill-rule="evenodd" clip-rule="evenodd" d="M815 154.403C815.75 153.561 816.25 153.561 817 153C816.5 155.525 816.75 155.244 815 154.403Z" fill="#1BCDCE"/>
<path fill-rule="evenodd" clip-rule="evenodd" d="M498.946 42C497.778 41.3333 498.167 42.3333 497 40C500.113 41 498.557 39 498.946 42Z" fill="#1BCDCE"/>
<path fill-rule="evenodd" clip-rule="evenodd" d="M587.366 9H587.854C588.098 10.9047 588.098 9.42327 587.366 9.84654C586.878 9 586.878 10.0582 587.366 9Z" fill="#1BCDCE"/>
<path fill-rule="evenodd" clip-rule="evenodd" d="M605.281 19C605.281 19 603.003 19 604.522 18.3869C605.281 17.9782 604.522 17.7739 605.281 18.3869C606.42 19 606.041 18.3869 605.281 19Z" fill="#1BCDCE"/>
<path fill-rule="evenodd" clip-rule="evenodd" d="M743.511 41C742.894 40.4 742.894 40.8 743.203 40.2L743.511 40C743.82 40.6 744.437 40.2 743.511 41Z" fill="#1BCDCE"/>
<path fill-rule="evenodd" clip-rule="evenodd" d="M579 38C579.2 35.3333 578.6 37.3333 580 36L579 38Z" fill="#1BCDCE"/>
<path fill-rule="evenodd" clip-rule="evenodd" d="M789.81 154.117C789.81 156.337 788.318 153.673 789.384 153.673C790.449 153.673 789.81 151.897 789.81 154.117Z" fill="#1BCDCE"/>
<path fill-rule="evenodd" clip-rule="evenodd" d="M705 142.524L704 141L706 141.762C705.5 143.667 706.5 142.905 705 142.524Z" fill="#1BCDCE"/>
<path fill-rule="evenodd" clip-rule="evenodd" d="M820 43.4725V43L822 43.2362C820 44.6537 823 43.7087 820 43.4725Z" fill="#1BCDCE"/>
<path fill-rule="evenodd" clip-rule="evenodd" d="M637.611 147H638.9C639.544 148 640.833 146.333 639.222 148.667C637.933 150.667 639.866 149.333 636 150L637.611 147Z" fill="#1BCDCE"/>
<path fill-rule="evenodd" clip-rule="evenodd" d="M637 141H639L638.714 142C636.714 141.5 637.857 142.25 637 141Z" fill="#1BCDCE"/>
<path fill-rule="evenodd" clip-rule="evenodd" d="M639 147H637.553C636.468 143.8 637.192 146.2 637.915 145C638.638 145.8 638.277 145.4 639 147Z" fill="#1BCDCE"/>
<path fill-rule="evenodd" clip-rule="evenodd" d="M587 147L585.618 149C584.927 147 584.236 147.444 587 147Z" fill="#1BCDCE"/>
<path fill-rule="evenodd" clip-rule="evenodd" d="M575 89L573.618 92C572.927 89.3333 572.236 89.6667 575 89Z" fill="#1BCDCE"/>
<path fill-rule="evenodd" clip-rule="evenodd" d="M669 139L667.711 142C666.743 139.333 666.421 139.667 669 139Z" fill="#1BCDCE"/>
<path fill-rule="evenodd" clip-rule="evenodd" d="M360 97L358.775 100C357.857 97.3333 357.244 97.6667 360 97Z" fill="#1BCDCE"/>
<path fill-rule="evenodd" clip-rule="evenodd" d="M454 147L452.618 149C451.927 147 451.236 147.444 454 147Z" fill="#1BCDCE"/>
<path fill-rule="evenodd" clip-rule="evenodd" d="M206 72L204.618 74C203.927 72.2222 203.236 72.4444 206 72Z" fill="#1BCDCE"/>
<path fill-rule="evenodd" clip-rule="evenodd" d="M300 121L298.618 124C297.927 121.333 297.236 121.667 300 121Z" fill="#1BCDCE"/>
<path fill-rule="evenodd" clip-rule="evenodd" d="M149 181L148.355 184C147.872 181.333 147.711 181.667 149 181Z" fill="#1BCDCE"/>
<path fill-rule="evenodd" clip-rule="evenodd" d="M272 132L270.775 135C269.857 132 269.244 132.667 272 132Z" fill="#1BCDCE"/>
<path fill-rule="evenodd" clip-rule="evenodd" d="M365 181L364.309 184C363.964 181.333 363.618 181.667 365 181Z" fill="#1BCDCE"/>
<path fill-rule="evenodd" clip-rule="evenodd" d="M628 98L626.618 101C625.927 98.3333 625.236 98.6667 628 98Z" fill="#1BCDCE"/>
<path fill-rule="evenodd" clip-rule="evenodd" d="M722 148L720.711 150C719.743 148.222 719.421 148.444 722 148Z" fill="#1BCDCE"/>
<path fill-rule="evenodd" clip-rule="evenodd" d="M504 117L502.711 120C501.743 117 501.421 117.667 504 117Z" fill="#1BCDCE"/>
<path fill-rule="evenodd" clip-rule="evenodd" d="M597 166L595.775 169C594.857 166.333 594.244 166.667 597 166Z" fill="#1BCDCE"/>
<path fill-rule="evenodd" clip-rule="evenodd" d="M729 173L727.775 176C726.857 173.333 726.244 174 729 173Z" fill="#1BCDCE"/>
<path fill-rule="evenodd" clip-rule="evenodd" d="M90 51L89.5026 53C88.8395 51.2222 88.6737 51.4444 90 51Z" fill="#1BCDCE"/>
<path fill-rule="evenodd" clip-rule="evenodd" d="M31 75L29.1629 78C27.7851 75.3333 26.8665 75.6667 31 75Z" fill="#1BCDCE"/>
<path fill-rule="evenodd" clip-rule="evenodd" d="M2 85L0.710526 88C-0.256579 85.3333 -0.578947 85.6667 2 85Z" fill="#1BCDCE"/>
<path fill-rule="evenodd" clip-rule="evenodd" d="M159 55L157.618 57C156.927 55.2222 156.236 55.6667 159 55Z" fill="#1BCDCE"/>
<path fill-rule="evenodd" clip-rule="evenodd" d="M99 79L97.7105 82C96.7434 79.375 96.4211 79.75 99 79Z" fill="#1BCDCE"/>
<path fill-rule="evenodd" clip-rule="evenodd" d="M70 89L69.309 92C68.9635 89.3333 68.618 89.6667 70 89Z" fill="#1BCDCE"/>
<path fill-rule="evenodd" clip-rule="evenodd" d="M269 71L267.775 73C266.857 71.2222 266.244 71.4444 269 71Z" fill="#1BCDCE"/>
<path fill-rule="evenodd" clip-rule="evenodd" d="M208 95L207.355 98C206.872 95.3333 206.711 95.6667 208 95Z" fill="#1BCDCE"/>
<path fill-rule="evenodd" clip-rule="evenodd" d="M180 106L178.775 108C177.857 106 177.244 106.444 180 106Z" fill="#1BCDCE"/>
<path fill-rule="evenodd" clip-rule="evenodd" d="M421 64L419.618 67C418.927 64.3333 418.236 64.6667 421 64Z" fill="#1BCDCE"/>
<path fill-rule="evenodd" clip-rule="evenodd" d="M361 89L359.775 91C358.857 89.2222 358.244 89.4444 361 89Z" fill="#1BCDCE"/>
<path fill-rule="evenodd" clip-rule="evenodd" d="M333 99L331.618 102C330.927 99.3333 330.236 100 333 99Z" fill="#1BCDCE"/>
<path fill-rule="evenodd" clip-rule="evenodd" d="M430 3L428.711 6C427.743 3.33333 427.421 3.66667 430 3Z" fill="#1BCDCE"/>
<path fill-rule="evenodd" clip-rule="evenodd" d="M370 27L368.775 30C367.857 27.3333 367.244 27.6667 370 27Z" fill="#1BCDCE"/>
<path fill-rule="evenodd" clip-rule="evenodd" d="M341 38L339.711 41C338.743 38.3333 338.421 38.6667 341 38Z" fill="#1BCDCE"/>
<path fill-rule="evenodd" clip-rule="evenodd" d="M616 79L614.618 82C613.927 79.3333 613.236 79.6667 616 79Z" fill="#1BCDCE"/>
<path fill-rule="evenodd" clip-rule="evenodd" d="M556 103L554.711 106C553.743 103.333 553.421 103.667 556 103Z" fill="#1BCDCE"/>
<path fill-rule="evenodd" clip-rule="evenodd" d="M528 114L526.618 117C525.927 114 525.236 114.667 528 114Z" fill="#1BCDCE"/>
<path fill-rule="evenodd" clip-rule="evenodd" d="M753 54L751.775 57C750.857 54.3333 750.244 54.6667 753 54Z" fill="#1BCDCE"/>
<path fill-rule="evenodd" clip-rule="evenodd" d="M693 78L691.618 81C690.927 78.3333 690.236 78.6667 693 78Z" fill="#1BCDCE"/>
<path fill-rule="evenodd" clip-rule="evenodd" d="M665 89L663.775 91C662.857 89.2222 662.244 89.4444 665 89Z" fill="#1BCDCE"/>
<path fill-rule="evenodd" clip-rule="evenodd" d="M816 73L814.775 76C813.857 73 813.244 73.6667 816 73Z" fill="#1BCDCE"/>
<path fill-rule="evenodd" clip-rule="evenodd" d="M755 97L753.618 100C752.927 97.3333 752.236 97.6667 755 97Z" fill="#1BCDCE"/>
<path fill-rule="evenodd" clip-rule="evenodd" d="M727 107L725.775 110C724.857 107.333 724.244 107.667 727 107Z" fill="#1BCDCE"/>
<path fill-rule="evenodd" clip-rule="evenodd" d="M787 147L785.711 149C784.743 147 784.421 147.444 787 147Z" fill="#1BCDCE"/>
<path fill-rule="evenodd" clip-rule="evenodd" d="M727 171L725.775 174C724.857 171.333 724.244 171.667 727 171Z" fill="#1BCDCE"/>
<path fill-rule="evenodd" clip-rule="evenodd" d="M698 181L697.355 184C696.872 181.333 696.711 181.667 698 181Z" fill="#1BCDCE"/>
</g>
<defs>
<clipPath id="clip0">
<rect width="841" height="184" fill="white"/>
</clipPath>
</defs>
</svg>
