<svg width="20" height="21" viewBox="0 0 20 21" fill="none" xmlns="http://www.w3.org/2000/svg">
<path d="M17.7656 17.1895L12.6934 12.1172C13.4805 11.0996 13.9062 9.85547 13.9062 8.54688C13.9062 6.98047 13.2949 5.51172 12.1895 4.4043C11.084 3.29687 9.61133 2.6875 8.04688 2.6875C6.48242 2.6875 5.00977 3.29883 3.9043 4.4043C2.79687 5.50977 2.1875 6.98047 2.1875 8.54688C2.1875 10.1113 2.79883 11.584 3.9043 12.6895C5.00977 13.7969 6.48047 14.4062 8.04688 14.4062C9.35547 14.4062 10.5977 13.9805 11.6152 13.1953L16.6875 18.2656C16.7024 18.2805 16.72 18.2923 16.7395 18.3004C16.7589 18.3084 16.7797 18.3126 16.8008 18.3126C16.8218 18.3126 16.8427 18.3084 16.8621 18.3004C16.8815 18.2923 16.8992 18.2805 16.9141 18.2656L17.7656 17.416C17.7805 17.4011 17.7923 17.3835 17.8004 17.364C17.8084 17.3446 17.8126 17.3238 17.8126 17.3027C17.8126 17.2817 17.8084 17.2609 17.8004 17.2414C17.7923 17.222 17.7805 17.2043 17.7656 17.1895ZM11.1406 11.6406C10.3125 12.4668 9.21484 12.9219 8.04688 12.9219C6.87891 12.9219 5.78125 12.4668 4.95312 11.6406C4.12695 10.8125 3.67188 9.71484 3.67188 8.54688C3.67188 7.37891 4.12695 6.2793 4.95312 5.45312C5.78125 4.62695 6.87891 4.17188 8.04688 4.17188C9.21484 4.17188 10.3145 4.625 11.1406 5.45312C11.9668 6.28125 12.4219 7.37891 12.4219 8.54688C12.4219 9.71484 11.9668 10.8145 11.1406 11.6406Z" fill="#333333"/>
</svg>
